<ttFont>
    <TTGlyph name="A" xMin="84" yMin="-23" xMax="1395" yMax="1440">
      <contour>
        <pt x="1395" y="137" on="1"/>
        <pt x="1380" y="108" on="0"/>
        <pt x="1335" y="54" on="0"/>
        <pt x="1278" y="13" on="0"/>
        <pt x="1214" y="-12" on="0"/>
        <pt x="1180" y="-12" on="1"/>
        <pt x="1124" y="-12" on="0"/>
        <pt x="1041" y="30" on="0"/>
        <pt x="984" y="101" on="0"/>
        <pt x="956" y="193" on="0"/>
        <pt x="956" y="244" on="1"/>
        <pt x="956" y="631" on="1"/>
        <pt x="942" y="567" on="0"/>
        <pt x="906" y="420" on="0"/>
        <pt x="854" y="275" on="0"/>
        <pt x="784" y="141" on="0"/>
        <pt x="689" y="38" on="0"/>
        <pt x="567" y="-23" on="0"/>
        <pt x="489" y="-23" on="1"/>
        <pt x="394" y="-23" on="0"/>
        <pt x="244" y="49" on="0"/>
        <pt x="139" y="175" on="0"/>
        <pt x="84" y="348" on="0"/>
        <pt x="84" y="449" on="1"/>
        <pt x="84" y="569" on="0"/>
        <pt x="160" y="810" on="0"/>
        <pt x="293" y="1032" on="0"/>
        <pt x="476" y="1222" on="0"/>
        <pt x="692" y="1362" on="0"/>
        <pt x="931" y="1440" on="0"/>
        <pt x="1053" y="1438" on="1"/>
        <pt x="1065" y="1438" on="1"/>
        <pt x="1065" y="1393" on="1"/>
        <pt x="960" y="1388" on="0"/>
        <pt x="766" y="1307" on="0"/>
        <pt x="597" y="1176" on="0"/>
        <pt x="457" y="1004" on="0"/>
        <pt x="358" y="810" on="0"/>
        <pt x="303" y="604" on="0"/>
        <pt x="303" y="504" on="1"/>
        <pt x="303" y="465" on="0"/>
        <pt x="313" y="376" on="0"/>
        <pt x="337" y="287" on="0"/>
        <pt x="375" y="206" on="0"/>
        <pt x="432" y="143" on="0"/>
        <pt x="508" y="106" on="0"/>
        <pt x="557" y="106" on="1"/>
        <pt x="616" y="106" on="0"/>
        <pt x="712" y="178" on="0"/>
        <pt x="790" y="300" on="0"/>
        <pt x="851" y="462" on="0"/>
        <pt x="897" y="642" on="0"/>
        <pt x="928" y="829" on="0"/>
        <pt x="947" y="1001" on="0"/>
        <pt x="956" y="1148" on="0"/>
        <pt x="956" y="1198" on="1"/>
        <pt x="1163" y="1274" on="1"/>
        <pt x="1163" y="211" on="1"/>
        <pt x="1163" y="191" on="0"/>
        <pt x="1171" y="151" on="0"/>
        <pt x="1191" y="118" on="0"/>
        <pt x="1222" y="98" on="0"/>
        <pt x="1245" y="98" on="1"/>
        <pt x="1280" y="98" on="0"/>
        <pt x="1342" y="140" on="0"/>
        <pt x="1362" y="166" on="1"/>
      </contour>
    </TTGlyph>
    <TTGlyph name="AE" xMin="84" yMin="-23" xMax="1948" yMax="1450">
      <contour>
        <pt x="1163" y="688" on="1"/>
        <pt x="1197" y="714" on="0"/>
        <pt x="1272" y="757" on="0"/>
        <pt x="1307" y="774" on="1"/>
        <pt x="1260" y="782" on="0"/>
        <pt x="1188" y="833" on="0"/>
        <pt x="1163" y="870" on="1"/>
      </contour>
      <contour>
        <pt x="1948" y="393" on="1"/>
        <pt x="1904" y="312" on="0"/>
        <pt x="1779" y="166" on="0"/>
        <pt x="1626" y="54" on="0"/>
        <pt x="1449" y="-12" on="0"/>
        <pt x="1352" y="-12" on="1"/>
        <pt x="1277" y="-12" on="0"/>
        <pt x="1135" y="38" on="0"/>
        <pt x="1024" y="130" on="0"/>
        <pt x="956" y="259" on="0"/>
        <pt x="956" y="338" on="1"/>
        <pt x="956" y="354" on="1"/>
        <pt x="956" y="631" on="1"/>
        <pt x="942" y="567" on="0"/>
        <pt x="906" y="420" on="0"/>
        <pt x="854" y="275" on="0"/>
        <pt x="784" y="141" on="0"/>
        <pt x="689" y="38" on="0"/>
        <pt x="567" y="-23" on="0"/>
        <pt x="489" y="-23" on="1"/>
        <pt x="394" y="-23" on="0"/>
        <pt x="244" y="49" on="0"/>
        <pt x="139" y="175" on="0"/>
        <pt x="84" y="348" on="0"/>
        <pt x="84" y="449" on="1"/>
        <pt x="84" y="569" on="0"/>
        <pt x="159" y="810" on="0"/>
        <pt x="293" y="1032" on="0"/>
        <pt x="475" y="1222" on="0"/>
        <pt x="691" y="1362" on="0"/>
        <pt x="930" y="1440" on="0"/>
        <pt x="1053" y="1438" on="1"/>
        <pt x="1065" y="1438" on="1"/>
        <pt x="1065" y="1393" on="1"/>
        <pt x="960" y="1388" on="0"/>
        <pt x="766" y="1307" on="0"/>
        <pt x="597" y="1176" on="0"/>
        <pt x="457" y="1004" on="0"/>
        <pt x="358" y="810" on="0"/>
        <pt x="303" y="604" on="0"/>
        <pt x="303" y="504" on="1"/>
        <pt x="303" y="465" on="0"/>
        <pt x="313" y="376" on="0"/>
        <pt x="337" y="287" on="0"/>
        <pt x="375" y="206" on="0"/>
        <pt x="432" y="143" on="0"/>
        <pt x="508" y="106" on="0"/>
        <pt x="557" y="106" on="1"/>
        <pt x="616" y="106" on="0"/>
        <pt x="712" y="178" on="0"/>
        <pt x="790" y="300" on="0"/>
        <pt x="851" y="462" on="0"/>
        <pt x="897" y="642" on="0"/>
        <pt x="928" y="829" on="0"/>
        <pt x="947" y="1001" on="0"/>
        <pt x="956" y="1148" on="0"/>
        <pt x="956" y="1198" on="1"/>
        <pt x="1163" y="1274" on="1"/>
        <pt x="1163" y="1204" on="1"/>
        <pt x="1197" y="1260" on="0"/>
        <pt x="1302" y="1351" on="0"/>
        <pt x="1423" y="1415" on="0"/>
        <pt x="1554" y="1450" on="0"/>
        <pt x="1616" y="1450" on="1"/>
        <pt x="1697" y="1450" on="0"/>
        <pt x="1834" y="1385" on="0"/>
        <pt x="1886" y="1323" on="1"/>
        <pt x="1741" y="1217" on="1"/>
        <pt x="1720" y="1246" on="0"/>
        <pt x="1671" y="1297" on="0"/>
        <pt x="1614" y="1334" on="0"/>
        <pt x="1548" y="1356" on="0"/>
        <pt x="1511" y="1356" on="1"/>
        <pt x="1465" y="1356" on="0"/>
        <pt x="1377" y="1323" on="0"/>
        <pt x="1307" y="1264" on="0"/>
        <pt x="1264" y="1182" on="0"/>
        <pt x="1264" y="1133" on="1"/>
        <pt x="1264" y="1082" on="0"/>
        <pt x="1308" y="995" on="0"/>
        <pt x="1380" y="931" on="0"/>
        <pt x="1473" y="895" on="0"/>
        <pt x="1522" y="895" on="1"/>
        <pt x="1576" y="895" on="0"/>
        <pt x="1626" y="913" on="1"/>
        <pt x="1640" y="872" on="1"/>
        <pt x="1559" y="846" on="0"/>
        <pt x="1398" y="765" on="0"/>
        <pt x="1271" y="651" on="0"/>
        <pt x="1192" y="501" on="0"/>
        <pt x="1192" y="406" on="1"/>
        <pt x="1192" y="351" on="0"/>
        <pt x="1224" y="257" on="0"/>
        <pt x="1285" y="187" on="0"/>
        <pt x="1374" y="147" on="0"/>
        <pt x="1430" y="147" on="1"/>
        <pt x="1488" y="147" on="0"/>
        <pt x="1632" y="194" on="0"/>
        <pt x="1770" y="272" on="0"/>
        <pt x="1884" y="372" on="0"/>
        <pt x="1913" y="424" on="1"/>
      </contour>
    </TTGlyph>
    <TTGlyph name="AEacute" xMin="84" yMin="-23" xMax="1948" yMax="1806">
      <component glyphName="AE" x="0" y="0" flags="0x204"/>
      <component glyphName="acute" x="1116" y="-15" flags="0x4"/>
    </TTGlyph>
    <TTGlyph name="Aacute" xMin="84" yMin="-23" xMax="1395" yMax="1812">
      <component glyphName="A" x="0" y="0" flags="0x204"/>
      <component glyphName="acute" x="819" y="-9" flags="0x4"/>
    </TTGlyph>
    <TTGlyph name="Abreve" xMin="84" yMin="-23" xMax="1395" yMax="1874">
      <component glyphName="A" x="0" y="0" flags="0x204"/>
      <component glyphName="breve" x="482" y="31" flags="0x4"/>
    </TTGlyph>
    <TTGlyph name="Acircumflex" xMin="84" yMin="-23" xMax="1395" yMax="1882">
      <component glyphName="A" x="0" y="0" flags="0x204"/>
      <component glyphName="circumflex" x="457" y="18" flags="0x4"/>
    </TTGlyph>
    <TTGlyph name="Adieresis" xMin="84" yMin="-23" xMax="1395" yMax="1702">
      <component glyphName="A" x="0" y="0" flags="0x204"/>
      <component glyphName="dieresis" x="498" y="10" flags="0x4"/>
    </TTGlyph>
    <TTGlyph name="Agrave" xMin="84" yMin="-23" xMax="1395" yMax="1814">
      <component glyphName="A" x="0" y="0" flags="0x204"/>
      <component glyphName="grave" x="563" y="-13" flags="0x4"/>
    </TTGlyph>
    <TTGlyph name="Amacron" xMin="84" yMin="-23" xMax="1395" yMax="1683">
      <component glyphName="A" x="0" y="0" flags="0x204"/>
      <component glyphName="macron" x="483" y="8" flags="0x4"/>
    </TTGlyph>
    <TTGlyph name="Aogonek" xMin="84" yMin="-246" xMax="1395" yMax="1440">
      <contour>
        <pt x="1395" y="137" on="1"/>
        <pt x="1380" y="108" on="0"/>
        <pt x="1335" y="54" on="0"/>
        <pt x="1278" y="13" on="0"/>
        <pt x="1214" y="-12" on="0"/>
        <pt x="1180" y="-12" on="1"/>
        <pt x="1171" y="-12" on="1"/>
        <pt x="1147" y="-45" on="0"/>
        <pt x="1135" y="-94" on="0"/>
        <pt x="1137" y="-111" on="1"/>
        <pt x="1140" y="-130" on="0"/>
        <pt x="1151" y="-145" on="1"/>
        <pt x="1167" y="-161" on="0"/>
        <pt x="1185" y="-165" on="1"/>
        <pt x="1200" y="-169" on="0"/>
        <pt x="1240" y="-158" on="0"/>
        <pt x="1261" y="-131" on="1"/>
        <pt x="1284" y="-150" on="1"/>
        <pt x="1264" y="-181" on="0"/>
        <pt x="1225" y="-216" on="0"/>
        <pt x="1210" y="-226" on="1"/>
        <pt x="1192" y="-237" on="0"/>
        <pt x="1176" y="-242" on="1"/>
        <pt x="1154" y="-246" on="0"/>
        <pt x="1102" y="-233" on="0"/>
        <pt x="1061" y="-197" on="0"/>
        <pt x="1045" y="-136" on="0"/>
        <pt x="1059" y="-92" on="1"/>
        <pt x="1063" y="-79" on="0"/>
        <pt x="1072" y="-65" on="1"/>
        <pt x="1080" y="-53" on="0"/>
        <pt x="1104" y="-22" on="0"/>
        <pt x="1123" y="-5" on="1"/>
        <pt x="1081" y="5" on="0"/>
        <pt x="1019" y="53" on="0"/>
        <pt x="977" y="119" on="0"/>
        <pt x="956" y="200" on="0"/>
        <pt x="956" y="244" on="1"/>
        <pt x="956" y="631" on="1"/>
        <pt x="942" y="567" on="0"/>
        <pt x="906" y="420" on="0"/>
        <pt x="854" y="275" on="0"/>
        <pt x="784" y="141" on="0"/>
        <pt x="689" y="38" on="0"/>
        <pt x="567" y="-23" on="0"/>
        <pt x="489" y="-23" on="1"/>
        <pt x="394" y="-23" on="0"/>
        <pt x="244" y="49" on="0"/>
        <pt x="139" y="175" on="0"/>
        <pt x="84" y="348" on="0"/>
        <pt x="84" y="449" on="1"/>
        <pt x="84" y="569" on="0"/>
        <pt x="160" y="810" on="0"/>
        <pt x="293" y="1032" on="0"/>
        <pt x="476" y="1222" on="0"/>
        <pt x="692" y="1362" on="0"/>
        <pt x="931" y="1440" on="0"/>
        <pt x="1053" y="1438" on="1"/>
        <pt x="1065" y="1438" on="1"/>
        <pt x="1065" y="1393" on="1"/>
        <pt x="960" y="1388" on="0"/>
        <pt x="766" y="1307" on="0"/>
        <pt x="597" y="1176" on="0"/>
        <pt x="457" y="1004" on="0"/>
        <pt x="358" y="810" on="0"/>
        <pt x="303" y="604" on="0"/>
        <pt x="303" y="504" on="1"/>
        <pt x="303" y="465" on="0"/>
        <pt x="313" y="376" on="0"/>
        <pt x="337" y="287" on="0"/>
        <pt x="375" y="206" on="0"/>
        <pt x="432" y="143" on="0"/>
        <pt x="508" y="106" on="0"/>
        <pt x="557" y="106" on="1"/>
        <pt x="616" y="106" on="0"/>
        <pt x="712" y="178" on="0"/>
        <pt x="790" y="300" on="0"/>
        <pt x="851" y="462" on="0"/>
        <pt x="897" y="642" on="0"/>
        <pt x="928" y="829" on="0"/>
        <pt x="947" y="1001" on="0"/>
        <pt x="956" y="1148" on="0"/>
        <pt x="956" y="1198" on="1"/>
        <pt x="1163" y="1274" on="1"/>
        <pt x="1163" y="211" on="1"/>
        <pt x="1163" y="191" on="0"/>
        <pt x="1171" y="151" on="0"/>
        <pt x="1191" y="118" on="0"/>
        <pt x="1222" y="98" on="0"/>
        <pt x="1245" y="98" on="1"/>
        <pt x="1280" y="98" on="0"/>
        <pt x="1342" y="140" on="0"/>
        <pt x="1362" y="166" on="1"/>
      </contour>
    </TTGlyph>
    <TTGlyph name="Aring" xMin="84" yMin="-23" xMax="1395" yMax="1864">
      <component glyphName="A" x="0" y="0" flags="0x204"/>
      <component glyphName="ring" x="543" y="-30" flags="0x4"/>
    </TTGlyph>
    <TTGlyph name="Atilde" xMin="84" yMin="-23" xMax="1395" yMax="1771">
      <component glyphName="A" x="0" y="0" flags="0x204"/>
      <component glyphName="tilde" x="512" y="4" flags="0x4"/>
    </TTGlyph>
    <TTGlyph name="B" xMin="156" yMin="-150" xMax="1231" yMax="1454">
      <contour>
        <pt x="1231" y="453" on="1"/>
        <pt x="1231" y="352" on="0"/>
        <pt x="1148" y="186" on="0"/>
        <pt x="1009" y="53" on="0"/>
        <pt x="830" y="-45" on="0"/>
        <pt x="637" y="-112" on="0"/>
        <pt x="444" y="-147" on="0"/>
        <pt x="362" y="-150" on="1"/>
        <pt x="348" y="-100" on="1"/>
        <pt x="414" y="-86" on="0"/>
        <pt x="562" y="-41" on="0"/>
        <pt x="707" y="24" on="0"/>
        <pt x="838" y="110" on="0"/>
        <pt x="938" y="221" on="0"/>
        <pt x="997" y="356" on="0"/>
        <pt x="997" y="438" on="1"/>
        <pt x="997" y="500" on="0"/>
        <pt x="940" y="601" on="0"/>
        <pt x="849" y="672" on="0"/>
        <pt x="734" y="711" on="0"/>
        <pt x="676" y="711" on="1"/>
        <pt x="607" y="711" on="0"/>
        <pt x="473" y="678" on="0"/>
        <pt x="408" y="653" on="1"/>
        <pt x="391" y="694" on="1"/>
        <pt x="436" y="714" on="0"/>
        <pt x="537" y="770" on="0"/>
        <pt x="634" y="839" on="0"/>
        <pt x="722" y="922" on="0"/>
        <pt x="789" y="1017" on="0"/>
        <pt x="829" y="1122" on="0"/>
        <pt x="829" y="1180" on="1"/>
        <pt x="829" y="1217" on="0"/>
        <pt x="806" y="1278" on="0"/>
        <pt x="762" y="1323" on="0"/>
        <pt x="701" y="1348" on="0"/>
        <pt x="664" y="1348" on="1"/>
        <pt x="604" y="1348" on="0"/>
        <pt x="513" y="1296" on="0"/>
        <pt x="446" y="1210" on="0"/>
        <pt x="401" y="1099" on="0"/>
        <pt x="374" y="983" on="0"/>
        <pt x="362" y="870" on="0"/>
        <pt x="362" y="825" on="1"/>
        <pt x="362" y="53" on="1"/>
        <pt x="156" y="-20" on="1"/>
        <pt x="156" y="715" on="1"/>
        <pt x="156" y="812" on="0"/>
        <pt x="200" y="996" on="0"/>
        <pt x="283" y="1161" on="0"/>
        <pt x="402" y="1299" on="0"/>
        <pt x="551" y="1398" on="0"/>
        <pt x="728" y="1454" on="0"/>
        <pt x="827" y="1454" on="1"/>
        <pt x="872" y="1454" on="0"/>
        <pt x="956" y="1430" on="0"/>
        <pt x="1019" y="1380" on="0"/>
        <pt x="1057" y="1306" on="0"/>
        <pt x="1057" y="1257" on="1"/>
        <pt x="1057" y="1204" on="0"/>
        <pt x="1014" y="1101" on="0"/>
        <pt x="942" y="1003" on="0"/>
        <pt x="850" y="914" on="0"/>
        <pt x="751" y="838" on="0"/>
        <pt x="653" y="778" on="0"/>
        <pt x="612" y="758" on="1"/>
        <pt x="714" y="782" on="0"/>
        <pt x="821" y="782" on="1"/>
        <pt x="899" y="782" on="0"/>
        <pt x="1046" y="745" on="0"/>
        <pt x="1161" y="666" on="0"/>
        <pt x="1231" y="541" on="0"/>
      </contour>
    </TTGlyph>
    <TTGlyph name="C" xMin="82" yMin="-12" xMax="1171" yMax="1452">
      <contour>
        <pt x="1171" y="1190" on="1"/>
        <pt x="1171" y="1114" on="0"/>
        <pt x="1111" y="964" on="0"/>
        <pt x="1010" y="836" on="0"/>
        <pt x="878" y="740" on="0"/>
        <pt x="807" y="719" on="1"/>
        <pt x="786" y="754" on="1"/>
        <pt x="828" y="775" on="0"/>
        <pt x="898" y="841" on="0"/>
        <pt x="948" y="924" on="0"/>
        <pt x="975" y="1017" on="0"/>
        <pt x="975" y="1065" on="1"/>
        <pt x="975" y="1120" on="0"/>
        <pt x="943" y="1218" on="0"/>
        <pt x="881" y="1291" on="0"/>
        <pt x="790" y="1333" on="0"/>
        <pt x="731" y="1333" on="1"/>
        <pt x="659" y="1333" on="0"/>
        <pt x="539" y="1277" on="0"/>
        <pt x="443" y="1182" on="0"/>
        <pt x="372" y="1059" on="0"/>
        <pt x="325" y="924" on="0"/>
        <pt x="301" y="786" on="0"/>
        <pt x="301" y="725" on="1"/>
        <pt x="301" y="663" on="0"/>
        <pt x="327" y="531" on="0"/>
        <pt x="377" y="403" on="0"/>
        <pt x="451" y="289" on="0"/>
        <pt x="548" y="203" on="0"/>
        <pt x="667" y="152" on="0"/>
        <pt x="737" y="152" on="1"/>
        <pt x="785" y="152" on="0"/>
        <pt x="876" y="178" on="0"/>
        <pt x="960" y="222" on="0"/>
        <pt x="1035" y="282" on="0"/>
        <pt x="1067" y="317" on="1"/>
        <pt x="1100" y="285" on="1"/>
        <pt x="1056" y="227" on="0"/>
        <pt x="935" y="120" on="0"/>
        <pt x="795" y="37" on="0"/>
        <pt x="642" y="-12" on="0"/>
        <pt x="567" y="-12" on="1"/>
        <pt x="494" y="-12" on="0"/>
        <pt x="365" y="39" on="0"/>
        <pt x="257" y="126" on="0"/>
        <pt x="172" y="243" on="0"/>
        <pt x="113" y="375" on="0"/>
        <pt x="82" y="515" on="0"/>
        <pt x="82" y="582" on="1"/>
        <pt x="82" y="679" on="0"/>
        <pt x="147" y="884" on="0"/>
        <pt x="261" y="1077" on="0"/>
        <pt x="416" y="1249" on="0"/>
        <pt x="595" y="1377" on="0"/>
        <pt x="790" y="1452" on="0"/>
        <pt x="887" y="1452" on="1"/>
        <pt x="947" y="1452" on="0"/>
        <pt x="1051" y="1417" on="0"/>
        <pt x="1127" y="1351" on="0"/>
        <pt x="1171" y="1253" on="0"/>
      </contour>
    </TTGlyph>
    <TTGlyph name="Cacute" xMin="82" yMin="-12" xMax="1171" yMax="1812">
      <component glyphName="C" x="0" y="0" flags="0x204"/>
      <component glyphName="acute" x="653" y="-9" flags="0x4"/>
    </TTGlyph>
    <TTGlyph name="Ccaron" xMin="82" yMin="-12" xMax="1171" yMax="1871">
      <component glyphName="C" x="0" y="0" flags="0x204"/>
      <component glyphName="caron" x="335" y="7" flags="0x4"/>
    </TTGlyph>
    <TTGlyph name="Ccedilla" xMin="80" yMin="-346" xMax="1169" yMax="1452">
      <contour>
        <pt x="1169" y="1190" on="1"/>
        <pt x="1169" y="1114" on="0"/>
        <pt x="1109" y="964" on="0"/>
        <pt x="1008" y="836" on="0"/>
        <pt x="876" y="740" on="0"/>
        <pt x="805" y="719" on="1"/>
        <pt x="784" y="754" on="1"/>
        <pt x="826" y="775" on="0"/>
        <pt x="896" y="841" on="0"/>
        <pt x="946" y="924" on="0"/>
        <pt x="973" y="1017" on="0"/>
        <pt x="973" y="1065" on="1"/>
        <pt x="973" y="1120" on="0"/>
        <pt x="941" y="1218" on="0"/>
        <pt x="879" y="1291" on="0"/>
        <pt x="788" y="1333" on="0"/>
        <pt x="729" y="1333" on="1"/>
        <pt x="657" y="1333" on="0"/>
        <pt x="537" y="1277" on="0"/>
        <pt x="441" y="1182" on="0"/>
        <pt x="370" y="1059" on="0"/>
        <pt x="323" y="924" on="0"/>
        <pt x="299" y="786" on="0"/>
        <pt x="299" y="725" on="1"/>
        <pt x="299" y="663" on="0"/>
        <pt x="325" y="531" on="0"/>
        <pt x="375" y="403" on="0"/>
        <pt x="449" y="289" on="0"/>
        <pt x="546" y="203" on="0"/>
        <pt x="665" y="152" on="0"/>
        <pt x="735" y="152" on="1"/>
        <pt x="783" y="152" on="0"/>
        <pt x="874" y="178" on="0"/>
        <pt x="958" y="222" on="0"/>
        <pt x="1033" y="282" on="0"/>
        <pt x="1065" y="317" on="1"/>
        <pt x="1098" y="285" on="1"/>
        <pt x="1056" y="229" on="0"/>
        <pt x="940" y="125" on="0"/>
        <pt x="805" y="43" on="0"/>
        <pt x="657" y="-8" on="0"/>
        <pt x="584" y="-12" on="1"/>
        <pt x="539" y="-90" on="1"/>
        <pt x="556" y="-79" on="0"/>
        <pt x="592" y="-68" on="0"/>
        <pt x="607" y="-65" on="1"/>
        <pt x="625" y="-61" on="0"/>
        <pt x="641" y="-61" on="1"/>
        <pt x="663" y="-61" on="0"/>
        <pt x="707" y="-78" on="0"/>
        <pt x="742" y="-113" on="0"/>
        <pt x="764" y="-165" on="0"/>
        <pt x="764" y="-201" on="1"/>
        <pt x="764" y="-236" on="0"/>
        <pt x="736" y="-290" on="0"/>
        <pt x="691" y="-327" on="0"/>
        <pt x="637" y="-346" on="0"/>
        <pt x="612" y="-346" on="1"/>
        <pt x="588" y="-346" on="0"/>
        <pt x="564" y="-336" on="1"/>
        <pt x="544" y="-328" on="0"/>
        <pt x="500" y="-294" on="0"/>
        <pt x="485" y="-262" on="1"/>
        <pt x="514" y="-242" on="1"/>
        <pt x="523" y="-257" on="0"/>
        <pt x="545" y="-272" on="0"/>
        <pt x="554" y="-276" on="1"/>
        <pt x="565" y="-280" on="0"/>
        <pt x="575" y="-281" on="1"/>
        <pt x="603" y="-281" on="0"/>
        <pt x="647" y="-236" on="0"/>
        <pt x="647" y="-201" on="1"/>
        <pt x="647" y="-169" on="0"/>
        <pt x="604" y="-121" on="0"/>
        <pt x="569" y="-121" on="1"/>
        <pt x="555" y="-121" on="0"/>
        <pt x="544" y="-123" on="1"/>
        <pt x="534" y="-125" on="0"/>
        <pt x="517" y="-132" on="0"/>
        <pt x="514" y="-139" on="1"/>
        <pt x="485" y="-115" on="1"/>
        <pt x="547" y="-10" on="1"/>
        <pt x="476" y="-7" on="0"/>
        <pt x="352" y="47" on="0"/>
        <pt x="248" y="135" on="0"/>
        <pt x="166" y="251" on="0"/>
        <pt x="110" y="380" on="0"/>
        <pt x="80" y="517" on="0"/>
        <pt x="80" y="582" on="1"/>
        <pt x="80" y="679" on="0"/>
        <pt x="145" y="884" on="0"/>
        <pt x="259" y="1077" on="0"/>
        <pt x="414" y="1249" on="0"/>
        <pt x="593" y="1377" on="0"/>
        <pt x="788" y="1452" on="0"/>
        <pt x="885" y="1452" on="1"/>
        <pt x="945" y="1452" on="0"/>
        <pt x="1048" y="1417" on="0"/>
        <pt x="1125" y="1351" on="0"/>
        <pt x="1169" y="1253" on="0"/>
      </contour>
    </TTGlyph>
    <TTGlyph name="Ccircumflex" xMin="82" yMin="-12" xMax="1171" yMax="1874">
      <component glyphName="C" x="0" y="0" flags="0x204"/>
      <component glyphName="circumflex" x="335" y="10" flags="0x4"/>
    </TTGlyph>
    <TTGlyph name="Cdotaccent" xMin="82" yMin="-12" xMax="1171" yMax="1700">
      <component glyphName="C" x="0" y="0" flags="0x204"/>
      <component glyphName="dotaccent" x="523" y="8" flags="0x4"/>
    </TTGlyph>
    <TTGlyph name="D" xMin="78" yMin="-25" xMax="1276" yMax="1448">
      <contour>
        <pt x="1276" y="932" on="1"/>
        <pt x="1276" y="805" on="0"/>
        <pt x="1181" y="568" on="0"/>
        <pt x="1019" y="360" on="0"/>
        <pt x="804" y="186" on="0"/>
        <pt x="564" y="58" on="0"/>
        <pt x="312" y="-18" on="0"/>
        <pt x="195" y="-25" on="1"/>
        <pt x="195" y="1096" on="1"/>
        <pt x="401" y="1169" on="1"/>
        <pt x="401" y="80" on="1"/>
        <pt x="542" y="121" on="0"/>
        <pt x="777" y="276" on="0"/>
        <pt x="947" y="488" on="0"/>
        <pt x="1042" y="750" on="0"/>
        <pt x="1042" y="899" on="1"/>
        <pt x="1042" y="984" on="0"/>
        <pt x="999" y="1139" on="0"/>
        <pt x="910" y="1256" on="0"/>
        <pt x="774" y="1325" on="0"/>
        <pt x="680" y="1325" on="1"/>
        <pt x="603" y="1325" on="0"/>
        <pt x="448" y="1291" on="0"/>
        <pt x="301" y="1230" on="0"/>
        <pt x="166" y="1146" on="0"/>
        <pt x="109" y="1096" on="1"/>
        <pt x="78" y="1130" on="1"/>
        <pt x="138" y="1195" on="0"/>
        <pt x="302" y="1310" on="0"/>
        <pt x="488" y="1397" on="0"/>
        <pt x="684" y="1448" on="0"/>
        <pt x="776" y="1448" on="1"/>
        <pt x="900" y="1448" on="0"/>
        <pt x="1088" y="1374" on="0"/>
        <pt x="1213" y="1238" on="0"/>
        <pt x="1276" y="1048" on="0"/>
      </contour>
    </TTGlyph>
    <TTGlyph name="Dcaron" xMin="78" yMin="-25" xMax="1276" yMax="1874">
      <component glyphName="D" x="0" y="0" flags="0x204"/>
      <component glyphName="caron" x="396" y="10" flags="0x4"/>
    </TTGlyph>
    <TTGlyph name="Dcroat" xMin="-18" yMin="-25" xMax="1282" yMax="1448">
      <component glyphName="Eth" x="0" y="0" flags="0x204"/>
    </TTGlyph>
    <TTGlyph name="E" xMin="72" yMin="-12" xMax="1063" yMax="1450">
      <contour>
        <pt x="1063" y="393" on="1"/>
        <pt x="1019" y="312" on="0"/>
        <pt x="894" y="166" on="0"/>
        <pt x="741" y="54" on="0"/>
        <pt x="564" y="-12" on="0"/>
        <pt x="467" y="-12" on="1"/>
        <pt x="392" y="-12" on="0"/>
        <pt x="250" y="38" on="0"/>
        <pt x="139" y="130" on="0"/>
        <pt x="72" y="259" on="0"/>
        <pt x="72" y="338" on="1"/>
        <pt x="72" y="415" on="0"/>
        <pt x="134" y="548" on="0"/>
        <pt x="233" y="658" on="0"/>
        <pt x="358" y="744" on="0"/>
        <pt x="422" y="774" on="1"/>
        <pt x="377" y="782" on="0"/>
        <pt x="305" y="832" on="0"/>
        <pt x="255" y="902" on="0"/>
        <pt x="229" y="988" on="0"/>
        <pt x="229" y="1032" on="1"/>
        <pt x="229" y="1093" on="0"/>
        <pt x="273" y="1202" on="0"/>
        <pt x="348" y="1295" on="0"/>
        <pt x="448" y="1370" on="0"/>
        <pt x="559" y="1422" on="0"/>
        <pt x="676" y="1450" on="0"/>
        <pt x="731" y="1450" on="1"/>
        <pt x="813" y="1450" on="0"/>
        <pt x="949" y="1385" on="0"/>
        <pt x="1001" y="1323" on="1"/>
        <pt x="856" y="1217" on="1"/>
        <pt x="835" y="1246" on="0"/>
        <pt x="786" y="1297" on="0"/>
        <pt x="729" y="1334" on="0"/>
        <pt x="664" y="1356" on="0"/>
        <pt x="627" y="1356" on="1"/>
        <pt x="581" y="1356" on="0"/>
        <pt x="492" y="1323" on="0"/>
        <pt x="422" y="1264" on="0"/>
        <pt x="379" y="1182" on="0"/>
        <pt x="379" y="1133" on="1"/>
        <pt x="379" y="1082" on="0"/>
        <pt x="423" y="995" on="0"/>
        <pt x="495" y="931" on="0"/>
        <pt x="588" y="895" on="0"/>
        <pt x="637" y="895" on="1"/>
        <pt x="693" y="895" on="0"/>
        <pt x="741" y="913" on="1"/>
        <pt x="756" y="872" on="1"/>
        <pt x="675" y="846" on="0"/>
        <pt x="514" y="765" on="0"/>
        <pt x="386" y="651" on="0"/>
        <pt x="307" y="501" on="0"/>
        <pt x="307" y="406" on="1"/>
        <pt x="307" y="351" on="0"/>
        <pt x="339" y="257" on="0"/>
        <pt x="400" y="187" on="0"/>
        <pt x="489" y="147" on="0"/>
        <pt x="545" y="147" on="1"/>
        <pt x="603" y="147" on="0"/>
        <pt x="747" y="194" on="0"/>
        <pt x="885" y="272" on="0"/>
        <pt x="999" y="372" on="0"/>
        <pt x="1028" y="424" on="1"/>
      </contour>
    </TTGlyph>
    <TTGlyph name="Eacute" xMin="72" yMin="-12" xMax="1063" yMax="1818">
      <component glyphName="E" x="0" y="0" flags="0x204"/>
      <component glyphName="acute" x="569" y="-3" flags="0x4"/>
    </TTGlyph>
    <TTGlyph name="Ebreve" xMin="72" yMin="-12" xMax="1063" yMax="1877">
      <component glyphName="E" x="0" y="0" flags="0x204"/>
      <component glyphName="breve" x="393" y="34" flags="0x4"/>
    </TTGlyph>
    <TTGlyph name="Ecaron" xMin="72" yMin="-12" xMax="1063" yMax="1881">
      <component glyphName="E" x="0" y="0" flags="0x204"/>
      <component glyphName="caron" x="333" y="17" flags="0x4"/>
    </TTGlyph>
    <TTGlyph name="Ecircumflex" xMin="72" yMin="-12" xMax="1063" yMax="1887">
      <component glyphName="E" x="0" y="0" flags="0x204"/>
      <component glyphName="circumflex" x="367" y="23" flags="0x4"/>
    </TTGlyph>
    <TTGlyph name="Edieresis" xMin="72" yMin="-12" xMax="1063" yMax="1706">
      <component glyphName="E" x="0" y="0" flags="0x204"/>
      <component glyphName="dieresis" x="350" y="14" flags="0x4"/>
    </TTGlyph>
    <TTGlyph name="Edotaccent" xMin="72" yMin="-12" xMax="1063" yMax="1704">
      <component glyphName="E" x="0" y="0" flags="0x204"/>
      <component glyphName="dotaccent" x="522" y="12" flags="0x4"/>
    </TTGlyph>
    <TTGlyph name="Egrave" xMin="72" yMin="-12" xMax="1063" yMax="1827">
      <component glyphName="E" x="0" y="0" flags="0x204"/>
      <component glyphName="grave" x="279" y="0" flags="0x4"/>
    </TTGlyph>
    <TTGlyph name="Emacron" xMin="72" yMin="-12" xMax="1063" yMax="1666">
      <component glyphName="E" x="0" y="0" flags="0x204"/>
      <component glyphName="macron" x="405" y="-9" flags="0x4"/>
    </TTGlyph>
    <TTGlyph name="Eng" xMin="188" yMin="-418" xMax="1040" yMax="1477">
      <contour>
        <pt x="831" y="1108" on="1"/>
        <pt x="831" y="1132" on="0"/>
        <pt x="831" y="1189" on="0"/>
        <pt x="826" y="1245" on="0"/>
        <pt x="812" y="1297" on="0"/>
        <pt x="784" y="1336" on="0"/>
        <pt x="739" y="1360" on="0"/>
        <pt x="705" y="1360" on="1"/>
        <pt x="648" y="1360" on="0"/>
        <pt x="558" y="1292" on="0"/>
        <pt x="489" y="1183" on="0"/>
        <pt x="440" y="1046" on="0"/>
        <pt x="409" y="908" on="0"/>
        <pt x="395" y="782" on="0"/>
        <pt x="395" y="739" on="1"/>
        <pt x="395" y="47" on="1"/>
        <pt x="188" y="-29" on="1"/>
        <pt x="188" y="1403" on="1"/>
        <pt x="395" y="1477" on="1"/>
        <pt x="395" y="1100" on="1"/>
        <pt x="415" y="1173" on="0"/>
        <pt x="482" y="1308" on="0"/>
        <pt x="579" y="1412" on="0"/>
        <pt x="710" y="1473" on="0"/>
        <pt x="795" y="1473" on="1"/>
        <pt x="859" y="1473" on="0"/>
        <pt x="951" y="1426" on="0"/>
        <pt x="1010" y="1346" on="0"/>
        <pt x="1038" y="1240" on="0"/>
        <pt x="1038" y="1182" on="1"/>
        <pt x="1040" y="83" on="1"/>
        <pt x="1040" y="-16" on="0"/>
        <pt x="963" y="-197" on="0"/>
        <pt x="831" y="-336" on="0"/>
        <pt x="655" y="-418" on="0"/>
        <pt x="555" y="-418" on="1"/>
        <pt x="473" y="-418" on="0"/>
        <pt x="328" y="-360" on="0"/>
        <pt x="266" y="-308" on="1"/>
        <pt x="434" y="-158" on="1"/>
        <pt x="449" y="-189" on="0"/>
        <pt x="503" y="-254" on="0"/>
        <pt x="569" y="-308" on="0"/>
        <pt x="642" y="-343" on="0"/>
        <pt x="678" y="-343" on="1"/>
        <pt x="727" y="-343" on="0"/>
        <pt x="788" y="-295" on="0"/>
        <pt x="821" y="-222" on="0"/>
        <pt x="833" y="-135" on="0"/>
        <pt x="833" y="-97" on="1"/>
      </contour>
    </TTGlyph>
    <TTGlyph name="Eogonek" xMin="72" yMin="-265" xMax="1063" yMax="1450">
      <contour>
        <pt x="1063" y="393" on="1"/>
        <pt x="1022" y="318" on="0"/>
        <pt x="907" y="179" on="0"/>
        <pt x="767" y="70" on="0"/>
        <pt x="605" y="-1" on="0"/>
        <pt x="516" y="-9" on="1"/>
        <pt x="483" y="-47" on="0"/>
        <pt x="462" y="-105" on="0"/>
        <pt x="464" y="-125" on="1"/>
        <pt x="466" y="-148" on="0"/>
        <pt x="479" y="-164" on="1"/>
        <pt x="495" y="-180" on="0"/>
        <pt x="513" y="-184" on="1"/>
        <pt x="528" y="-188" on="0"/>
        <pt x="568" y="-177" on="0"/>
        <pt x="589" y="-150" on="1"/>
        <pt x="612" y="-169" on="1"/>
        <pt x="592" y="-200" on="0"/>
        <pt x="553" y="-235" on="0"/>
        <pt x="538" y="-245" on="1"/>
        <pt x="520" y="-256" on="0"/>
        <pt x="504" y="-261" on="1"/>
        <pt x="482" y="-265" on="0"/>
        <pt x="430" y="-252" on="0"/>
        <pt x="389" y="-216" on="0"/>
        <pt x="373" y="-155" on="0"/>
        <pt x="387" y="-111" on="1"/>
        <pt x="392" y="-97" on="0"/>
        <pt x="403" y="-80" on="1"/>
        <pt x="412" y="-66" on="0"/>
        <pt x="442" y="-31" on="0"/>
        <pt x="465" y="-12" on="1"/>
        <pt x="390" y="-12" on="0"/>
        <pt x="249" y="38" on="0"/>
        <pt x="139" y="130" on="0"/>
        <pt x="72" y="259" on="0"/>
        <pt x="72" y="338" on="1"/>
        <pt x="72" y="415" on="0"/>
        <pt x="134" y="548" on="0"/>
        <pt x="233" y="658" on="0"/>
        <pt x="358" y="744" on="0"/>
        <pt x="422" y="774" on="1"/>
        <pt x="377" y="782" on="0"/>
        <pt x="305" y="832" on="0"/>
        <pt x="255" y="902" on="0"/>
        <pt x="229" y="988" on="0"/>
        <pt x="229" y="1032" on="1"/>
        <pt x="229" y="1093" on="0"/>
        <pt x="273" y="1202" on="0"/>
        <pt x="348" y="1295" on="0"/>
        <pt x="448" y="1370" on="0"/>
        <pt x="559" y="1422" on="0"/>
        <pt x="676" y="1450" on="0"/>
        <pt x="731" y="1450" on="1"/>
        <pt x="813" y="1450" on="0"/>
        <pt x="949" y="1385" on="0"/>
        <pt x="1001" y="1323" on="1"/>
        <pt x="856" y="1217" on="1"/>
        <pt x="835" y="1246" on="0"/>
        <pt x="786" y="1297" on="0"/>
        <pt x="729" y="1334" on="0"/>
        <pt x="664" y="1356" on="0"/>
        <pt x="627" y="1356" on="1"/>
        <pt x="581" y="1356" on="0"/>
        <pt x="492" y="1323" on="0"/>
        <pt x="422" y="1264" on="0"/>
        <pt x="379" y="1182" on="0"/>
        <pt x="379" y="1133" on="1"/>
        <pt x="379" y="1082" on="0"/>
        <pt x="423" y="995" on="0"/>
        <pt x="495" y="931" on="0"/>
        <pt x="588" y="895" on="0"/>
        <pt x="637" y="895" on="1"/>
        <pt x="693" y="895" on="0"/>
        <pt x="741" y="913" on="1"/>
        <pt x="756" y="872" on="1"/>
        <pt x="675" y="846" on="0"/>
        <pt x="514" y="765" on="0"/>
        <pt x="386" y="651" on="0"/>
        <pt x="307" y="501" on="0"/>
        <pt x="307" y="406" on="1"/>
        <pt x="307" y="351" on="0"/>
        <pt x="339" y="257" on="0"/>
        <pt x="400" y="187" on="0"/>
        <pt x="489" y="147" on="0"/>
        <pt x="545" y="147" on="1"/>
        <pt x="603" y="147" on="0"/>
        <pt x="747" y="194" on="0"/>
        <pt x="885" y="272" on="0"/>
        <pt x="999" y="372" on="0"/>
        <pt x="1028" y="424" on="1"/>
      </contour>
    </TTGlyph>
    <TTGlyph name="Eth" xMin="-18" yMin="-25" xMax="1282" yMax="1448">
      <contour>
        <pt x="707" y="754" on="1"/>
        <pt x="666" y="653" on="1"/>
        <pt x="408" y="653" on="1"/>
        <pt x="408" y="80" on="1"/>
        <pt x="548" y="121" on="0"/>
        <pt x="784" y="276" on="0"/>
        <pt x="954" y="488" on="0"/>
        <pt x="1049" y="750" on="0"/>
        <pt x="1049" y="899" on="1"/>
        <pt x="1049" y="984" on="0"/>
        <pt x="1006" y="1139" on="0"/>
        <pt x="918" y="1256" on="0"/>
        <pt x="780" y="1325" on="0"/>
        <pt x="686" y="1325" on="1"/>
        <pt x="609" y="1325" on="0"/>
        <pt x="454" y="1291" on="0"/>
        <pt x="307" y="1230" on="0"/>
        <pt x="172" y="1146" on="0"/>
        <pt x="115" y="1096" on="1"/>
        <pt x="84" y="1130" on="1"/>
        <pt x="144" y="1195" on="0"/>
        <pt x="309" y="1310" on="0"/>
        <pt x="495" y="1397" on="0"/>
        <pt x="691" y="1448" on="0"/>
        <pt x="782" y="1448" on="1"/>
        <pt x="906" y="1448" on="0"/>
        <pt x="1094" y="1374" on="0"/>
        <pt x="1219" y="1238" on="0"/>
        <pt x="1282" y="1048" on="0"/>
        <pt x="1282" y="932" on="1"/>
        <pt x="1282" y="804" on="0"/>
        <pt x="1187" y="567" on="0"/>
        <pt x="1025" y="359" on="0"/>
        <pt x="810" y="186" on="0"/>
        <pt x="570" y="58" on="0"/>
        <pt x="318" y="-18" on="0"/>
        <pt x="201" y="-25" on="1"/>
        <pt x="201" y="653" on="1"/>
        <pt x="-18" y="653" on="1"/>
        <pt x="25" y="754" on="1"/>
        <pt x="201" y="754" on="1"/>
        <pt x="201" y="1096" on="1"/>
        <pt x="408" y="1169" on="1"/>
        <pt x="408" y="754" on="1"/>
      </contour>
    </TTGlyph>
    <TTGlyph name="Euro" xMin="111" yMin="248" xMax="920" yMax="1192">
      <contour>
        <pt x="682" y="715" on="1"/>
        <pt x="666" y="743" on="1"/>
        <pt x="694" y="757" on="0"/>
        <pt x="739" y="799" on="0"/>
        <pt x="771" y="851" on="0"/>
        <pt x="788" y="910" on="0"/>
        <pt x="788" y="940" on="1"/>
        <pt x="788" y="975" on="0"/>
        <pt x="768" y="1037" on="0"/>
        <pt x="730" y="1083" on="0"/>
        <pt x="672" y="1110" on="0"/>
        <pt x="635" y="1110" on="1"/>
        <pt x="584" y="1110" on="0"/>
        <pt x="502" y="1066" on="0"/>
        <pt x="438" y="993" on="0"/>
        <pt x="393" y="899" on="0"/>
        <pt x="381" y="850" on="1"/>
        <pt x="596" y="850" on="1"/>
        <pt x="555" y="739" on="1"/>
        <pt x="362" y="739" on="1"/>
        <pt x="362" y="723" on="1"/>
        <pt x="362" y="703" on="0"/>
        <pt x="368" y="661" on="0"/>
        <pt x="371" y="639" on="1"/>
        <pt x="596" y="639" on="1"/>
        <pt x="555" y="530" on="1"/>
        <pt x="408" y="530" on="1"/>
        <pt x="426" y="494" on="0"/>
        <pt x="472" y="431" on="0"/>
        <pt x="530" y="385" on="0"/>
        <pt x="599" y="358" on="0"/>
        <pt x="639" y="358" on="1"/>
        <pt x="701" y="358" on="0"/>
        <pt x="807" y="421" on="0"/>
        <pt x="850" y="467" on="1"/>
        <pt x="874" y="442" on="1"/>
        <pt x="846" y="404" on="0"/>
        <pt x="768" y="334" on="0"/>
        <pt x="677" y="280" on="0"/>
        <pt x="578" y="248" on="0"/>
        <pt x="530" y="248" on="1"/>
        <pt x="473" y="248" on="0"/>
        <pt x="375" y="296" on="0"/>
        <pt x="297" y="375" on="0"/>
        <pt x="243" y="476" on="0"/>
        <pt x="229" y="530" on="1"/>
        <pt x="111" y="530" on="1"/>
        <pt x="154" y="639" on="1"/>
        <pt x="217" y="639" on="1"/>
        <pt x="217" y="664" on="0"/>
        <pt x="225" y="715" on="0"/>
        <pt x="231" y="739" on="1"/>
        <pt x="111" y="739" on="1"/>
        <pt x="154" y="850" on="1"/>
        <pt x="274" y="850" on="1"/>
        <pt x="309" y="918" on="0"/>
        <pt x="411" y="1042" on="0"/>
        <pt x="533" y="1136" on="0"/>
        <pt x="667" y="1192" on="0"/>
        <pt x="735" y="1192" on="1"/>
        <pt x="774" y="1192" on="0"/>
        <pt x="842" y="1169" on="0"/>
        <pt x="892" y="1125" on="0"/>
        <pt x="920" y="1061" on="0"/>
        <pt x="920" y="1020" on="1"/>
        <pt x="920" y="971" on="0"/>
        <pt x="881" y="874" on="0"/>
        <pt x="815" y="792" on="0"/>
        <pt x="729" y="730" on="0"/>
      </contour>
    </TTGlyph>
    <TTGlyph name="F" xMin="-4" yMin="-182" xMax="1237" yMax="1495">
      <contour>
        <pt x="1237" y="1468" on="1"/>
        <pt x="1206" y="1420" on="0"/>
        <pt x="1118" y="1336" on="0"/>
        <pt x="1014" y="1272" on="0"/>
        <pt x="898" y="1235" on="0"/>
        <pt x="840" y="1235" on="1"/>
        <pt x="643" y="1233" on="1"/>
        <pt x="603" y="1185" on="0"/>
        <pt x="565" y="1095" on="0"/>
        <pt x="565" y="1034" on="1"/>
        <pt x="565" y="754" on="1"/>
        <pt x="594" y="754" on="1"/>
        <pt x="634" y="754" on="0"/>
        <pt x="748" y="751" on="0"/>
        <pt x="865" y="759" on="0"/>
        <pt x="971" y="786" on="0"/>
        <pt x="1004" y="815" on="1"/>
        <pt x="1028" y="786" on="1"/>
        <pt x="997" y="739" on="0"/>
        <pt x="909" y="675" on="0"/>
        <pt x="805" y="634" on="0"/>
        <pt x="689" y="615" on="0"/>
        <pt x="631" y="614" on="1"/>
        <pt x="565" y="614" on="1"/>
        <pt x="565" y="233" on="1"/>
        <pt x="565" y="100" on="0"/>
        <pt x="451" y="-107" on="0"/>
        <pt x="342" y="-182" on="1"/>
        <pt x="307" y="-143" on="1"/>
        <pt x="324" y="-124" on="0"/>
        <pt x="344" y="-76" on="0"/>
        <pt x="355" y="-24" on="0"/>
        <pt x="358" y="29" on="0"/>
        <pt x="358" y="53" on="1"/>
        <pt x="358" y="614" on="1"/>
        <pt x="164" y="614" on="1"/>
        <pt x="270" y="754" on="1"/>
        <pt x="358" y="754" on="1"/>
        <pt x="358" y="918" on="1"/>
        <pt x="358" y="965" on="0"/>
        <pt x="397" y="1054" on="0"/>
        <pt x="457" y="1134" on="0"/>
        <pt x="529" y="1204" on="0"/>
        <pt x="563" y="1233" on="1"/>
        <pt x="521" y="1233" on="0"/>
        <pt x="446" y="1234" on="0"/>
        <pt x="370" y="1234" on="0"/>
        <pt x="290" y="1235" on="0"/>
        <pt x="242" y="1235" on="1"/>
        <pt x="204" y="1235" on="0"/>
        <pt x="145" y="1220" on="0"/>
        <pt x="95" y="1192" on="0"/>
        <pt x="49" y="1150" on="0"/>
        <pt x="25" y="1122" on="1"/>
        <pt x="-4" y="1153" on="1"/>
        <pt x="30" y="1200" on="0"/>
        <pt x="124" y="1299" on="0"/>
        <pt x="233" y="1381" on="0"/>
        <pt x="354" y="1434" on="0"/>
        <pt x="416" y="1434" on="1"/>
        <pt x="803" y="1434" on="1"/>
        <pt x="842" y="1434" on="0"/>
        <pt x="956" y="1436" on="0"/>
        <pt x="1074" y="1447" on="0"/>
        <pt x="1180" y="1472" on="0"/>
        <pt x="1212" y="1495" on="1"/>
      </contour>
    </TTGlyph>
    <TTGlyph name="G" xMin="84" yMin="-217" xMax="1206" yMax="1446">
      <contour>
        <pt x="1206" y="1255" on="1"/>
        <pt x="1206" y="1198" on="0"/>
        <pt x="1145" y="1098" on="0"/>
        <pt x="1054" y="1015" on="0"/>
        <pt x="947" y="952" on="0"/>
        <pt x="901" y="934" on="1"/>
        <pt x="852" y="915" on="0"/>
        <pt x="751" y="892" on="0"/>
        <pt x="700" y="889" on="1"/>
        <pt x="680" y="924" on="1"/>
        <pt x="723" y="935" on="0"/>
        <pt x="813" y="983" on="0"/>
        <pt x="887" y="1052" on="0"/>
        <pt x="934" y="1138" on="0"/>
        <pt x="934" y="1188" on="1"/>
        <pt x="934" y="1223" on="0"/>
        <pt x="909" y="1277" on="0"/>
        <pt x="866" y="1314" on="0"/>
        <pt x="808" y="1333" on="0"/>
        <pt x="774" y="1333" on="1"/>
        <pt x="691" y="1333" on="0"/>
        <pt x="562" y="1271" on="0"/>
        <pt x="464" y="1166" on="0"/>
        <pt x="396" y="1030" on="0"/>
        <pt x="353" y="881" on="0"/>
        <pt x="334" y="729" on="0"/>
        <pt x="334" y="662" on="1"/>
        <pt x="334" y="612" on="0"/>
        <pt x="345" y="501" on="0"/>
        <pt x="373" y="391" on="0"/>
        <pt x="419" y="291" on="0"/>
        <pt x="489" y="215" on="0"/>
        <pt x="584" y="170" on="0"/>
        <pt x="647" y="170" on="1"/>
        <pt x="701" y="170" on="0"/>
        <pt x="795" y="210" on="0"/>
        <pt x="873" y="276" on="0"/>
        <pt x="934" y="364" on="0"/>
        <pt x="977" y="460" on="0"/>
        <pt x="999" y="558" on="0"/>
        <pt x="999" y="602" on="1"/>
        <pt x="1206" y="676" on="1"/>
        <pt x="1206" y="-143" on="1"/>
        <pt x="999" y="-217" on="1"/>
        <pt x="999" y="406" on="1"/>
        <pt x="980" y="324" on="0"/>
        <pt x="891" y="172" on="0"/>
        <pt x="771" y="55" on="0"/>
        <pt x="630" y="-16" on="0"/>
        <pt x="559" y="-16" on="1"/>
        <pt x="451" y="-16" on="0"/>
        <pt x="275" y="73" on="0"/>
        <pt x="151" y="221" on="0"/>
        <pt x="84" y="413" on="0"/>
        <pt x="84" y="516" on="1"/>
        <pt x="84" y="627" on="0"/>
        <pt x="144" y="852" on="0"/>
        <pt x="254" y="1058" on="0"/>
        <pt x="408" y="1238" on="0"/>
        <pt x="595" y="1370" on="0"/>
        <pt x="810" y="1446" on="0"/>
        <pt x="926" y="1446" on="1"/>
        <pt x="969" y="1446" on="0"/>
        <pt x="1068" y="1427" on="0"/>
        <pt x="1151" y="1383" on="0"/>
        <pt x="1206" y="1310" on="0"/>
      </contour>
    </TTGlyph>
    <TTGlyph name="Gbreve" xMin="84" yMin="-217" xMax="1206" yMax="1880">
      <component glyphName="G" x="0" y="0" flags="0x204"/>
      <component glyphName="breve" x="501" y="37" flags="0x4"/>
    </TTGlyph>
    <TTGlyph name="Gcircumflex" xMin="84" yMin="-217" xMax="1206" yMax="1881">
      <component glyphName="G" x="0" y="0" flags="0x204"/>
      <component glyphName="circumflex" x="382" y="17" flags="0x4"/>
    </TTGlyph>
    <TTGlyph name="Gcommaaccent" xMin="84" yMin="-333" xMax="1206" yMax="1446">
      <component glyphName="G" x="0" y="0" flags="0x204"/>
      <component glyphName="uni0326" x="510" y="0" flags="0x4"/>
    </TTGlyph>
    <TTGlyph name="Gdotaccent" xMin="84" yMin="-217" xMax="1206" yMax="1685">
      <component glyphName="G" x="0" y="0" flags="0x204"/>
      <component glyphName="dotaccent" x="570" y="-7" flags="0x4"/>
    </TTGlyph>
    <TTGlyph name="H" xMin="43" yMin="-31" xMax="1137" yMax="1475">
      <contour>
        <pt x="1137" y="43" on="1"/>
        <pt x="930" y="-31" on="1"/>
        <pt x="930" y="537" on="1"/>
        <pt x="410" y="537" on="1"/>
        <pt x="410" y="43" on="1"/>
        <pt x="203" y="-31" on="1"/>
        <pt x="203" y="537" on="1"/>
        <pt x="43" y="537" on="1"/>
        <pt x="117" y="682" on="1"/>
        <pt x="203" y="682" on="1"/>
        <pt x="203" y="1401" on="1"/>
        <pt x="410" y="1475" on="1"/>
        <pt x="410" y="682" on="1"/>
        <pt x="930" y="682" on="1"/>
        <pt x="930" y="1401" on="1"/>
        <pt x="1137" y="1475" on="1"/>
      </contour>
    </TTGlyph>
    <TTGlyph name="Hbar" xMin="43" yMin="-31" xMax="1241" yMax="1475">
      <contour>
        <pt x="1241" y="937" on="1"/>
        <pt x="1191" y="834" on="1"/>
        <pt x="1137" y="834" on="1"/>
        <pt x="1137" y="43" on="1"/>
        <pt x="930" y="-31" on="1"/>
        <pt x="930" y="537" on="1"/>
        <pt x="410" y="537" on="1"/>
        <pt x="410" y="43" on="1"/>
        <pt x="203" y="-31" on="1"/>
        <pt x="203" y="537" on="1"/>
        <pt x="43" y="537" on="1"/>
        <pt x="117" y="682" on="1"/>
        <pt x="203" y="682" on="1"/>
        <pt x="203" y="834" on="1"/>
        <pt x="58" y="834" on="1"/>
        <pt x="108" y="937" on="1"/>
        <pt x="203" y="937" on="1"/>
        <pt x="203" y="1401" on="1"/>
        <pt x="410" y="1475" on="1"/>
        <pt x="410" y="937" on="1"/>
        <pt x="930" y="937" on="1"/>
        <pt x="930" y="1401" on="1"/>
        <pt x="1137" y="1475" on="1"/>
        <pt x="1137" y="937" on="1"/>
      </contour>
      <contour>
        <pt x="930" y="682" on="1"/>
        <pt x="930" y="834" on="1"/>
        <pt x="410" y="834" on="1"/>
        <pt x="410" y="682" on="1"/>
      </contour>
    </TTGlyph>
    <TTGlyph name="Hcircumflex" xMin="43" yMin="-31" xMax="1137" yMax="1888">
      <component glyphName="H" x="0" y="0" flags="0x204"/>
      <component glyphName="circumflex" x="440" y="24" flags="0x4"/>
    </TTGlyph>
    <TTGlyph name="I" xMin="188" yMin="-31" xMax="395" yMax="1475">
      <contour>
        <pt x="395" y="43" on="1"/>
        <pt x="188" y="-31" on="1"/>
        <pt x="188" y="1401" on="1"/>
        <pt x="395" y="1475" on="1"/>
      </contour>
    </TTGlyph>
    <TTGlyph name="IJ" xMin="188" yMin="-268" xMax="1416" yMax="1475">
      <component glyphName="I" x="0" y="0" flags="0x4"/>
      <component glyphName="J" x="574" y="0" flags="0x4"/>
    </TTGlyph>
    <TTGlyph name="Iacute" xMin="188" yMin="-31" xMax="606" yMax="1825">
      <component glyphName="I" x="0" y="0" flags="0x204"/>
      <component glyphName="acute" x="256" y="4" flags="0x4"/>
    </TTGlyph>
    <TTGlyph name="Ibreve" xMin="79" yMin="-31" xMax="505" yMax="1908">
      <component glyphName="I" x="0" y="0" flags="0x204"/>
      <component glyphName="breve" x="79" y="65" flags="0x4"/>
    </TTGlyph>
    <TTGlyph name="Icircumflex" xMin="10" yMin="-31" xMax="575" yMax="1872">
      <component glyphName="I" x="0" y="0" flags="0x204"/>
      <component glyphName="circumflex" x="10" y="8" flags="0x4"/>
    </TTGlyph>
    <TTGlyph name="Idieresis" xMin="51" yMin="-31" xMax="534" yMax="1715">
      <component glyphName="I" x="0" y="0" flags="0x204"/>
      <component glyphName="dieresis" x="51" y="23" flags="0x4"/>
    </TTGlyph>
    <TTGlyph name="Idotaccent" xMin="188" yMin="-31" xMax="395" yMax="2353">
      <component glyphName="I" x="0" y="0" flags="0x204"/>
      <component glyphName="dotaccent" x="198" y="661" flags="0x4"/>
    </TTGlyph>
    <TTGlyph name="Igrave" xMin="-48" yMin="-31" xMax="395" yMax="1824">
      <component glyphName="I" x="0" y="0" flags="0x204"/>
      <component glyphName="grave" x="-48" y="-3" flags="0x4"/>
    </TTGlyph>
    <TTGlyph name="Imacron" xMin="49" yMin="-31" xMax="534" yMax="1682">
      <component glyphName="I" x="0" y="0" flags="0x204"/>
      <component glyphName="macron" x="49" y="7" flags="0x4"/>
    </TTGlyph>
    <TTGlyph name="Iogonek" xMin="177" yMin="-243" xMax="416" yMax="1475">
      <contour>
        <pt x="395" y="43" on="1"/>
        <pt x="325" y="18" on="1"/>
        <pt x="289" y="-22" on="0"/>
        <pt x="267" y="-81" on="0"/>
        <pt x="268" y="-101" on="1"/>
        <pt x="269" y="-125" on="0"/>
        <pt x="283" y="-142" on="1"/>
        <pt x="299" y="-158" on="0"/>
        <pt x="317" y="-162" on="1"/>
        <pt x="332" y="-166" on="0"/>
        <pt x="372" y="-155" on="0"/>
        <pt x="393" y="-128" on="1"/>
        <pt x="416" y="-147" on="1"/>
        <pt x="396" y="-178" on="0"/>
        <pt x="357" y="-213" on="0"/>
        <pt x="342" y="-223" on="1"/>
        <pt x="324" y="-234" on="0"/>
        <pt x="308" y="-239" on="1"/>
        <pt x="286" y="-243" on="0"/>
        <pt x="234" y="-230" on="0"/>
        <pt x="193" y="-194" on="0"/>
        <pt x="177" y="-133" on="0"/>
        <pt x="191" y="-89" on="1"/>
        <pt x="195" y="-78" on="0"/>
        <pt x="203" y="-65" on="1"/>
        <pt x="209" y="-54" on="0"/>
        <pt x="230" y="-26" on="0"/>
        <pt x="246" y="-10" on="1"/>
        <pt x="188" y="-31" on="1"/>
        <pt x="188" y="1401" on="1"/>
        <pt x="395" y="1475" on="1"/>
      </contour>
    </TTGlyph>
    <TTGlyph name="Itilde" xMin="61" yMin="-31" xMax="505" yMax="1789">
      <component glyphName="I" x="0" y="0" flags="0x204"/>
      <component glyphName="tilde" x="64" y="22" flags="0x4"/>
    </TTGlyph>
    <TTGlyph name="J" xMin="-170" yMin="-268" xMax="842" yMax="1434">
      <contour>
        <pt x="842" y="1434" on="1"/>
        <pt x="801" y="1384" on="0"/>
        <pt x="720" y="1286" on="0"/>
        <pt x="682" y="1235" on="1"/>
        <pt x="662" y="1209" on="0"/>
        <pt x="633" y="1164" on="0"/>
        <pt x="613" y="1118" on="0"/>
        <pt x="604" y="1066" on="0"/>
        <pt x="604" y="1034" on="1"/>
        <pt x="604" y="233" on="1"/>
        <pt x="604" y="134" on="0"/>
        <pt x="527" y="-47" on="0"/>
        <pt x="395" y="-186" on="0"/>
        <pt x="219" y="-268" on="0"/>
        <pt x="119" y="-268" on="1"/>
        <pt x="37" y="-268" on="0"/>
        <pt x="-108" y="-210" on="0"/>
        <pt x="-170" y="-158" on="1"/>
        <pt x="-2" y="-8" on="1"/>
        <pt x="13" y="-39" on="0"/>
        <pt x="67" y="-104" on="0"/>
        <pt x="133" y="-158" on="0"/>
        <pt x="206" y="-193" on="0"/>
        <pt x="242" y="-193" on="1"/>
        <pt x="291" y="-193" on="0"/>
        <pt x="352" y="-145" on="0"/>
        <pt x="385" y="-72" on="0"/>
        <pt x="397" y="15" on="0"/>
        <pt x="397" y="53" on="1"/>
        <pt x="397" y="918" on="1"/>
        <pt x="397" y="965" on="0"/>
        <pt x="436" y="1055" on="0"/>
        <pt x="496" y="1136" on="0"/>
        <pt x="568" y="1206" on="0"/>
        <pt x="602" y="1235" on="1"/>
        <pt x="381" y="1235" on="1"/>
        <pt x="343" y="1235" on="0"/>
        <pt x="283" y="1220" on="0"/>
        <pt x="232" y="1192" on="0"/>
        <pt x="186" y="1150" on="0"/>
        <pt x="162" y="1122" on="1"/>
        <pt x="133" y="1155" on="1"/>
        <pt x="167" y="1201" on="0"/>
        <pt x="261" y="1300" on="0"/>
        <pt x="370" y="1381" on="0"/>
        <pt x="491" y="1434" on="0"/>
        <pt x="553" y="1434" on="1"/>
      </contour>
    </TTGlyph>
    <TTGlyph name="Jcircumflex" xMin="-170" yMin="-268" xMax="842" yMax="1874">
      <component glyphName="J" x="0" y="0" flags="0x204"/>
      <component glyphName="circumflex" x="224" y="10" flags="0x4"/>
    </TTGlyph>
    <TTGlyph name="K" xMin="188" yMin="-31" xMax="1245" yMax="1475">
      <contour>
        <pt x="1245" y="240" on="1"/>
        <pt x="1223" y="201" on="0"/>
        <pt x="1154" y="111" on="0"/>
        <pt x="1068" y="34" on="0"/>
        <pt x="971" y="-18" on="0"/>
        <pt x="920" y="-18" on="1"/>
        <pt x="858" y="-18" on="0"/>
        <pt x="756" y="36" on="0"/>
        <pt x="671" y="118" on="0"/>
        <pt x="600" y="218" on="0"/>
        <pt x="569" y="264" on="1"/>
        <pt x="526" y="327" on="0"/>
        <pt x="439" y="474" on="0"/>
        <pt x="395" y="539" on="1"/>
        <pt x="395" y="43" on="1"/>
        <pt x="188" y="-31" on="1"/>
        <pt x="188" y="1401" on="1"/>
        <pt x="395" y="1475" on="1"/>
        <pt x="395" y="602" on="1"/>
        <pt x="1061" y="1436" on="1"/>
        <pt x="1178" y="1425" on="1"/>
        <pt x="555" y="686" on="1"/>
        <pt x="630" y="584" on="0"/>
        <pt x="780" y="362" on="0"/>
        <pt x="858" y="262" on="1"/>
        <pt x="873" y="242" on="0"/>
        <pt x="909" y="199" on="0"/>
        <pt x="951" y="164" on="0"/>
        <pt x="999" y="141" on="0"/>
        <pt x="1028" y="141" on="1"/>
        <pt x="1049" y="141" on="0"/>
        <pt x="1103" y="170" on="0"/>
        <pt x="1155" y="210" on="0"/>
        <pt x="1199" y="253" on="0"/>
        <pt x="1212" y="268" on="1"/>
      </contour>
    </TTGlyph>
    <TTGlyph name="Kcommaaccent" xMin="188" yMin="-333" xMax="1245" yMax="1475">
      <component glyphName="K" x="0" y="0" flags="0x204"/>
      <component glyphName="uni0326" x="474" y="0" flags="0x4"/>
    </TTGlyph>
    <TTGlyph name="L" xMin="84" yMin="-43" xMax="1098" yMax="1473">
      <contour>
        <pt x="1098" y="283" on="1"/>
        <pt x="897" y="-43" on="1"/>
        <pt x="829" y="-31" on="0"/>
        <pt x="714" y="-13" on="0"/>
        <pt x="603" y="2" on="0"/>
        <pt x="487" y="18" on="0"/>
        <pt x="420" y="29" on="1"/>
        <pt x="394" y="34" on="0"/>
        <pt x="343" y="39" on="0"/>
        <pt x="317" y="39" on="1"/>
        <pt x="262" y="39" on="0"/>
        <pt x="161" y="9" on="0"/>
        <pt x="115" y="-23" on="1"/>
        <pt x="84" y="10" on="1"/>
        <pt x="105" y="28" on="0"/>
        <pt x="135" y="78" on="0"/>
        <pt x="156" y="135" on="0"/>
        <pt x="166" y="193" on="0"/>
        <pt x="166" y="219" on="1"/>
        <pt x="166" y="809" on="1"/>
        <pt x="166" y="949" on="0"/>
        <pt x="264" y="1191" on="0"/>
        <pt x="437" y="1370" on="0"/>
        <pt x="672" y="1473" on="0"/>
        <pt x="809" y="1473" on="1"/>
        <pt x="853" y="1473" on="0"/>
        <pt x="935" y="1453" on="0"/>
        <pt x="998" y="1409" on="0"/>
        <pt x="1036" y="1339" on="0"/>
        <pt x="1036" y="1288" on="1"/>
        <pt x="1036" y="1243" on="0"/>
        <pt x="1002" y="1159" on="0"/>
        <pt x="943" y="1083" on="0"/>
        <pt x="866" y="1018" on="0"/>
        <pt x="782" y="966" on="0"/>
        <pt x="694" y="930" on="0"/>
        <pt x="655" y="920" on="1"/>
        <pt x="639" y="958" on="1"/>
        <pt x="673" y="978" on="0"/>
        <pt x="746" y="1030" on="0"/>
        <pt x="806" y="1093" on="0"/>
        <pt x="844" y="1168" on="0"/>
        <pt x="844" y="1212" on="1"/>
        <pt x="844" y="1247" on="0"/>
        <pt x="818" y="1306" on="0"/>
        <pt x="773" y="1348" on="0"/>
        <pt x="714" y="1372" on="0"/>
        <pt x="680" y="1372" on="1"/>
        <pt x="605" y="1372" on="0"/>
        <pt x="491" y="1308" on="0"/>
        <pt x="413" y="1204" on="0"/>
        <pt x="373" y="1072" on="0"/>
        <pt x="373" y="1004" on="1"/>
        <pt x="373" y="360" on="1"/>
        <pt x="373" y="322" on="0"/>
        <pt x="351" y="251" on="0"/>
        <pt x="314" y="186" on="0"/>
        <pt x="264" y="128" on="0"/>
        <pt x="236" y="104" on="1"/>
        <pt x="268" y="127" on="0"/>
        <pt x="328" y="166" on="0"/>
        <pt x="391" y="194" on="0"/>
        <pt x="459" y="209" on="0"/>
        <pt x="500" y="209" on="1"/>
        <pt x="550" y="209" on="0"/>
        <pt x="628" y="199" on="0"/>
        <pt x="703" y="188" on="0"/>
        <pt x="781" y="178" on="0"/>
        <pt x="831" y="178" on="1"/>
        <pt x="866" y="178" on="0"/>
        <pt x="931" y="199" on="0"/>
        <pt x="989" y="235" on="0"/>
        <pt x="1040" y="282" on="0"/>
        <pt x="1061" y="309" on="1"/>
      </contour>
    </TTGlyph>
    <TTGlyph name="Lacute" xMin="84" yMin="-43" xMax="1098" yMax="1813">
      <component glyphName="L" x="0" y="0" flags="0x204"/>
      <component glyphName="acute" x="580" y="-8" flags="0x4"/>
    </TTGlyph>
    <TTGlyph name="Lcaron" xMin="84" yMin="-43" xMax="1270" yMax="1473">
      <component glyphName="L" x="0" y="0" flags="0x4"/>
      <component glyphName="uni0315" x="1054" y="-326" flags="0x4"/>
    </TTGlyph>
    <TTGlyph name="Lcommaaccent" xMin="84" yMin="-333" xMax="1098" yMax="1473">
      <component glyphName="L" x="0" y="0" flags="0x204"/>
      <component glyphName="uni0326" x="410" y="0" flags="0x4"/>
    </TTGlyph>
    <TTGlyph name="Ldot" xMin="84" yMin="-43" xMax="1243" yMax="1473">
      <component glyphName="L" x="0" y="0" flags="0x4"/>
      <component glyphName="periodcentered" x="913" y="0" flags="0x4"/>
    </TTGlyph>
    <TTGlyph name="Lslash" xMin="20" yMin="-43" xMax="1100" yMax="1473">
      <contour>
        <pt x="543" y="750" on="1"/>
        <pt x="543" y="641" on="1"/>
        <pt x="377" y="578" on="1"/>
        <pt x="377" y="360" on="1"/>
        <pt x="377" y="322" on="0"/>
        <pt x="355" y="251" on="0"/>
        <pt x="318" y="186" on="0"/>
        <pt x="268" y="128" on="0"/>
        <pt x="240" y="104" on="1"/>
        <pt x="272" y="127" on="0"/>
        <pt x="332" y="166" on="0"/>
        <pt x="394" y="194" on="0"/>
        <pt x="462" y="209" on="0"/>
        <pt x="504" y="209" on="1"/>
        <pt x="554" y="209" on="0"/>
        <pt x="632" y="199" on="0"/>
        <pt x="707" y="188" on="0"/>
        <pt x="786" y="178" on="0"/>
        <pt x="836" y="178" on="1"/>
        <pt x="870" y="178" on="0"/>
        <pt x="935" y="199" on="0"/>
        <pt x="992" y="235" on="0"/>
        <pt x="1042" y="282" on="0"/>
        <pt x="1063" y="309" on="1"/>
        <pt x="1100" y="283" on="1"/>
        <pt x="899" y="-43" on="1"/>
        <pt x="832" y="-31" on="0"/>
        <pt x="717" y="-13" on="0"/>
        <pt x="605" y="2" on="0"/>
        <pt x="489" y="18" on="0"/>
        <pt x="422" y="29" on="1"/>
        <pt x="397" y="34" on="0"/>
        <pt x="346" y="39" on="0"/>
        <pt x="322" y="39" on="1"/>
        <pt x="266" y="39" on="0"/>
        <pt x="165" y="9" on="0"/>
        <pt x="119" y="-23" on="1"/>
        <pt x="88" y="10" on="1"/>
        <pt x="109" y="28" on="0"/>
        <pt x="139" y="78" on="0"/>
        <pt x="160" y="135" on="0"/>
        <pt x="170" y="193" on="0"/>
        <pt x="170" y="219" on="1"/>
        <pt x="170" y="498" on="1"/>
        <pt x="20" y="440" on="1"/>
        <pt x="20" y="549" on="1"/>
        <pt x="170" y="606" on="1"/>
        <pt x="170" y="809" on="1"/>
        <pt x="170" y="949" on="0"/>
        <pt x="268" y="1191" on="0"/>
        <pt x="441" y="1370" on="0"/>
        <pt x="675" y="1473" on="0"/>
        <pt x="811" y="1473" on="1"/>
        <pt x="855" y="1473" on="0"/>
        <pt x="937" y="1453" on="0"/>
        <pt x="1000" y="1409" on="0"/>
        <pt x="1038" y="1339" on="0"/>
        <pt x="1038" y="1288" on="1"/>
        <pt x="1038" y="1243" on="0"/>
        <pt x="1004" y="1159" on="0"/>
        <pt x="946" y="1083" on="0"/>
        <pt x="870" y="1018" on="0"/>
        <pt x="785" y="966" on="0"/>
        <pt x="698" y="930" on="0"/>
        <pt x="659" y="920" on="1"/>
        <pt x="643" y="958" on="1"/>
        <pt x="677" y="978" on="0"/>
        <pt x="749" y="1030" on="0"/>
        <pt x="808" y="1093" on="0"/>
        <pt x="846" y="1168" on="0"/>
        <pt x="846" y="1212" on="1"/>
        <pt x="846" y="1247" on="0"/>
        <pt x="821" y="1306" on="0"/>
        <pt x="776" y="1348" on="0"/>
        <pt x="716" y="1372" on="0"/>
        <pt x="682" y="1372" on="1"/>
        <pt x="608" y="1372" on="0"/>
        <pt x="494" y="1308" on="0"/>
        <pt x="417" y="1204" on="0"/>
        <pt x="377" y="1072" on="0"/>
        <pt x="377" y="1004" on="1"/>
        <pt x="377" y="686" on="1"/>
      </contour>
    </TTGlyph>
    <TTGlyph name="M" xMin="188" yMin="-31" xMax="1794" yMax="1475">
      <contour>
        <pt x="1794" y="137" on="1"/>
        <pt x="1779" y="108" on="0"/>
        <pt x="1734" y="54" on="0"/>
        <pt x="1677" y="13" on="0"/>
        <pt x="1613" y="-12" on="0"/>
        <pt x="1579" y="-12" on="1"/>
        <pt x="1524" y="-12" on="0"/>
        <pt x="1440" y="30" on="0"/>
        <pt x="1384" y="101" on="0"/>
        <pt x="1356" y="193" on="0"/>
        <pt x="1356" y="244" on="1"/>
        <pt x="1356" y="1239" on="1"/>
        <pt x="1356" y="1254" on="0"/>
        <pt x="1349" y="1285" on="0"/>
        <pt x="1333" y="1310" on="0"/>
        <pt x="1308" y="1325" on="0"/>
        <pt x="1290" y="1325" on="1"/>
        <pt x="1260" y="1325" on="0"/>
        <pt x="1191" y="1276" on="0"/>
        <pt x="1122" y="1185" on="0"/>
        <pt x="1058" y="1057" on="0"/>
        <pt x="1009" y="901" on="0"/>
        <pt x="979" y="720" on="0"/>
        <pt x="979" y="621" on="1"/>
        <pt x="979" y="43" on="1"/>
        <pt x="772" y="-31" on="1"/>
        <pt x="772" y="1239" on="1"/>
        <pt x="772" y="1254" on="0"/>
        <pt x="765" y="1285" on="0"/>
        <pt x="749" y="1310" on="0"/>
        <pt x="725" y="1325" on="0"/>
        <pt x="707" y="1325" on="1"/>
        <pt x="677" y="1325" on="0"/>
        <pt x="608" y="1252" on="0"/>
        <pt x="539" y="1131" on="0"/>
        <pt x="474" y="973" on="0"/>
        <pt x="425" y="804" on="0"/>
        <pt x="395" y="636" on="0"/>
        <pt x="395" y="565" on="1"/>
        <pt x="395" y="43" on="1"/>
        <pt x="188" y="-31" on="1"/>
        <pt x="188" y="1401" on="1"/>
        <pt x="395" y="1475" on="1"/>
        <pt x="395" y="911" on="1"/>
        <pt x="434" y="1079" on="0"/>
        <pt x="533" y="1295" on="0"/>
        <pt x="640" y="1421" on="0"/>
        <pt x="752" y="1470" on="0"/>
        <pt x="805" y="1470" on="1"/>
        <pt x="865" y="1470" on="0"/>
        <pt x="935" y="1441" on="0"/>
        <pt x="971" y="1390" on="0"/>
        <pt x="980" y="1321" on="0"/>
        <pt x="979" y="1280" on="1"/>
        <pt x="979" y="983" on="1"/>
        <pt x="1009" y="1107" on="0"/>
        <pt x="1105" y="1290" on="0"/>
        <pt x="1217" y="1411" on="0"/>
        <pt x="1336" y="1470" on="0"/>
        <pt x="1389" y="1470" on="1"/>
        <pt x="1473" y="1470" on="0"/>
        <pt x="1563" y="1399" on="0"/>
        <pt x="1563" y="1315" on="1"/>
        <pt x="1563" y="211" on="1"/>
        <pt x="1563" y="191" on="0"/>
        <pt x="1571" y="151" on="0"/>
        <pt x="1590" y="120" on="0"/>
        <pt x="1622" y="100" on="0"/>
        <pt x="1645" y="100" on="1"/>
        <pt x="1679" y="100" on="0"/>
        <pt x="1741" y="140" on="0"/>
        <pt x="1761" y="166" on="1"/>
      </contour>
    </TTGlyph>
    <TTGlyph name="N" xMin="188" yMin="-29" xMax="1270" yMax="1477">
      <contour>
        <pt x="1270" y="137" on="1"/>
        <pt x="1255" y="108" on="0"/>
        <pt x="1210" y="54" on="0"/>
        <pt x="1153" y="13" on="0"/>
        <pt x="1089" y="-12" on="0"/>
        <pt x="1055" y="-12" on="1"/>
        <pt x="999" y="-12" on="0"/>
        <pt x="916" y="30" on="0"/>
        <pt x="859" y="101" on="0"/>
        <pt x="831" y="193" on="0"/>
        <pt x="831" y="244" on="1"/>
        <pt x="831" y="1108" on="1"/>
        <pt x="831" y="1132" on="0"/>
        <pt x="831" y="1189" on="0"/>
        <pt x="826" y="1245" on="0"/>
        <pt x="812" y="1297" on="0"/>
        <pt x="784" y="1336" on="0"/>
        <pt x="739" y="1360" on="0"/>
        <pt x="705" y="1360" on="1"/>
        <pt x="648" y="1360" on="0"/>
        <pt x="558" y="1292" on="0"/>
        <pt x="489" y="1183" on="0"/>
        <pt x="440" y="1046" on="0"/>
        <pt x="409" y="908" on="0"/>
        <pt x="395" y="782" on="0"/>
        <pt x="395" y="739" on="1"/>
        <pt x="395" y="47" on="1"/>
        <pt x="188" y="-29" on="1"/>
        <pt x="188" y="1403" on="1"/>
        <pt x="395" y="1477" on="1"/>
        <pt x="395" y="1100" on="1"/>
        <pt x="415" y="1173" on="0"/>
        <pt x="482" y="1308" on="0"/>
        <pt x="579" y="1412" on="0"/>
        <pt x="710" y="1473" on="0"/>
        <pt x="795" y="1473" on="1"/>
        <pt x="859" y="1473" on="0"/>
        <pt x="951" y="1426" on="0"/>
        <pt x="1010" y="1346" on="0"/>
        <pt x="1038" y="1240" on="0"/>
        <pt x="1038" y="1182" on="1"/>
        <pt x="1038" y="211" on="1"/>
        <pt x="1038" y="191" on="0"/>
        <pt x="1047" y="151" on="0"/>
        <pt x="1066" y="118" on="0"/>
        <pt x="1098" y="98" on="0"/>
        <pt x="1122" y="98" on="1"/>
        <pt x="1156" y="98" on="0"/>
        <pt x="1217" y="140" on="0"/>
        <pt x="1237" y="166" on="1"/>
      </contour>
    </TTGlyph>
    <TTGlyph name="Nacute" xMin="188" yMin="-29" xMax="1270" yMax="1821">
      <component glyphName="N" x="0" y="0" flags="0x204"/>
      <component glyphName="acute" x="630" y="0" flags="0x4"/>
    </TTGlyph>
    <TTGlyph name="Ncaron" xMin="188" yMin="-29" xMax="1270" yMax="1888">
      <component glyphName="N" x="0" y="0" flags="0x204"/>
      <component glyphName="caron" x="349" y="24" flags="0x4"/>
    </TTGlyph>
    <TTGlyph name="Ncommaaccent" xMin="188" yMin="-333" xMax="1270" yMax="1477">
      <component glyphName="N" x="0" y="0" flags="0x204"/>
      <component glyphName="uni0326" x="478" y="0" flags="0x4"/>
    </TTGlyph>
    <TTGlyph name="Ntilde" xMin="188" yMin="-29" xMax="1270" yMax="1798">
      <component glyphName="N" x="0" y="0" flags="0x204"/>
      <component glyphName="tilde" x="502" y="31" flags="0x4"/>
    </TTGlyph>
    <TTGlyph name="O" xMin="86" yMin="-31" xMax="1378" yMax="1460">
      <contour>
        <pt x="1378" y="715" on="1"/>
        <pt x="1378" y="623" on="0"/>
        <pt x="1338" y="440" on="0"/>
        <pt x="1261" y="275" on="0"/>
        <pt x="1150" y="133" on="0"/>
        <pt x="1006" y="28" on="0"/>
        <pt x="833" y="-31" on="0"/>
        <pt x="733" y="-31" on="1"/>
        <pt x="633" y="-31" on="0"/>
        <pt x="460" y="28" on="0"/>
        <pt x="316" y="133" on="0"/>
        <pt x="204" y="275" on="0"/>
        <pt x="126" y="440" on="0"/>
        <pt x="86" y="623" on="0"/>
        <pt x="86" y="715" on="1"/>
        <pt x="86" y="807" on="0"/>
        <pt x="126" y="989" on="0"/>
        <pt x="204" y="1154" on="0"/>
        <pt x="316" y="1297" on="0"/>
        <pt x="460" y="1401" on="0"/>
        <pt x="633" y="1460" on="0"/>
        <pt x="733" y="1460" on="1"/>
        <pt x="833" y="1460" on="0"/>
        <pt x="1006" y="1401" on="0"/>
        <pt x="1150" y="1297" on="0"/>
        <pt x="1261" y="1154" on="0"/>
        <pt x="1338" y="989" on="0"/>
        <pt x="1378" y="807" on="0"/>
      </contour>
      <contour>
        <pt x="643" y="1358" on="1"/>
        <pt x="578" y="1358" on="0"/>
        <pt x="477" y="1313" on="0"/>
        <pt x="399" y="1236" on="0"/>
        <pt x="345" y="1135" on="0"/>
        <pt x="311" y="1023" on="0"/>
        <pt x="295" y="907" on="0"/>
        <pt x="295" y="854" on="1"/>
        <pt x="295" y="775" on="0"/>
        <pt x="319" y="598" on="0"/>
        <pt x="372" y="426" on="0"/>
        <pt x="455" y="269" on="0"/>
        <pt x="573" y="149" on="0"/>
        <pt x="726" y="78" on="0"/>
        <pt x="823" y="78" on="1"/>
        <pt x="887" y="78" on="0"/>
        <pt x="988" y="123" on="0"/>
        <pt x="1066" y="200" on="0"/>
        <pt x="1120" y="302" on="0"/>
        <pt x="1155" y="414" on="0"/>
        <pt x="1171" y="531" on="0"/>
        <pt x="1171" y="584" on="1"/>
        <pt x="1171" y="663" on="0"/>
        <pt x="1147" y="839" on="0"/>
        <pt x="1094" y="1011" on="0"/>
        <pt x="1011" y="1168" on="0"/>
        <pt x="893" y="1287" on="0"/>
        <pt x="740" y="1358" on="0"/>
      </contour>
    </TTGlyph>
    <TTGlyph name="OE" xMin="86" yMin="-31" xMax="2142" yMax="1460">
      <contour>
        <pt x="643" y="1358" on="1"/>
        <pt x="578" y="1358" on="0"/>
        <pt x="477" y="1313" on="0"/>
        <pt x="399" y="1236" on="0"/>
        <pt x="345" y="1135" on="0"/>
        <pt x="311" y="1023" on="0"/>
        <pt x="295" y="907" on="0"/>
        <pt x="295" y="854" on="1"/>
        <pt x="295" y="775" on="0"/>
        <pt x="319" y="598" on="0"/>
        <pt x="372" y="426" on="0"/>
        <pt x="455" y="269" on="0"/>
        <pt x="573" y="149" on="0"/>
        <pt x="726" y="78" on="0"/>
        <pt x="823" y="78" on="1"/>
        <pt x="887" y="78" on="0"/>
        <pt x="988" y="123" on="0"/>
        <pt x="1066" y="200" on="0"/>
        <pt x="1120" y="302" on="0"/>
        <pt x="1155" y="414" on="0"/>
        <pt x="1171" y="531" on="0"/>
        <pt x="1171" y="584" on="1"/>
        <pt x="1171" y="663" on="0"/>
        <pt x="1147" y="839" on="0"/>
        <pt x="1094" y="1011" on="0"/>
        <pt x="1011" y="1168" on="0"/>
        <pt x="893" y="1287" on="0"/>
        <pt x="740" y="1358" on="0"/>
      </contour>
      <contour>
        <pt x="1378" y="705" on="1"/>
        <pt x="1409" y="725" on="0"/>
        <pt x="1470" y="760" on="0"/>
        <pt x="1501" y="774" on="1"/>
        <pt x="1459" y="782" on="0"/>
        <pt x="1392" y="826" on="0"/>
        <pt x="1366" y="858" on="1"/>
        <pt x="1372" y="823" on="0"/>
        <pt x="1380" y="750" on="0"/>
        <pt x="1378" y="715" on="1"/>
      </contour>
      <contour>
        <pt x="2142" y="393" on="1"/>
        <pt x="2098" y="312" on="0"/>
        <pt x="1973" y="166" on="0"/>
        <pt x="1820" y="54" on="0"/>
        <pt x="1643" y="-12" on="0"/>
        <pt x="1546" y="-12" on="1"/>
        <pt x="1492" y="-12" on="0"/>
        <pt x="1386" y="15" on="0"/>
        <pt x="1292" y="65" on="0"/>
        <pt x="1215" y="138" on="0"/>
        <pt x="1190" y="184" on="1"/>
        <pt x="1106" y="87" on="0"/>
        <pt x="877" y="-31" on="0"/>
        <pt x="733" y="-31" on="1"/>
        <pt x="633" y="-31" on="0"/>
        <pt x="460" y="28" on="0"/>
        <pt x="316" y="133" on="0"/>
        <pt x="204" y="275" on="0"/>
        <pt x="126" y="440" on="0"/>
        <pt x="86" y="623" on="0"/>
        <pt x="86" y="715" on="1"/>
        <pt x="86" y="807" on="0"/>
        <pt x="126" y="989" on="0"/>
        <pt x="204" y="1154" on="0"/>
        <pt x="316" y="1297" on="0"/>
        <pt x="460" y="1401" on="0"/>
        <pt x="633" y="1460" on="0"/>
        <pt x="733" y="1460" on="1"/>
        <pt x="835" y="1460" on="0"/>
        <pt x="1013" y="1398" on="0"/>
        <pt x="1158" y="1289" on="0"/>
        <pt x="1271" y="1141" on="0"/>
        <pt x="1309" y="1055" on="1"/>
        <pt x="1315" y="1142" on="0"/>
        <pt x="1413" y="1287" on="0"/>
        <pt x="1558" y="1392" on="0"/>
        <pt x="1730" y="1450" on="0"/>
        <pt x="1810" y="1450" on="1"/>
        <pt x="1892" y="1450" on="0"/>
        <pt x="2028" y="1385" on="0"/>
        <pt x="2081" y="1323" on="1"/>
        <pt x="1935" y="1217" on="1"/>
        <pt x="1914" y="1246" on="0"/>
        <pt x="1865" y="1297" on="0"/>
        <pt x="1808" y="1334" on="0"/>
        <pt x="1743" y="1356" on="0"/>
        <pt x="1706" y="1356" on="1"/>
        <pt x="1660" y="1356" on="0"/>
        <pt x="1571" y="1323" on="0"/>
        <pt x="1501" y="1264" on="0"/>
        <pt x="1458" y="1182" on="0"/>
        <pt x="1458" y="1133" on="1"/>
        <pt x="1458" y="1082" on="0"/>
        <pt x="1502" y="995" on="0"/>
        <pt x="1574" y="931" on="0"/>
        <pt x="1667" y="895" on="0"/>
        <pt x="1716" y="895" on="1"/>
        <pt x="1771" y="895" on="0"/>
        <pt x="1821" y="913" on="1"/>
        <pt x="1835" y="872" on="1"/>
        <pt x="1754" y="846" on="0"/>
        <pt x="1593" y="765" on="0"/>
        <pt x="1465" y="651" on="0"/>
        <pt x="1386" y="501" on="0"/>
        <pt x="1386" y="406" on="1"/>
        <pt x="1386" y="351" on="0"/>
        <pt x="1418" y="257" on="0"/>
        <pt x="1480" y="187" on="0"/>
        <pt x="1568" y="147" on="0"/>
        <pt x="1624" y="147" on="1"/>
        <pt x="1663" y="147" on="0"/>
        <pt x="1754" y="169" on="0"/>
        <pt x="1849" y="207" on="0"/>
        <pt x="1942" y="260" on="0"/>
        <pt x="2024" y="321" on="0"/>
        <pt x="2088" y="389" on="0"/>
        <pt x="2107" y="424" on="1"/>
      </contour>
    </TTGlyph>
    <TTGlyph name="Oacute" xMin="86" yMin="-31" xMax="1378" yMax="1835">
      <component glyphName="O" x="0" y="0" flags="0x204"/>
      <component glyphName="acute" x="655" y="14" flags="0x4"/>
    </TTGlyph>
    <TTGlyph name="Obreve" xMin="86" yMin="-31" xMax="1378" yMax="1900">
      <component glyphName="O" x="0" y="0" flags="0x204"/>
      <component glyphName="breve" x="519" y="57" flags="0x4"/>
    </TTGlyph>
    <TTGlyph name="Ocircumflex" xMin="86" yMin="-31" xMax="1378" yMax="1895">
      <component glyphName="O" x="0" y="0" flags="0x204"/>
      <component glyphName="circumflex" x="449" y="31" flags="0x4"/>
    </TTGlyph>
    <TTGlyph name="Odieresis" xMin="86" yMin="-31" xMax="1378" yMax="1702">
      <component glyphName="O" x="0" y="0" flags="0x204"/>
      <component glyphName="dieresis" x="489" y="10" flags="0x4"/>
    </TTGlyph>
    <TTGlyph name="Ograve" xMin="86" yMin="-31" xMax="1378" yMax="1843">
      <component glyphName="O" x="0" y="0" flags="0x204"/>
      <component glyphName="grave" x="322" y="16" flags="0x4"/>
    </TTGlyph>
    <TTGlyph name="Ohungarumlaut" xMin="86" yMin="-31" xMax="1378" yMax="1825">
      <component glyphName="O" x="0" y="0" flags="0x204"/>
      <component glyphName="hungarumlaut" x="524" y="4" flags="0x4"/>
    </TTGlyph>
    <TTGlyph name="Omacron" xMin="86" yMin="-31" xMax="1378" yMax="1682">
      <component glyphName="O" x="0" y="0" flags="0x204"/>
      <component glyphName="macron" x="489" y="7" flags="0x4"/>
    </TTGlyph>
    <TTGlyph name="Oslash" xMin="86" yMin="-49" xMax="1378" yMax="1479">
      <contour>
        <pt x="1073" y="1049" on="1"/>
        <pt x="528" y="195" on="1"/>
        <pt x="587" y="141" on="0"/>
        <pt x="732" y="78" on="0"/>
        <pt x="823" y="78" on="1"/>
        <pt x="887" y="78" on="0"/>
        <pt x="988" y="123" on="0"/>
        <pt x="1066" y="200" on="0"/>
        <pt x="1120" y="302" on="0"/>
        <pt x="1155" y="414" on="0"/>
        <pt x="1171" y="531" on="0"/>
        <pt x="1171" y="584" on="1"/>
        <pt x="1171" y="638" on="0"/>
        <pt x="1159" y="755" on="0"/>
        <pt x="1135" y="875" on="0"/>
        <pt x="1098" y="993" on="0"/>
      </contour>
      <contour>
        <pt x="432" y="315" on="1"/>
        <pt x="991" y="1182" on="1"/>
        <pt x="960" y="1222" on="0"/>
        <pt x="887" y="1287" on="0"/>
        <pt x="800" y="1333" on="0"/>
        <pt x="700" y="1358" on="0"/>
        <pt x="643" y="1358" on="1"/>
        <pt x="578" y="1358" on="0"/>
        <pt x="477" y="1313" on="0"/>
        <pt x="399" y="1236" on="0"/>
        <pt x="345" y="1135" on="0"/>
        <pt x="311" y="1023" on="0"/>
        <pt x="295" y="907" on="0"/>
        <pt x="295" y="854" on="1"/>
        <pt x="295" y="790" on="0"/>
        <pt x="311" y="650" on="0"/>
        <pt x="344" y="510" on="0"/>
        <pt x="396" y="374" on="0"/>
      </contour>
      <contour>
        <pt x="375" y="-49" on="1"/>
        <pt x="250" y="33" on="1"/>
        <pt x="317" y="139" on="1"/>
        <pt x="262" y="193" on="0"/>
        <pt x="176" y="326" on="0"/>
        <pt x="117" y="475" on="0"/>
        <pt x="86" y="634" on="0"/>
        <pt x="86" y="715" on="1"/>
        <pt x="86" y="807" on="0"/>
        <pt x="126" y="989" on="0"/>
        <pt x="204" y="1154" on="0"/>
        <pt x="316" y="1297" on="0"/>
        <pt x="460" y="1401" on="0"/>
        <pt x="633" y="1460" on="0"/>
        <pt x="733" y="1460" on="1"/>
        <pt x="838" y="1460" on="0"/>
        <pt x="1018" y="1394" on="0"/>
        <pt x="1094" y="1337" on="1"/>
        <pt x="1184" y="1479" on="1"/>
        <pt x="1296" y="1401" on="1"/>
        <pt x="1194" y="1239" on="1"/>
        <pt x="1239" y="1186" on="0"/>
        <pt x="1307" y="1063" on="0"/>
        <pt x="1354" y="928" on="0"/>
        <pt x="1378" y="786" on="0"/>
        <pt x="1378" y="715" on="1"/>
        <pt x="1378" y="623" on="0"/>
        <pt x="1338" y="440" on="0"/>
        <pt x="1261" y="275" on="0"/>
        <pt x="1150" y="133" on="0"/>
        <pt x="1006" y="28" on="0"/>
        <pt x="833" y="-31" on="0"/>
        <pt x="733" y="-31" on="1"/>
        <pt x="650" y="-31" on="0"/>
        <pt x="501" y="11" on="0"/>
        <pt x="436" y="49" on="1"/>
      </contour>
    </TTGlyph>
    <TTGlyph name="Oslashacute" xMin="86" yMin="-49" xMax="1378" yMax="1851">
      <component glyphName="Oslash" x="0" y="0" flags="0x204"/>
      <component glyphName="acute" x="685" y="30" flags="0x4"/>
    </TTGlyph>
    <TTGlyph name="Otilde" xMin="86" yMin="-31" xMax="1378" yMax="1796">
      <component glyphName="O" x="0" y="0" flags="0x204"/>
      <component glyphName="tilde" x="504" y="29" flags="0x4"/>
    </TTGlyph>
    <TTGlyph name="P" xMin="78" yMin="-31" xMax="1214" yMax="1452">
      <contour>
        <pt x="1214" y="1038" on="1"/>
        <pt x="1214" y="952" on="0"/>
        <pt x="1149" y="794" on="0"/>
        <pt x="1038" y="656" on="0"/>
        <pt x="892" y="544" on="0"/>
        <pt x="728" y="464" on="0"/>
        <pt x="558" y="420" on="0"/>
        <pt x="479" y="420" on="1"/>
        <pt x="471" y="420" on="0"/>
        <pt x="454" y="420" on="0"/>
        <pt x="446" y="422" on="1"/>
        <pt x="457" y="477" on="1"/>
        <pt x="522" y="488" on="0"/>
        <pt x="655" y="533" on="0"/>
        <pt x="777" y="600" on="0"/>
        <pt x="883" y="689" on="0"/>
        <pt x="961" y="798" on="0"/>
        <pt x="1006" y="927" on="0"/>
        <pt x="1006" y="1001" on="1"/>
        <pt x="1006" y="1072" on="0"/>
        <pt x="960" y="1192" on="0"/>
        <pt x="877" y="1280" on="0"/>
        <pt x="761" y="1329" on="0"/>
        <pt x="690" y="1329" on="1"/>
        <pt x="616" y="1329" on="0"/>
        <pt x="461" y="1295" on="0"/>
        <pt x="309" y="1233" on="0"/>
        <pt x="168" y="1144" on="0"/>
        <pt x="109" y="1090" on="1"/>
        <pt x="78" y="1124" on="1"/>
        <pt x="146" y="1192" on="0"/>
        <pt x="321" y="1311" on="0"/>
        <pt x="513" y="1400" on="0"/>
        <pt x="710" y="1452" on="0"/>
        <pt x="801" y="1452" on="1"/>
        <pt x="888" y="1452" on="0"/>
        <pt x="1039" y="1391" on="0"/>
        <pt x="1150" y="1281" on="0"/>
        <pt x="1214" y="1129" on="0"/>
      </contour>
      <contour>
        <pt x="401" y="45" on="1"/>
        <pt x="195" y="-31" on="1"/>
        <pt x="195" y="1090" on="1"/>
        <pt x="401" y="1163" on="1"/>
      </contour>
    </TTGlyph>
    <TTGlyph name="Q" xMin="86" yMin="-203" xMax="1378" yMax="1460">
      <contour>
        <pt x="1378" y="715" on="1"/>
        <pt x="1378" y="607" on="0"/>
        <pt x="1323" y="396" on="0"/>
        <pt x="1220" y="210" on="0"/>
        <pt x="1070" y="63" on="0"/>
        <pt x="975" y="20" on="1"/>
        <pt x="1007" y="-26" on="0"/>
        <pt x="1083" y="-90" on="0"/>
        <pt x="1126" y="-90" on="1"/>
        <pt x="1154" y="-90" on="0"/>
        <pt x="1206" y="-71" on="0"/>
        <pt x="1229" y="-57" on="1"/>
        <pt x="1257" y="-98" on="1"/>
        <pt x="1215" y="-142" on="0"/>
        <pt x="1113" y="-203" on="0"/>
        <pt x="1051" y="-203" on="1"/>
        <pt x="1024" y="-203" on="0"/>
        <pt x="968" y="-188" on="0"/>
        <pt x="915" y="-161" on="0"/>
        <pt x="870" y="-124" on="0"/>
        <pt x="854" y="-102" on="1"/>
        <pt x="835" y="-76" on="0"/>
        <pt x="807" y="-27" on="1"/>
        <pt x="788" y="-29" on="0"/>
        <pt x="752" y="-31" on="0"/>
        <pt x="733" y="-31" on="1"/>
        <pt x="633" y="-31" on="0"/>
        <pt x="460" y="28" on="0"/>
        <pt x="316" y="133" on="0"/>
        <pt x="204" y="275" on="0"/>
        <pt x="126" y="440" on="0"/>
        <pt x="86" y="623" on="0"/>
        <pt x="86" y="715" on="1"/>
        <pt x="86" y="807" on="0"/>
        <pt x="126" y="989" on="0"/>
        <pt x="204" y="1154" on="0"/>
        <pt x="316" y="1297" on="0"/>
        <pt x="460" y="1401" on="0"/>
        <pt x="633" y="1460" on="0"/>
        <pt x="733" y="1460" on="1"/>
        <pt x="833" y="1460" on="0"/>
        <pt x="1006" y="1401" on="0"/>
        <pt x="1150" y="1297" on="0"/>
        <pt x="1261" y="1154" on="0"/>
        <pt x="1338" y="989" on="0"/>
        <pt x="1378" y="807" on="0"/>
      </contour>
      <contour>
        <pt x="643" y="1358" on="1"/>
        <pt x="578" y="1358" on="0"/>
        <pt x="477" y="1313" on="0"/>
        <pt x="399" y="1236" on="0"/>
        <pt x="345" y="1135" on="0"/>
        <pt x="311" y="1023" on="0"/>
        <pt x="295" y="907" on="0"/>
        <pt x="295" y="854" on="1"/>
        <pt x="295" y="780" on="0"/>
        <pt x="316" y="617" on="0"/>
        <pt x="361" y="455" on="0"/>
        <pt x="432" y="305" on="0"/>
        <pt x="532" y="183" on="0"/>
        <pt x="663" y="100" on="0"/>
        <pt x="745" y="86" on="1"/>
        <pt x="722" y="126" on="0"/>
        <pt x="674" y="203" on="0"/>
        <pt x="625" y="264" on="0"/>
        <pt x="578" y="301" on="0"/>
        <pt x="557" y="301" on="1"/>
        <pt x="545" y="301" on="0"/>
        <pt x="520" y="296" on="0"/>
        <pt x="508" y="293" on="1"/>
        <pt x="479" y="340" on="1"/>
        <pt x="514" y="357" on="0"/>
        <pt x="591" y="379" on="0"/>
        <pt x="629" y="379" on="1"/>
        <pt x="666" y="379" on="0"/>
        <pt x="738" y="355" on="0"/>
        <pt x="801" y="313" on="0"/>
        <pt x="852" y="256" on="0"/>
        <pt x="868" y="223" on="1"/>
        <pt x="879" y="198" on="0"/>
        <pt x="909" y="133" on="0"/>
        <pt x="928" y="98" on="1"/>
        <pt x="995" y="123" on="0"/>
        <pt x="1087" y="231" on="0"/>
        <pt x="1145" y="366" on="0"/>
        <pt x="1171" y="516" on="0"/>
        <pt x="1171" y="584" on="1"/>
        <pt x="1171" y="663" on="0"/>
        <pt x="1147" y="839" on="0"/>
        <pt x="1094" y="1011" on="0"/>
        <pt x="1011" y="1168" on="0"/>
        <pt x="893" y="1287" on="0"/>
        <pt x="740" y="1358" on="0"/>
      </contour>
    </TTGlyph>
    <TTGlyph name="R" xMin="78" yMin="-31" xMax="1247" yMax="1452">
      <contour>
        <pt x="1247" y="217" on="1"/>
        <pt x="1220" y="180" on="0"/>
        <pt x="1146" y="95" on="0"/>
        <pt x="1058" y="22" on="0"/>
        <pt x="959" y="-27" on="0"/>
        <pt x="907" y="-27" on="1"/>
        <pt x="872" y="-27" on="0"/>
        <pt x="812" y="-6" on="0"/>
        <pt x="761" y="30" on="0"/>
        <pt x="716" y="77" on="0"/>
        <pt x="696" y="102" on="1"/>
        <pt x="630" y="184" on="0"/>
        <pt x="505" y="350" on="0"/>
        <pt x="446" y="436" on="1"/>
        <pt x="457" y="477" on="1"/>
        <pt x="522" y="488" on="0"/>
        <pt x="655" y="533" on="0"/>
        <pt x="777" y="600" on="0"/>
        <pt x="883" y="689" on="0"/>
        <pt x="961" y="798" on="0"/>
        <pt x="1006" y="927" on="0"/>
        <pt x="1006" y="1001" on="1"/>
        <pt x="1006" y="1072" on="0"/>
        <pt x="960" y="1192" on="0"/>
        <pt x="877" y="1280" on="0"/>
        <pt x="761" y="1329" on="0"/>
        <pt x="690" y="1329" on="1"/>
        <pt x="600" y="1329" on="0"/>
        <pt x="443" y="1289" on="0"/>
        <pt x="302" y="1222" on="0"/>
        <pt x="172" y="1136" on="0"/>
        <pt x="109" y="1090" on="1"/>
        <pt x="78" y="1124" on="1"/>
        <pt x="138" y="1182" on="0"/>
        <pt x="277" y="1299" on="0"/>
        <pt x="451" y="1393" on="0"/>
        <pt x="666" y="1452" on="0"/>
        <pt x="801" y="1452" on="1"/>
        <pt x="892" y="1452" on="0"/>
        <pt x="1045" y="1388" on="0"/>
        <pt x="1155" y="1274" on="0"/>
        <pt x="1217" y="1118" on="0"/>
        <pt x="1217" y="1026" on="1"/>
        <pt x="1217" y="883" on="0"/>
        <pt x="1073" y="672" on="0"/>
        <pt x="950" y="606" on="1"/>
        <pt x="935" y="598" on="0"/>
        <pt x="890" y="572" on="0"/>
        <pt x="837" y="542" on="0"/>
        <pt x="781" y="512" on="0"/>
        <pt x="729" y="487" on="0"/>
        <pt x="685" y="469" on="0"/>
        <pt x="670" y="467" on="1"/>
        <pt x="691" y="439" on="0"/>
        <pt x="752" y="361" on="0"/>
        <pt x="818" y="279" on="0"/>
        <pt x="883" y="205" on="0"/>
        <pt x="909" y="182" on="1"/>
        <pt x="934" y="161" on="0"/>
        <pt x="985" y="129" on="0"/>
        <pt x="1020" y="129" on="1"/>
        <pt x="1047" y="129" on="0"/>
        <pt x="1101" y="152" on="0"/>
        <pt x="1151" y="188" on="0"/>
        <pt x="1195" y="230" on="0"/>
        <pt x="1212" y="248" on="1"/>
      </contour>
      <contour>
        <pt x="401" y="45" on="1"/>
        <pt x="195" y="-31" on="1"/>
        <pt x="195" y="1090" on="1"/>
        <pt x="401" y="1163" on="1"/>
      </contour>
    </TTGlyph>
    <TTGlyph name="Racute" xMin="78" yMin="-31" xMax="1247" yMax="1807">
      <component glyphName="R" x="0" y="0" flags="0x204"/>
      <component glyphName="acute" x="615" y="-14" flags="0x4"/>
    </TTGlyph>
    <TTGlyph name="Rcaron" xMin="78" yMin="-31" xMax="1247" yMax="1883">
      <component glyphName="R" x="0" y="0" flags="0x204"/>
      <component glyphName="caron" x="371" y="19" flags="0x4"/>
    </TTGlyph>
    <TTGlyph name="Rcommaaccent" xMin="78" yMin="-333" xMax="1247" yMax="1452">
      <component glyphName="R" x="0" y="0" flags="0x204"/>
      <component glyphName="uni0326" x="499" y="0" flags="0x4"/>
    </TTGlyph>
    <TTGlyph name="S" xMin="78" yMin="-23" xMax="1065" yMax="1470">
      <contour>
        <pt x="1065" y="1233" on="1"/>
        <pt x="897" y="1030" on="1"/>
        <pt x="875" y="1096" on="0"/>
        <pt x="805" y="1216" on="0"/>
        <pt x="709" y="1306" on="0"/>
        <pt x="587" y="1360" on="0"/>
        <pt x="512" y="1360" on="1"/>
        <pt x="458" y="1360" on="0"/>
        <pt x="366" y="1321" on="0"/>
        <pt x="297" y="1252" on="0"/>
        <pt x="258" y="1158" on="0"/>
        <pt x="258" y="1104" on="1"/>
        <pt x="258" y="1048" on="0"/>
        <pt x="300" y="950" on="0"/>
        <pt x="370" y="871" on="0"/>
        <pt x="461" y="813" on="0"/>
        <pt x="510" y="797" on="1"/>
        <pt x="559" y="780" on="0"/>
        <pt x="667" y="738" on="0"/>
        <pt x="771" y="682" on="0"/>
        <pt x="865" y="613" on="0"/>
        <pt x="937" y="527" on="0"/>
        <pt x="979" y="422" on="0"/>
        <pt x="979" y="360" on="1"/>
        <pt x="979" y="270" on="0"/>
        <pt x="900" y="127" on="0"/>
        <pt x="772" y="29" on="0"/>
        <pt x="607" y="-23" on="0"/>
        <pt x="522" y="-23" on="1"/>
        <pt x="464" y="-23" on="0"/>
        <pt x="345" y="11" on="0"/>
        <pt x="236" y="70" on="0"/>
        <pt x="141" y="148" on="0"/>
        <pt x="106" y="193" on="1"/>
        <pt x="268" y="379" on="1"/>
        <pt x="283" y="331" on="0"/>
        <pt x="358" y="223" on="0"/>
        <pt x="458" y="131" on="0"/>
        <pt x="573" y="70" on="0"/>
        <pt x="627" y="70" on="1"/>
        <pt x="658" y="70" on="0"/>
        <pt x="724" y="102" on="0"/>
        <pt x="779" y="153" on="0"/>
        <pt x="815" y="213" on="0"/>
        <pt x="815" y="242" on="1"/>
        <pt x="815" y="286" on="0"/>
        <pt x="779" y="365" on="0"/>
        <pt x="720" y="435" on="0"/>
        <pt x="643" y="494" on="0"/>
        <pt x="560" y="541" on="0"/>
        <pt x="477" y="576" on="0"/>
        <pt x="442" y="586" on="1"/>
        <pt x="373" y="607" on="0"/>
        <pt x="242" y="685" on="0"/>
        <pt x="140" y="795" on="0"/>
        <pt x="78" y="932" on="0"/>
        <pt x="78" y="1010" on="1"/>
        <pt x="78" y="1077" on="0"/>
        <pt x="120" y="1197" on="0"/>
        <pt x="194" y="1299" on="0"/>
        <pt x="294" y="1382" on="0"/>
        <pt x="410" y="1439" on="0"/>
        <pt x="536" y="1470" on="0"/>
        <pt x="600" y="1470" on="1"/>
        <pt x="740" y="1470" on="0"/>
        <pt x="980" y="1345" on="0"/>
      </contour>
    </TTGlyph>
    <TTGlyph name="Sacute" xMin="78" yMin="-23" xMax="1065" yMax="1831">
      <component glyphName="S" x="0" y="0" flags="0x204"/>
      <component glyphName="acute" x="573" y="10" flags="0x4"/>
    </TTGlyph>
    <TTGlyph name="Scaron" xMin="78" yMin="-23" xMax="1065" yMax="1907">
      <component glyphName="S" x="0" y="0" flags="0x204"/>
      <component glyphName="caron" x="289" y="43" flags="0x4"/>
    </TTGlyph>
    <TTGlyph name="Scedilla" xMin="78" yMin="-277" xMax="1065" yMax="1470">
      <contour>
        <pt x="1065" y="1233" on="1"/>
        <pt x="897" y="1030" on="1"/>
        <pt x="875" y="1096" on="0"/>
        <pt x="805" y="1216" on="0"/>
        <pt x="709" y="1306" on="0"/>
        <pt x="587" y="1360" on="0"/>
        <pt x="512" y="1360" on="1"/>
        <pt x="458" y="1360" on="0"/>
        <pt x="366" y="1321" on="0"/>
        <pt x="297" y="1252" on="0"/>
        <pt x="258" y="1158" on="0"/>
        <pt x="258" y="1104" on="1"/>
        <pt x="258" y="1048" on="0"/>
        <pt x="300" y="950" on="0"/>
        <pt x="370" y="871" on="0"/>
        <pt x="461" y="813" on="0"/>
        <pt x="510" y="797" on="1"/>
        <pt x="559" y="780" on="0"/>
        <pt x="667" y="738" on="0"/>
        <pt x="771" y="682" on="0"/>
        <pt x="865" y="613" on="0"/>
        <pt x="937" y="527" on="0"/>
        <pt x="979" y="422" on="0"/>
        <pt x="979" y="360" on="1"/>
        <pt x="979" y="277" on="0"/>
        <pt x="913" y="145" on="0"/>
        <pt x="803" y="48" on="0"/>
        <pt x="659" y="-11" on="0"/>
        <pt x="582" y="-19" on="1"/>
        <pt x="551" y="-72" on="1"/>
        <pt x="565" y="-64" on="0"/>
        <pt x="594" y="-54" on="0"/>
        <pt x="606" y="-52" on="1"/>
        <pt x="620" y="-49" on="0"/>
        <pt x="634" y="-49" on="1"/>
        <pt x="652" y="-49" on="0"/>
        <pt x="687" y="-63" on="0"/>
        <pt x="715" y="-90" on="0"/>
        <pt x="732" y="-133" on="0"/>
        <pt x="732" y="-161" on="1"/>
        <pt x="732" y="-189" on="0"/>
        <pt x="709" y="-232" on="0"/>
        <pt x="674" y="-262" on="0"/>
        <pt x="631" y="-277" on="0"/>
        <pt x="611" y="-277" on="1"/>
        <pt x="590" y="-276" on="0"/>
        <pt x="572" y="-269" on="1"/>
        <pt x="556" y="-263" on="0"/>
        <pt x="521" y="-236" on="0"/>
        <pt x="509" y="-210" on="1"/>
        <pt x="532" y="-194" on="1"/>
        <pt x="539" y="-206" on="0"/>
        <pt x="556" y="-218" on="0"/>
        <pt x="564" y="-221" on="1"/>
        <pt x="573" y="-225" on="0"/>
        <pt x="581" y="-225" on="1"/>
        <pt x="604" y="-225" on="0"/>
        <pt x="639" y="-189" on="0"/>
        <pt x="639" y="-161" on="1"/>
        <pt x="639" y="-135" on="0"/>
        <pt x="605" y="-97" on="0"/>
        <pt x="576" y="-97" on="1"/>
        <pt x="566" y="-97" on="0"/>
        <pt x="557" y="-99" on="1"/>
        <pt x="549" y="-101" on="0"/>
        <pt x="534" y="-106" on="0"/>
        <pt x="532" y="-111" on="1"/>
        <pt x="509" y="-92" on="1"/>
        <pt x="550" y="-22" on="1"/>
        <pt x="542" y="-22" on="0"/>
        <pt x="529" y="-23" on="0"/>
        <pt x="522" y="-23" on="1"/>
        <pt x="464" y="-23" on="0"/>
        <pt x="345" y="11" on="0"/>
        <pt x="236" y="70" on="0"/>
        <pt x="141" y="148" on="0"/>
        <pt x="106" y="193" on="1"/>
        <pt x="268" y="379" on="1"/>
        <pt x="283" y="331" on="0"/>
        <pt x="358" y="223" on="0"/>
        <pt x="458" y="131" on="0"/>
        <pt x="573" y="70" on="0"/>
        <pt x="627" y="70" on="1"/>
        <pt x="658" y="70" on="0"/>
        <pt x="724" y="102" on="0"/>
        <pt x="779" y="153" on="0"/>
        <pt x="815" y="213" on="0"/>
        <pt x="815" y="242" on="1"/>
        <pt x="815" y="286" on="0"/>
        <pt x="779" y="365" on="0"/>
        <pt x="720" y="435" on="0"/>
        <pt x="643" y="494" on="0"/>
        <pt x="560" y="541" on="0"/>
        <pt x="477" y="576" on="0"/>
        <pt x="442" y="586" on="1"/>
        <pt x="373" y="607" on="0"/>
        <pt x="242" y="685" on="0"/>
        <pt x="140" y="795" on="0"/>
        <pt x="78" y="932" on="0"/>
        <pt x="78" y="1010" on="1"/>
        <pt x="78" y="1077" on="0"/>
        <pt x="120" y="1197" on="0"/>
        <pt x="194" y="1299" on="0"/>
        <pt x="294" y="1382" on="0"/>
        <pt x="410" y="1439" on="0"/>
        <pt x="536" y="1470" on="0"/>
        <pt x="600" y="1470" on="1"/>
        <pt x="740" y="1470" on="0"/>
        <pt x="980" y="1345" on="0"/>
      </contour>
    </TTGlyph>
    <TTGlyph name="Scircumflex" xMin="78" yMin="-23" xMax="1065" yMax="1890">
      <component glyphName="S" x="0" y="0" flags="0x204"/>
      <component glyphName="circumflex" x="270" y="26" flags="0x4"/>
    </TTGlyph>
    <TTGlyph name="Scommaaccent" xMin="78" yMin="-333" xMax="1065" yMax="1470">
      <component glyphName="S" x="0" y="0" flags="0x204"/>
      <component glyphName="uni0326" x="399" y="0" flags="0x4"/>
    </TTGlyph>
    <TTGlyph name="T" xMin="-6" yMin="-20" xMax="1071" yMax="1495">
      <contour>
        <pt x="1071" y="1468" on="1"/>
        <pt x="1039" y="1420" on="0"/>
        <pt x="951" y="1336" on="0"/>
        <pt x="846" y="1272" on="0"/>
        <pt x="730" y="1235" on="0"/>
        <pt x="672" y="1235" on="1"/>
        <pt x="649" y="1233" on="1"/>
        <pt x="611" y="1185" on="0"/>
        <pt x="571" y="1095" on="0"/>
        <pt x="571" y="1034" on="1"/>
        <pt x="571" y="395" on="1"/>
        <pt x="571" y="262" on="0"/>
        <pt x="458" y="55" on="0"/>
        <pt x="348" y="-20" on="1"/>
        <pt x="315" y="18" on="1"/>
        <pt x="332" y="37" on="0"/>
        <pt x="352" y="86" on="0"/>
        <pt x="362" y="138" on="0"/>
        <pt x="365" y="191" on="0"/>
        <pt x="365" y="215" on="1"/>
        <pt x="365" y="918" on="1"/>
        <pt x="365" y="965" on="0"/>
        <pt x="404" y="1054" on="0"/>
        <pt x="464" y="1134" on="0"/>
        <pt x="537" y="1204" on="0"/>
        <pt x="571" y="1233" on="1"/>
        <pt x="240" y="1235" on="1"/>
        <pt x="202" y="1235" on="0"/>
        <pt x="143" y="1220" on="0"/>
        <pt x="93" y="1192" on="0"/>
        <pt x="47" y="1150" on="0"/>
        <pt x="23" y="1122" on="1"/>
        <pt x="-6" y="1153" on="1"/>
        <pt x="27" y="1198" on="0"/>
        <pt x="110" y="1298" on="0"/>
        <pt x="207" y="1380" on="0"/>
        <pt x="318" y="1434" on="0"/>
        <pt x="379" y="1434" on="1"/>
        <pt x="811" y="1434" on="1"/>
        <pt x="837" y="1434" on="0"/>
        <pt x="902" y="1440" on="0"/>
        <pt x="968" y="1454" on="0"/>
        <pt x="1027" y="1477" on="0"/>
        <pt x="1047" y="1495" on="1"/>
      </contour>
    </TTGlyph>
    <TTGlyph name="Tbar" xMin="-6" yMin="-20" xMax="1071" yMax="1495">
      <contour>
        <pt x="732" y="774" on="1"/>
        <pt x="681" y="673" on="1"/>
        <pt x="571" y="673" on="1"/>
        <pt x="571" y="395" on="1"/>
        <pt x="571" y="262" on="0"/>
        <pt x="458" y="55" on="0"/>
        <pt x="348" y="-20" on="1"/>
        <pt x="315" y="18" on="1"/>
        <pt x="332" y="37" on="0"/>
        <pt x="352" y="86" on="0"/>
        <pt x="362" y="138" on="0"/>
        <pt x="365" y="191" on="0"/>
        <pt x="365" y="215" on="1"/>
        <pt x="365" y="673" on="1"/>
        <pt x="198" y="673" on="1"/>
        <pt x="241" y="774" on="1"/>
        <pt x="365" y="774" on="1"/>
        <pt x="365" y="918" on="1"/>
        <pt x="365" y="965" on="0"/>
        <pt x="404" y="1054" on="0"/>
        <pt x="464" y="1134" on="0"/>
        <pt x="537" y="1204" on="0"/>
        <pt x="571" y="1233" on="1"/>
        <pt x="240" y="1235" on="1"/>
        <pt x="202" y="1235" on="0"/>
        <pt x="143" y="1220" on="0"/>
        <pt x="93" y="1192" on="0"/>
        <pt x="47" y="1150" on="0"/>
        <pt x="23" y="1122" on="1"/>
        <pt x="-6" y="1153" on="1"/>
        <pt x="27" y="1198" on="0"/>
        <pt x="110" y="1298" on="0"/>
        <pt x="207" y="1380" on="0"/>
        <pt x="318" y="1434" on="0"/>
        <pt x="379" y="1434" on="1"/>
        <pt x="811" y="1434" on="1"/>
        <pt x="837" y="1434" on="0"/>
        <pt x="902" y="1440" on="0"/>
        <pt x="968" y="1454" on="0"/>
        <pt x="1027" y="1477" on="0"/>
        <pt x="1047" y="1495" on="1"/>
        <pt x="1071" y="1468" on="1"/>
        <pt x="1039" y="1420" on="0"/>
        <pt x="951" y="1336" on="0"/>
        <pt x="846" y="1272" on="0"/>
        <pt x="730" y="1235" on="0"/>
        <pt x="672" y="1235" on="1"/>
        <pt x="649" y="1233" on="1"/>
        <pt x="611" y="1185" on="0"/>
        <pt x="571" y="1095" on="0"/>
        <pt x="571" y="1034" on="1"/>
        <pt x="571" y="774" on="1"/>
      </contour>
    </TTGlyph>
    <TTGlyph name="Tcaron" xMin="-6" yMin="-20" xMax="1071" yMax="1871">
      <component glyphName="T" x="0" y="0" flags="0x204"/>
      <component glyphName="caron" x="221" y="7" flags="0x4"/>
    </TTGlyph>
    <TTGlyph name="Tcommaaccent" xMin="-6" yMin="-333" xMax="1071" yMax="1495">
      <component glyphName="T" x="0" y="0" flags="0x204"/>
      <component glyphName="uni0326" x="314" y="0" flags="0x4"/>
    </TTGlyph>
    <TTGlyph name="Thorn" xMin="78" yMin="-72" xMax="1214" yMax="1475">
      <contour>
        <pt x="401" y="4" on="1"/>
        <pt x="195" y="-72" on="1"/>
        <pt x="195" y="913" on="1"/>
        <pt x="172" y="896" on="0"/>
        <pt x="129" y="862" on="0"/>
        <pt x="109" y="844" on="1"/>
        <pt x="78" y="879" on="1"/>
        <pt x="132" y="932" on="0"/>
        <pt x="195" y="977" on="1"/>
        <pt x="195" y="1401" on="1"/>
        <pt x="401" y="1475" on="1"/>
        <pt x="401" y="1102" on="1"/>
        <pt x="502" y="1151" on="0"/>
        <pt x="707" y="1206" on="0"/>
        <pt x="801" y="1206" on="1"/>
        <pt x="888" y="1206" on="0"/>
        <pt x="1039" y="1145" on="0"/>
        <pt x="1150" y="1035" on="0"/>
        <pt x="1214" y="883" on="0"/>
        <pt x="1214" y="793" on="1"/>
        <pt x="1214" y="707" on="0"/>
        <pt x="1149" y="548" on="0"/>
        <pt x="1038" y="411" on="0"/>
        <pt x="892" y="298" on="0"/>
        <pt x="728" y="218" on="0"/>
        <pt x="558" y="174" on="0"/>
        <pt x="479" y="174" on="1"/>
        <pt x="471" y="174" on="0"/>
        <pt x="454" y="174" on="0"/>
        <pt x="446" y="176" on="1"/>
        <pt x="457" y="231" on="1"/>
        <pt x="522" y="242" on="0"/>
        <pt x="655" y="287" on="0"/>
        <pt x="777" y="354" on="0"/>
        <pt x="883" y="443" on="0"/>
        <pt x="961" y="552" on="0"/>
        <pt x="1006" y="682" on="0"/>
        <pt x="1006" y="756" on="1"/>
        <pt x="1006" y="826" on="0"/>
        <pt x="960" y="946" on="0"/>
        <pt x="877" y="1034" on="0"/>
        <pt x="761" y="1083" on="0"/>
        <pt x="690" y="1083" on="1"/>
        <pt x="621" y="1083" on="0"/>
        <pt x="474" y="1052" on="0"/>
        <pt x="401" y="1024" on="1"/>
      </contour>
    </TTGlyph>
    <TTGlyph name="U" xMin="168" yMin="-20" xMax="1249" yMax="1448">
      <contour>
        <pt x="1249" y="137" on="1"/>
        <pt x="1234" y="108" on="0"/>
        <pt x="1189" y="54" on="0"/>
        <pt x="1132" y="13" on="0"/>
        <pt x="1068" y="-12" on="0"/>
        <pt x="1034" y="-12" on="1"/>
        <pt x="979" y="-12" on="0"/>
        <pt x="895" y="30" on="0"/>
        <pt x="839" y="101" on="0"/>
        <pt x="811" y="193" on="0"/>
        <pt x="811" y="244" on="1"/>
        <pt x="811" y="362" on="1"/>
        <pt x="791" y="288" on="0"/>
        <pt x="725" y="151" on="0"/>
        <pt x="627" y="44" on="0"/>
        <pt x="496" y="-20" on="0"/>
        <pt x="412" y="-20" on="1"/>
        <pt x="348" y="-20" on="0"/>
        <pt x="256" y="27" on="0"/>
        <pt x="196" y="107" on="0"/>
        <pt x="168" y="212" on="0"/>
        <pt x="168" y="270" on="1"/>
        <pt x="168" y="1374" on="1"/>
        <pt x="375" y="1448" on="1"/>
        <pt x="375" y="344" on="1"/>
        <pt x="375" y="308" on="0"/>
        <pt x="377" y="220" on="0"/>
        <pt x="399" y="144" on="0"/>
        <pt x="453" y="92" on="0"/>
        <pt x="504" y="92" on="1"/>
        <pt x="561" y="92" on="0"/>
        <pt x="650" y="161" on="0"/>
        <pt x="719" y="272" on="0"/>
        <pt x="767" y="412" on="0"/>
        <pt x="797" y="551" on="0"/>
        <pt x="811" y="678" on="0"/>
        <pt x="811" y="721" on="1"/>
        <pt x="811" y="1374" on="1"/>
        <pt x="1018" y="1448" on="1"/>
        <pt x="1018" y="211" on="1"/>
        <pt x="1018" y="191" on="0"/>
        <pt x="1026" y="151" on="0"/>
        <pt x="1046" y="120" on="0"/>
        <pt x="1078" y="100" on="0"/>
        <pt x="1102" y="100" on="1"/>
        <pt x="1136" y="100" on="0"/>
        <pt x="1197" y="140" on="0"/>
        <pt x="1217" y="166" on="1"/>
      </contour>
    </TTGlyph>
    <TTGlyph name="Uacute" xMin="170" yMin="-20" xMax="1251" yMax="1829">
      <component glyphName="U" x="2" y="0" flags="0x4"/>
      <component glyphName="acute" x="602" y="8" flags="0x4"/>
    </TTGlyph>
    <TTGlyph name="Ubreve" xMin="168" yMin="-20" xMax="1249" yMax="1870">
      <component glyphName="U" x="0" y="0" flags="0x204"/>
      <component glyphName="breve" x="422" y="27" flags="0x4"/>
    </TTGlyph>
    <TTGlyph name="Ucircumflex" xMin="170" yMin="-20" xMax="1251" yMax="1893">
      <component glyphName="U" x="2" y="0" flags="0x4"/>
      <component glyphName="circumflex" x="332" y="29" flags="0x4"/>
    </TTGlyph>
    <TTGlyph name="Udieresis" xMin="170" yMin="-20" xMax="1251" yMax="1698">
      <component glyphName="U" x="2" y="0" flags="0x4"/>
      <component glyphName="dieresis" x="371" y="6" flags="0x4"/>
    </TTGlyph>
    <TTGlyph name="Ugrave" xMin="170" yMin="-20" xMax="1251" yMax="1833">
      <component glyphName="U" x="2" y="0" flags="0x4"/>
      <component glyphName="grave" x="242" y="6" flags="0x4"/>
    </TTGlyph>
    <TTGlyph name="Uhungarumlaut" xMin="168" yMin="-20" xMax="1249" yMax="1824">
      <component glyphName="U" x="0" y="0" flags="0x204"/>
      <component glyphName="hungarumlaut" x="467" y="3" flags="0x4"/>
    </TTGlyph>
    <TTGlyph name="Umacron" xMin="168" yMin="-20" xMax="1249" yMax="1656">
      <component glyphName="U" x="0" y="0" flags="0x204"/>
      <component glyphName="macron" x="392" y="-19" flags="0x4"/>
    </TTGlyph>
    <TTGlyph name="Uogonek" xMin="168" yMin="-265" xMax="1249" yMax="1448">
      <contour>
        <pt x="1249" y="137" on="1"/>
        <pt x="1235" y="110" on="0"/>
        <pt x="1195" y="61" on="0"/>
        <pt x="1146" y="21" on="0"/>
        <pt x="1088" y="-6" on="0"/>
        <pt x="1058" y="-10" on="1"/>
        <pt x="1025" y="-48" on="0"/>
        <pt x="1005" y="-105" on="0"/>
        <pt x="1007" y="-125" on="1"/>
        <pt x="1009" y="-148" on="0"/>
        <pt x="1021" y="-164" on="1"/>
        <pt x="1037" y="-180" on="0"/>
        <pt x="1055" y="-184" on="1"/>
        <pt x="1070" y="-188" on="0"/>
        <pt x="1110" y="-177" on="0"/>
        <pt x="1131" y="-150" on="1"/>
        <pt x="1154" y="-169" on="1"/>
        <pt x="1134" y="-200" on="0"/>
        <pt x="1095" y="-235" on="0"/>
        <pt x="1080" y="-245" on="1"/>
        <pt x="1062" y="-256" on="0"/>
        <pt x="1046" y="-261" on="1"/>
        <pt x="1024" y="-265" on="0"/>
        <pt x="972" y="-252" on="0"/>
        <pt x="931" y="-216" on="0"/>
        <pt x="915" y="-155" on="0"/>
        <pt x="929" y="-111" on="1"/>
        <pt x="934" y="-96" on="0"/>
        <pt x="945" y="-79" on="1"/>
        <pt x="954" y="-65" on="0"/>
        <pt x="985" y="-29" on="0"/>
        <pt x="1009" y="-10" on="1"/>
        <pt x="960" y="-6" on="0"/>
        <pt x="886" y="39" on="0"/>
        <pt x="836" y="108" on="0"/>
        <pt x="811" y="196" on="0"/>
        <pt x="811" y="244" on="1"/>
        <pt x="811" y="362" on="1"/>
        <pt x="791" y="288" on="0"/>
        <pt x="725" y="151" on="0"/>
        <pt x="627" y="44" on="0"/>
        <pt x="496" y="-20" on="0"/>
        <pt x="412" y="-20" on="1"/>
        <pt x="348" y="-20" on="0"/>
        <pt x="256" y="27" on="0"/>
        <pt x="196" y="107" on="0"/>
        <pt x="168" y="212" on="0"/>
        <pt x="168" y="270" on="1"/>
        <pt x="168" y="1374" on="1"/>
        <pt x="375" y="1448" on="1"/>
        <pt x="375" y="344" on="1"/>
        <pt x="375" y="308" on="0"/>
        <pt x="377" y="220" on="0"/>
        <pt x="399" y="144" on="0"/>
        <pt x="453" y="92" on="0"/>
        <pt x="504" y="92" on="1"/>
        <pt x="561" y="92" on="0"/>
        <pt x="650" y="161" on="0"/>
        <pt x="719" y="272" on="0"/>
        <pt x="767" y="412" on="0"/>
        <pt x="797" y="551" on="0"/>
        <pt x="811" y="678" on="0"/>
        <pt x="811" y="721" on="1"/>
        <pt x="811" y="1374" on="1"/>
        <pt x="1018" y="1448" on="1"/>
        <pt x="1018" y="211" on="1"/>
        <pt x="1018" y="191" on="0"/>
        <pt x="1026" y="151" on="0"/>
        <pt x="1046" y="120" on="0"/>
        <pt x="1078" y="100" on="0"/>
        <pt x="1102" y="100" on="1"/>
        <pt x="1136" y="100" on="0"/>
        <pt x="1197" y="140" on="0"/>
        <pt x="1217" y="166" on="1"/>
      </contour>
    </TTGlyph>
    <TTGlyph name="Uring" xMin="168" yMin="-20" xMax="1249" yMax="1891">
      <component glyphName="U" x="0" y="0" flags="0x204"/>
      <component glyphName="ring" x="439" y="-3" flags="0x4"/>
    </TTGlyph>
    <TTGlyph name="Utilde" xMin="168" yMin="-20" xMax="1249" yMax="1768">
      <component glyphName="U" x="0" y="0" flags="0x204"/>
      <component glyphName="tilde" x="407" y="1" flags="0x4"/>
    </TTGlyph>
    <TTGlyph name="V" xMin="12" yMin="-55" xMax="1139" yMax="1585">
      <contour>
        <pt x="600" y="-55" on="1"/>
        <pt x="12" y="1343" on="1"/>
        <pt x="217" y="1434" on="1"/>
        <pt x="670" y="276" on="1"/>
        <pt x="717" y="376" on="0"/>
        <pt x="762" y="472" on="1"/>
        <pt x="781" y="512" on="0"/>
        <pt x="822" y="600" on="0"/>
        <pt x="861" y="684" on="0"/>
        <pt x="898" y="762" on="0"/>
        <pt x="913" y="793" on="1"/>
        <pt x="942" y="854" on="0"/>
        <pt x="987" y="979" on="0"/>
        <pt x="987" y="1049" on="1"/>
        <pt x="987" y="1103" on="0"/>
        <pt x="957" y="1199" on="0"/>
        <pt x="904" y="1286" on="0"/>
        <pt x="830" y="1363" on="0"/>
        <pt x="786" y="1397" on="1"/>
        <pt x="954" y="1585" on="1"/>
        <pt x="996" y="1558" on="0"/>
        <pt x="1064" y="1478" on="0"/>
        <pt x="1112" y="1386" on="0"/>
        <pt x="1139" y="1288" on="0"/>
        <pt x="1139" y="1243" on="1"/>
        <pt x="1139" y="1155" on="0"/>
        <pt x="1082" y="988" on="0"/>
        <pt x="1044" y="909" on="1"/>
        <pt x="1015" y="850" on="0"/>
        <pt x="947" y="704" on="0"/>
        <pt x="874" y="547" on="0"/>
        <pt x="799" y="385" on="0"/>
        <pt x="765" y="309" on="1"/>
        <pt x="684" y="131" on="0"/>
      </contour>
    </TTGlyph>
    <TTGlyph name="W" xMin="18" yMin="-35" xMax="1530" yMax="1585">
      <contour>
        <pt x="526" y="-35" on="1"/>
        <pt x="18" y="1343" on="1"/>
        <pt x="221" y="1434" on="1"/>
        <pt x="598" y="350" on="1"/>
        <pt x="741" y="739" on="1"/>
        <pt x="553" y="1249" on="1"/>
        <pt x="756" y="1337" on="1"/>
        <pt x="1108" y="299" on="1"/>
        <pt x="1164" y="423" on="0"/>
        <pt x="1273" y="668" on="0"/>
        <pt x="1327" y="793" on="1"/>
        <pt x="1353" y="854" on="0"/>
        <pt x="1393" y="979" on="0"/>
        <pt x="1393" y="1049" on="1"/>
        <pt x="1393" y="1103" on="0"/>
        <pt x="1366" y="1199" on="0"/>
        <pt x="1318" y="1286" on="0"/>
        <pt x="1251" y="1363" on="0"/>
        <pt x="1212" y="1397" on="1"/>
        <pt x="1364" y="1585" on="1"/>
        <pt x="1401" y="1558" on="0"/>
        <pt x="1462" y="1478" on="0"/>
        <pt x="1506" y="1386" on="0"/>
        <pt x="1530" y="1288" on="0"/>
        <pt x="1530" y="1243" on="1"/>
        <pt x="1530" y="1155" on="0"/>
        <pt x="1478" y="990" on="0"/>
        <pt x="1444" y="909" on="1"/>
        <pt x="1341" y="671" on="0"/>
        <pt x="1133" y="203" on="0"/>
        <pt x="1028" y="-35" on="1"/>
        <pt x="772" y="657" on="1"/>
      </contour>
    </TTGlyph>
    <TTGlyph name="Wacute" xMin="18" yMin="-35" xMax="1530" yMax="1723">
      <component glyphName="W" x="0" y="0" flags="0x204"/>
      <component glyphName="acute" x="706" y="-98" flags="0x4"/>
    </TTGlyph>
    <TTGlyph name="Wcircumflex" xMin="18" yMin="-35" xMax="1530" yMax="1813">
      <component glyphName="W" x="0" y="0" flags="0x204"/>
      <component glyphName="circumflex" x="513" y="-51" flags="0x4"/>
    </TTGlyph>
    <TTGlyph name="Wdieresis" xMin="18" yMin="-35" xMax="1530" yMax="1593">
      <component glyphName="W" x="0" y="0" flags="0x204"/>
      <component glyphName="dieresis" x="554" y="-99" flags="0x4"/>
    </TTGlyph>
    <TTGlyph name="Wgrave" xMin="18" yMin="-35" xMax="1530" yMax="1734">
      <component glyphName="W" x="0" y="0" flags="0x204"/>
      <component glyphName="grave" x="374" y="-93" flags="0x4"/>
    </TTGlyph>
    <TTGlyph name="X" xMin="37" yMin="-51" xMax="1108" yMax="1439">
      <contour>
        <pt x="53" y="1305" on="1"/>
        <pt x="225" y="1423" on="1"/>
        <pt x="1106" y="92" on="1"/>
        <pt x="934" y="-37" on="1"/>
      </contour>
      <contour>
        <pt x="37" y="-51" on="1"/>
        <pt x="90" y="195" on="1"/>
        <pt x="96" y="193" on="0"/>
        <pt x="111" y="190" on="0"/>
        <pt x="119" y="190" on="1"/>
        <pt x="171" y="190" on="0"/>
        <pt x="268" y="262" on="0"/>
        <pt x="350" y="366" on="0"/>
        <pt x="412" y="480" on="0"/>
        <pt x="430" y="522" on="1"/>
        <pt x="467" y="613" on="0"/>
        <pt x="544" y="794" on="0"/>
        <pt x="586" y="885" on="1"/>
        <pt x="609" y="934" on="0"/>
        <pt x="666" y="1055" on="0"/>
        <pt x="736" y="1179" on="0"/>
        <pt x="819" y="1295" on="0"/>
        <pt x="917" y="1385" on="0"/>
        <pt x="1030" y="1439" on="0"/>
        <pt x="1096" y="1438" on="1"/>
        <pt x="1108" y="1438" on="1"/>
        <pt x="1049" y="1188" on="1"/>
        <pt x="1032" y="1194" on="0"/>
        <pt x="998" y="1198" on="0"/>
        <pt x="979" y="1198" on="1"/>
        <pt x="943" y="1198" on="0"/>
        <pt x="874" y="1174" on="0"/>
        <pt x="813" y="1133" on="0"/>
        <pt x="762" y="1078" on="0"/>
        <pt x="745" y="1047" on="1"/>
        <pt x="707" y="971" on="0"/>
        <pt x="637" y="816" on="0"/>
        <pt x="602" y="737" on="1"/>
        <pt x="546" y="612" on="0"/>
        <pt x="436" y="368" on="0"/>
        <pt x="377" y="244" on="1"/>
        <pt x="356" y="201" on="0"/>
        <pt x="289" y="98" on="0"/>
        <pt x="204" y="9" on="0"/>
        <pt x="104" y="-51" on="0"/>
        <pt x="51" y="-51" on="1"/>
      </contour>
    </TTGlyph>
    <TTGlyph name="Y" xMin="-8" yMin="-449" xMax="1073" yMax="1448">
      <contour>
        <pt x="1073" y="53" on="1"/>
        <pt x="1073" y="-28" on="0"/>
        <pt x="1032" y="-164" on="0"/>
        <pt x="955" y="-278" on="0"/>
        <pt x="843" y="-371" on="0"/>
        <pt x="772" y="-410" on="1"/>
        <pt x="754" y="-420" on="0"/>
        <pt x="707" y="-434" on="0"/>
        <pt x="657" y="-444" on="0"/>
        <pt x="609" y="-449" on="0"/>
        <pt x="588" y="-449" on="1"/>
        <pt x="507" y="-449" on="0"/>
        <pt x="363" y="-391" on="0"/>
        <pt x="301" y="-338" on="1"/>
        <pt x="469" y="-190" on="1"/>
        <pt x="484" y="-220" on="0"/>
        <pt x="536" y="-285" on="0"/>
        <pt x="602" y="-338" on="0"/>
        <pt x="675" y="-373" on="0"/>
        <pt x="711" y="-373" on="1"/>
        <pt x="736" y="-373" on="0"/>
        <pt x="756" y="-365" on="1"/>
        <pt x="793" y="-350" on="0"/>
        <pt x="837" y="-299" on="0"/>
        <pt x="860" y="-234" on="0"/>
        <pt x="866" y="-162" on="0"/>
        <pt x="866" y="-127" on="1"/>
        <pt x="866" y="362" on="1"/>
        <pt x="846" y="288" on="0"/>
        <pt x="780" y="153" on="0"/>
        <pt x="682" y="50" on="0"/>
        <pt x="551" y="-12" on="0"/>
        <pt x="467" y="-12" on="1"/>
        <pt x="403" y="-12" on="0"/>
        <pt x="311" y="36" on="0"/>
        <pt x="251" y="116" on="0"/>
        <pt x="223" y="221" on="0"/>
        <pt x="223" y="279" on="1"/>
        <pt x="223" y="1206" on="1"/>
        <pt x="223" y="1226" on="0"/>
        <pt x="215" y="1266" on="0"/>
        <pt x="196" y="1297" on="0"/>
        <pt x="164" y="1317" on="0"/>
        <pt x="141" y="1317" on="1"/>
        <pt x="107" y="1317" on="0"/>
        <pt x="45" y="1277" on="0"/>
        <pt x="25" y="1251" on="1"/>
        <pt x="-8" y="1280" on="1"/>
        <pt x="7" y="1309" on="0"/>
        <pt x="52" y="1363" on="0"/>
        <pt x="109" y="1405" on="0"/>
        <pt x="173" y="1430" on="0"/>
        <pt x="207" y="1430" on="1"/>
        <pt x="262" y="1430" on="0"/>
        <pt x="346" y="1388" on="0"/>
        <pt x="402" y="1317" on="0"/>
        <pt x="430" y="1225" on="0"/>
        <pt x="430" y="1174" on="1"/>
        <pt x="430" y="354" on="1"/>
        <pt x="430" y="317" on="0"/>
        <pt x="432" y="229" on="0"/>
        <pt x="454" y="152" on="0"/>
        <pt x="508" y="100" on="0"/>
        <pt x="559" y="100" on="1"/>
        <pt x="616" y="100" on="0"/>
        <pt x="705" y="168" on="0"/>
        <pt x="774" y="277" on="0"/>
        <pt x="822" y="415" on="0"/>
        <pt x="852" y="553" on="0"/>
        <pt x="866" y="678" on="0"/>
        <pt x="866" y="721" on="1"/>
        <pt x="866" y="1374" on="1"/>
        <pt x="1073" y="1448" on="1"/>
      </contour>
    </TTGlyph>
    <TTGlyph name="Yacute" xMin="-8" yMin="-449" xMax="1073" yMax="1793">
      <component glyphName="Y" x="0" y="0" flags="0x204"/>
      <component glyphName="acute" x="614" y="-28" flags="0x4"/>
    </TTGlyph>
    <TTGlyph name="Ycircumflex" xMin="-8" yMin="-449" xMax="1073" yMax="1851">
      <component glyphName="Y" x="0" y="0" flags="0x204"/>
      <component glyphName="circumflex" x="349" y="-13" flags="0x4"/>
    </TTGlyph>
    <TTGlyph name="Ydieresis" xMin="-8" yMin="-449" xMax="1073" yMax="1691">
      <component glyphName="Y" x="0" y="0" flags="0x204"/>
      <component glyphName="dieresis" x="362" y="-1" flags="0x4"/>
    </TTGlyph>
    <TTGlyph name="Ygrave" xMin="-8" yMin="-449" xMax="1073" yMax="1774">
      <component glyphName="Y" x="0" y="0" flags="0x204"/>
      <component glyphName="grave" x="277" y="-53" flags="0x4"/>
    </TTGlyph>
    <TTGlyph name="Z" xMin="51" yMin="-41" xMax="1116" yMax="1485">
      <contour>
        <pt x="1116" y="1452" on="1"/>
        <pt x="1031" y="1325" on="0"/>
        <pt x="880" y="1100" on="0"/>
        <pt x="737" y="888" on="0"/>
        <pt x="597" y="682" on="0"/>
        <pt x="450" y="471" on="0"/>
        <pt x="293" y="246" on="0"/>
        <pt x="203" y="121" on="1"/>
        <pt x="235" y="144" on="0"/>
        <pt x="294" y="184" on="0"/>
        <pt x="355" y="214" on="0"/>
        <pt x="423" y="231" on="0"/>
        <pt x="465" y="231" on="1"/>
        <pt x="513" y="231" on="0"/>
        <pt x="610" y="214" on="0"/>
        <pt x="706" y="195" on="0"/>
        <pt x="803" y="178" on="0"/>
        <pt x="852" y="178" on="1"/>
        <pt x="886" y="178" on="0"/>
        <pt x="951" y="200" on="0"/>
        <pt x="1010" y="236" on="0"/>
        <pt x="1060" y="283" on="0"/>
        <pt x="1081" y="309" on="1"/>
        <pt x="1116" y="283" on="1"/>
        <pt x="918" y="-41" on="1"/>
        <pt x="783" y="-18" on="0"/>
        <pt x="520" y="25" on="0"/>
        <pt x="387" y="45" on="1"/>
        <pt x="361" y="50" on="0"/>
        <pt x="311" y="55" on="0"/>
        <pt x="285" y="55" on="1"/>
        <pt x="229" y="55" on="0"/>
        <pt x="128" y="26" on="0"/>
        <pt x="82" y="-6" on="1"/>
        <pt x="51" y="27" on="1"/>
        <pt x="265" y="331" on="0"/>
        <pt x="669" y="922" on="0"/>
        <pt x="872" y="1225" on="1"/>
        <pt x="657" y="1225" on="1"/>
        <pt x="619" y="1225" on="0"/>
        <pt x="502" y="1226" on="0"/>
        <pt x="377" y="1222" on="0"/>
        <pt x="263" y="1209" on="0"/>
        <pt x="227" y="1194" on="1"/>
        <pt x="208" y="1186" on="0"/>
        <pt x="168" y="1162" on="0"/>
        <pt x="132" y="1132" on="0"/>
        <pt x="100" y="1099" on="0"/>
        <pt x="88" y="1083" on="1"/>
        <pt x="51" y="1110" on="1"/>
        <pt x="252" y="1434" on="1"/>
        <pt x="782" y="1434" on="1"/>
        <pt x="821" y="1434" on="0"/>
        <pt x="900" y="1432" on="0"/>
        <pt x="978" y="1440" on="0"/>
        <pt x="1052" y="1462" on="0"/>
        <pt x="1085" y="1485" on="1"/>
      </contour>
    </TTGlyph>
    <TTGlyph name="Zacute" xMin="51" yMin="-41" xMax="1116" yMax="1812">
      <component glyphName="Z" x="0" y="0" flags="0x204"/>
      <component glyphName="acute" x="600" y="-9" flags="0x4"/>
    </TTGlyph>
    <TTGlyph name="Zcaron" xMin="51" yMin="-41" xMax="1116" yMax="1870">
      <component glyphName="Z" x="0" y="0" flags="0x204"/>
      <component glyphName="caron" x="301" y="6" flags="0x4"/>
    </TTGlyph>
    <TTGlyph name="Zdotaccent" xMin="51" yMin="-41" xMax="1116" yMax="1684">
      <component glyphName="Z" x="0" y="0" flags="0x204"/>
      <component glyphName="dotaccent" x="485" y="-8" flags="0x4"/>
    </TTGlyph>
    <TTGlyph name="a" xMin="63" yMin="-20" xMax="891" yMax="774">
      <contour>
        <pt x="891" y="119" on="1"/>
        <pt x="879" y="93" on="0"/>
        <pt x="843" y="47" on="0"/>
        <pt x="796" y="11" on="0"/>
        <pt x="741" y="-10" on="0"/>
        <pt x="711" y="-10" on="1"/>
        <pt x="632" y="-10" on="0"/>
        <pt x="563" y="77" on="0"/>
        <pt x="563" y="152" on="1"/>
        <pt x="563" y="170" on="1"/>
        <pt x="545" y="136" on="0"/>
        <pt x="500" y="68" on="0"/>
        <pt x="443" y="14" on="0"/>
        <pt x="373" y="-20" on="0"/>
        <pt x="330" y="-20" on="1"/>
        <pt x="265" y="-20" on="0"/>
        <pt x="165" y="30" on="0"/>
        <pt x="97" y="115" on="0"/>
        <pt x="63" y="229" on="0"/>
        <pt x="63" y="293" on="1"/>
        <pt x="63" y="380" on="0"/>
        <pt x="124" y="553" on="0"/>
        <pt x="235" y="689" on="0"/>
        <pt x="390" y="774" on="0"/>
        <pt x="485" y="774" on="1"/>
        <pt x="523" y="774" on="0"/>
        <pt x="599" y="760" on="0"/>
        <pt x="668" y="729" on="0"/>
        <pt x="725" y="679" on="0"/>
        <pt x="743" y="643" on="1"/>
        <pt x="594" y="580" on="1"/>
        <pt x="582" y="599" on="0"/>
        <pt x="551" y="634" on="0"/>
        <pt x="514" y="660" on="0"/>
        <pt x="472" y="676" on="0"/>
        <pt x="449" y="676" on="1"/>
        <pt x="397" y="676" on="0"/>
        <pt x="316" y="612" on="0"/>
        <pt x="259" y="518" on="0"/>
        <pt x="229" y="412" on="0"/>
        <pt x="229" y="369" on="1"/>
        <pt x="229" y="331" on="0"/>
        <pt x="244" y="236" on="0"/>
        <pt x="282" y="152" on="0"/>
        <pt x="344" y="94" on="0"/>
        <pt x="391" y="94" on="1"/>
        <pt x="428" y="94" on="0"/>
        <pt x="482" y="127" on="0"/>
        <pt x="520" y="180" on="0"/>
        <pt x="545" y="249" on="0"/>
        <pt x="558" y="321" on="0"/>
        <pt x="563" y="392" on="0"/>
        <pt x="563" y="420" on="1"/>
        <pt x="563" y="489" on="1"/>
        <pt x="745" y="553" on="1"/>
        <pt x="745" y="147" on="1"/>
        <pt x="745" y="127" on="0"/>
        <pt x="765" y="94" on="0"/>
        <pt x="786" y="94" on="1"/>
        <pt x="811" y="94" on="0"/>
        <pt x="852" y="131" on="0"/>
        <pt x="864" y="150" on="1"/>
      </contour>
    </TTGlyph>
    <TTGlyph name="aacute" xMin="63" yMin="-20" xMax="891" yMax="1152">
      <component glyphName="a" x="0" y="0" flags="0x204"/>
      <component glyphName="acute" x="424" y="-669" flags="0x4"/>
    </TTGlyph>
    <TTGlyph name="abreve" xMin="63" yMin="-20" xMax="891" yMax="1212">
      <component glyphName="a" x="0" y="0" flags="0x204"/>
      <component glyphName="breve" x="234" y="-631" flags="0x4"/>
    </TTGlyph>
    <TTGlyph name="acircumflex" xMin="63" yMin="-20" xMax="891" yMax="1185">
      <component glyphName="a" x="0" y="0" flags="0x204"/>
      <component glyphName="circumflex" x="162" y="-679" flags="0x4"/>
    </TTGlyph>
    <TTGlyph name="acute" xMin="0" yMin="1507" xMax="350" yMax="1821">
      <contour>
        <pt x="25" y="1507" on="1"/>
        <pt x="0" y="1542" on="1"/>
        <pt x="233" y="1821" on="1"/>
        <pt x="350" y="1690" on="1"/>
      </contour>
    </TTGlyph>
    <TTGlyph name="adieresis" xMin="63" yMin="-20" xMax="891" yMax="1011">
      <component glyphName="a" x="0" y="0" flags="0x204"/>
      <component glyphName="dieresis" x="195" y="-681" flags="0x4"/>
    </TTGlyph>
    <TTGlyph name="ae" xMin="61" yMin="-20" xMax="1323" yMax="788">
      <contour>
        <pt x="1079" y="575" on="1"/>
        <pt x="1079" y="598" on="0"/>
        <pt x="1064" y="640" on="0"/>
        <pt x="1037" y="671" on="0"/>
        <pt x="997" y="690" on="0"/>
        <pt x="973" y="690" on="1"/>
        <pt x="928" y="690" on="0"/>
        <pt x="852" y="626" on="0"/>
        <pt x="797" y="534" on="0"/>
        <pt x="766" y="432" on="0"/>
        <pt x="766" y="393" on="1"/>
        <pt x="766" y="351" on="0"/>
        <pt x="791" y="272" on="0"/>
        <pt x="811" y="238" on="1"/>
        <pt x="848" y="259" on="0"/>
        <pt x="942" y="335" on="0"/>
        <pt x="1023" y="428" on="0"/>
        <pt x="1079" y="529" on="0"/>
      </contour>
      <contour>
        <pt x="629" y="567" on="1"/>
        <pt x="709" y="608" on="1"/>
        <pt x="733" y="647" on="0"/>
        <pt x="800" y="713" on="0"/>
        <pt x="887" y="761" on="0"/>
        <pt x="994" y="788" on="0"/>
        <pt x="1059" y="788" on="1"/>
        <pt x="1100" y="788" on="0"/>
        <pt x="1176" y="767" on="0"/>
        <pt x="1234" y="724" on="0"/>
        <pt x="1268" y="657" on="0"/>
        <pt x="1268" y="612" on="1"/>
        <pt x="1268" y="574" on="0"/>
        <pt x="1223" y="490" on="0"/>
        <pt x="1150" y="406" on="0"/>
        <pt x="1057" y="325" on="0"/>
        <pt x="963" y="256" on="0"/>
        <pt x="876" y="204" on="0"/>
        <pt x="844" y="190" on="1"/>
        <pt x="878" y="147" on="0"/>
        <pt x="975" y="86" on="0"/>
        <pt x="1032" y="86" on="1"/>
        <pt x="1067" y="86" on="0"/>
        <pt x="1139" y="113" on="0"/>
        <pt x="1206" y="154" on="0"/>
        <pt x="1266" y="204" on="0"/>
        <pt x="1290" y="227" on="1"/>
        <pt x="1323" y="195" on="1"/>
        <pt x="1288" y="150" on="0"/>
        <pt x="1203" y="72" on="0"/>
        <pt x="1106" y="14" on="0"/>
        <pt x="998" y="-20" on="0"/>
        <pt x="940" y="-20" on="1"/>
        <pt x="883" y="-20" on="0"/>
        <pt x="780" y="15" on="0"/>
        <pt x="696" y="78" on="0"/>
        <pt x="633" y="167" on="0"/>
        <pt x="616" y="221" on="1"/>
        <pt x="601" y="179" on="0"/>
        <pt x="544" y="93" on="0"/>
        <pt x="470" y="24" on="0"/>
        <pt x="380" y="-20" on="0"/>
        <pt x="332" y="-20" on="1"/>
        <pt x="275" y="-20" on="0"/>
        <pt x="176" y="20" on="0"/>
        <pt x="103" y="89" on="0"/>
        <pt x="61" y="184" on="0"/>
        <pt x="61" y="240" on="1"/>
        <pt x="61" y="356" on="0"/>
        <pt x="140" y="555" on="0"/>
        <pt x="275" y="701" on="0"/>
        <pt x="451" y="784" on="0"/>
        <pt x="549" y="784" on="1"/>
        <pt x="605" y="784" on="0"/>
        <pt x="698" y="751" on="0"/>
        <pt x="741" y="713" on="1"/>
        <pt x="623" y="627" on="1"/>
        <pt x="616" y="653" on="0"/>
        <pt x="601" y="673" on="1"/>
        <pt x="588" y="690" on="0"/>
        <pt x="543" y="719" on="0"/>
        <pt x="508" y="717" on="1"/>
        <pt x="444" y="714" on="0"/>
        <pt x="348" y="629" on="0"/>
        <pt x="283" y="507" on="0"/>
        <pt x="250" y="368" on="0"/>
        <pt x="250" y="311" on="1"/>
        <pt x="250" y="282" on="0"/>
        <pt x="261" y="206" on="0"/>
        <pt x="289" y="138" on="0"/>
        <pt x="340" y="92" on="0"/>
        <pt x="379" y="92" on="1"/>
        <pt x="416" y="92" on="0"/>
        <pt x="493" y="138" on="0"/>
        <pt x="557" y="207" on="0"/>
        <pt x="599" y="290" on="0"/>
        <pt x="602" y="326" on="1"/>
        <pt x="605" y="353" on="0"/>
        <pt x="614" y="397" on="0"/>
        <pt x="623" y="449" on="0"/>
        <pt x="629" y="517" on="0"/>
      </contour>
    </TTGlyph>
    <TTGlyph name="aeacute" xMin="61" yMin="-20" xMax="1323" yMax="1167">
      <component glyphName="ae" x="0" y="0" flags="0x204"/>
      <component glyphName="acute" x="719" y="-654" flags="0x4"/>
    </TTGlyph>
    <TTGlyph name="agrave" xMin="63" yMin="-20" xMax="891" yMax="1164">
      <component glyphName="a" x="0" y="0" flags="0x204"/>
      <component glyphName="grave" x="109" y="-663" flags="0x4"/>
    </TTGlyph>
    <TTGlyph name="amacron" xMin="63" yMin="-20" xMax="891" yMax="994">
      <component glyphName="a" x="0" y="0" flags="0x204"/>
      <component glyphName="macron" x="205" y="-681" flags="0x4"/>
    </TTGlyph>
    <TTGlyph name="ampersand" xMin="90" yMin="-37" xMax="883" yMax="1135">
      <contour>
        <pt x="629" y="133" on="1"/>
        <pt x="422" y="602" on="1"/>
        <pt x="393" y="580" on="0"/>
        <pt x="334" y="524" on="0"/>
        <pt x="285" y="455" on="0"/>
        <pt x="254" y="372" on="0"/>
        <pt x="254" y="322" on="1"/>
        <pt x="254" y="267" on="0"/>
        <pt x="298" y="179" on="0"/>
        <pt x="372" y="119" on="0"/>
        <pt x="469" y="91" on="0"/>
        <pt x="522" y="96" on="1"/>
        <pt x="553" y="99" on="0"/>
        <pt x="603" y="122" on="0"/>
      </contour>
      <contour>
        <pt x="514" y="817" on="1"/>
        <pt x="526" y="829" on="0"/>
        <pt x="564" y="870" on="0"/>
        <pt x="598" y="916" on="0"/>
        <pt x="623" y="963" on="0"/>
        <pt x="623" y="981" on="1"/>
        <pt x="623" y="995" on="0"/>
        <pt x="612" y="1023" on="0"/>
        <pt x="593" y="1046" on="0"/>
        <pt x="568" y="1061" on="0"/>
        <pt x="553" y="1061" on="1"/>
        <pt x="532" y="1061" on="0"/>
        <pt x="503" y="1040" on="0"/>
        <pt x="485" y="1007" on="0"/>
        <pt x="477" y="968" on="0"/>
        <pt x="477" y="950" on="1"/>
        <pt x="477" y="916" on="0"/>
        <pt x="499" y="848" on="0"/>
      </contour>
      <contour>
        <pt x="883" y="303" on="1"/>
        <pt x="869" y="269" on="0"/>
        <pt x="835" y="205" on="0"/>
        <pt x="813" y="176" on="1"/>
        <pt x="870" y="49" on="1"/>
        <pt x="713" y="-37" on="1"/>
        <pt x="674" y="51" on="1"/>
        <pt x="651" y="36" on="0"/>
        <pt x="596" y="10" on="0"/>
        <pt x="539" y="-11" on="0"/>
        <pt x="480" y="-23" on="0"/>
        <pt x="453" y="-23" on="1"/>
        <pt x="378" y="-23" on="0"/>
        <pt x="246" y="14" on="0"/>
        <pt x="147" y="88" on="0"/>
        <pt x="90" y="200" on="0"/>
        <pt x="90" y="276" on="1"/>
        <pt x="90" y="354" on="0"/>
        <pt x="143" y="479" on="0"/>
        <pt x="227" y="579" on="0"/>
        <pt x="330" y="658" on="0"/>
        <pt x="379" y="690" on="1"/>
        <pt x="354" y="738" on="0"/>
        <pt x="324" y="838" on="0"/>
        <pt x="324" y="891" on="1"/>
        <pt x="324" y="939" on="0"/>
        <pt x="350" y="1027" on="0"/>
        <pt x="403" y="1094" on="0"/>
        <pt x="481" y="1135" on="0"/>
        <pt x="532" y="1135" on="1"/>
        <pt x="568" y="1135" on="0"/>
        <pt x="627" y="1107" on="0"/>
        <pt x="669" y="1059" on="0"/>
        <pt x="692" y="996" on="0"/>
        <pt x="692" y="961" on="1"/>
        <pt x="692" y="925" on="0"/>
        <pt x="668" y="862" on="0"/>
        <pt x="630" y="805" on="0"/>
        <pt x="582" y="754" on="0"/>
        <pt x="559" y="729" on="1"/>
        <pt x="617" y="591" on="0"/>
        <pt x="664" y="484" on="1"/>
        <pt x="684" y="438" on="0"/>
        <pt x="723" y="350" on="0"/>
        <pt x="754" y="281" on="0"/>
        <pt x="774" y="240" on="0"/>
        <pt x="776" y="240" on="1"/>
        <pt x="814" y="279" on="0"/>
        <pt x="836" y="328" on="1"/>
      </contour>
    </TTGlyph>
    <TTGlyph name="aogonek" xMin="63" yMin="-225" xMax="891" yMax="774">
      <contour>
        <pt x="891" y="119" on="1"/>
        <pt x="869" y="71" on="0"/>
        <pt x="782" y="-3" on="0"/>
        <pt x="727" y="-9" on="1"/>
        <pt x="710" y="-38" on="0"/>
        <pt x="703" y="-81" on="0"/>
        <pt x="706" y="-95" on="1"/>
        <pt x="710" y="-112" on="0"/>
        <pt x="719" y="-124" on="1"/>
        <pt x="735" y="-140" on="0"/>
        <pt x="753" y="-144" on="1"/>
        <pt x="768" y="-148" on="0"/>
        <pt x="808" y="-137" on="0"/>
        <pt x="829" y="-110" on="1"/>
        <pt x="852" y="-129" on="1"/>
        <pt x="832" y="-160" on="0"/>
        <pt x="793" y="-195" on="0"/>
        <pt x="778" y="-205" on="1"/>
        <pt x="760" y="-216" on="0"/>
        <pt x="744" y="-221" on="1"/>
        <pt x="722" y="-225" on="0"/>
        <pt x="670" y="-212" on="0"/>
        <pt x="629" y="-176" on="0"/>
        <pt x="613" y="-115" on="0"/>
        <pt x="627" y="-71" on="1"/>
        <pt x="630" y="-63" on="0"/>
        <pt x="636" y="-52" on="1"/>
        <pt x="646" y="-32" on="0"/>
        <pt x="669" y="-6" on="1"/>
        <pt x="612" y="5" on="0"/>
        <pt x="563" y="88" on="0"/>
        <pt x="563" y="152" on="1"/>
        <pt x="563" y="170" on="1"/>
        <pt x="545" y="136" on="0"/>
        <pt x="500" y="68" on="0"/>
        <pt x="443" y="14" on="0"/>
        <pt x="373" y="-20" on="0"/>
        <pt x="330" y="-20" on="1"/>
        <pt x="265" y="-20" on="0"/>
        <pt x="165" y="30" on="0"/>
        <pt x="97" y="115" on="0"/>
        <pt x="63" y="229" on="0"/>
        <pt x="63" y="293" on="1"/>
        <pt x="63" y="380" on="0"/>
        <pt x="124" y="553" on="0"/>
        <pt x="235" y="689" on="0"/>
        <pt x="390" y="774" on="0"/>
        <pt x="485" y="774" on="1"/>
        <pt x="523" y="774" on="0"/>
        <pt x="599" y="760" on="0"/>
        <pt x="668" y="729" on="0"/>
        <pt x="725" y="679" on="0"/>
        <pt x="743" y="643" on="1"/>
        <pt x="594" y="580" on="1"/>
        <pt x="582" y="599" on="0"/>
        <pt x="551" y="634" on="0"/>
        <pt x="514" y="660" on="0"/>
        <pt x="472" y="676" on="0"/>
        <pt x="449" y="676" on="1"/>
        <pt x="397" y="676" on="0"/>
        <pt x="316" y="612" on="0"/>
        <pt x="259" y="518" on="0"/>
        <pt x="229" y="412" on="0"/>
        <pt x="229" y="369" on="1"/>
        <pt x="229" y="331" on="0"/>
        <pt x="244" y="236" on="0"/>
        <pt x="282" y="152" on="0"/>
        <pt x="344" y="94" on="0"/>
        <pt x="391" y="94" on="1"/>
        <pt x="428" y="94" on="0"/>
        <pt x="482" y="127" on="0"/>
        <pt x="520" y="180" on="0"/>
        <pt x="545" y="249" on="0"/>
        <pt x="558" y="321" on="0"/>
        <pt x="563" y="392" on="0"/>
        <pt x="563" y="420" on="1"/>
        <pt x="563" y="489" on="1"/>
        <pt x="745" y="553" on="1"/>
        <pt x="745" y="147" on="1"/>
        <pt x="745" y="127" on="0"/>
        <pt x="765" y="94" on="0"/>
        <pt x="786" y="94" on="1"/>
        <pt x="811" y="94" on="0"/>
        <pt x="852" y="131" on="0"/>
        <pt x="864" y="150" on="1"/>
      </contour>
    </TTGlyph>
    <TTGlyph name="approxequal" xMin="134" yMin="467" xMax="641" yMax="1051">
      <contour>
        <pt x="627" y="567" on="1"/>
        <pt x="611" y="532" on="0"/>
        <pt x="563" y="490" on="0"/>
        <pt x="506" y="473" on="0"/>
        <pt x="445" y="481" on="0"/>
        <pt x="416" y="498" on="1"/>
        <pt x="387" y="516" on="0"/>
        <pt x="339" y="558" on="0"/>
        <pt x="298" y="590" on="0"/>
        <pt x="260" y="605" on="0"/>
        <pt x="240" y="596" on="1"/>
        <pt x="223" y="586" on="0"/>
        <pt x="215" y="571" on="1"/>
        <pt x="208" y="558" on="0"/>
        <pt x="209" y="517" on="0"/>
        <pt x="229" y="487" on="1"/>
        <pt x="186" y="467" on="1"/>
        <pt x="162" y="490" on="0"/>
        <pt x="141" y="536" on="0"/>
        <pt x="138" y="556" on="1"/>
        <pt x="134" y="579" on="0"/>
        <pt x="137" y="600" on="1"/>
        <pt x="148" y="654" on="0"/>
        <pt x="216" y="724" on="0"/>
        <pt x="285" y="727" on="1"/>
        <pt x="319" y="728" on="0"/>
        <pt x="376" y="705" on="0"/>
        <pt x="423" y="672" on="0"/>
        <pt x="461" y="637" on="0"/>
        <pt x="477" y="627" on="1"/>
        <pt x="494" y="616" on="0"/>
        <pt x="533" y="618" on="0"/>
        <pt x="560" y="643" on="0"/>
        <pt x="568" y="691" on="0"/>
        <pt x="553" y="727" on="1"/>
        <pt x="598" y="743" on="1"/>
        <pt x="625" y="711" on="0"/>
        <pt x="641" y="648" on="0"/>
        <pt x="639" y="623" on="1"/>
        <pt x="637" y="593" on="0"/>
      </contour>
      <contour>
        <pt x="627" y="874" on="1"/>
        <pt x="611" y="839" on="0"/>
        <pt x="563" y="797" on="0"/>
        <pt x="506" y="780" on="0"/>
        <pt x="445" y="788" on="0"/>
        <pt x="416" y="805" on="1"/>
        <pt x="387" y="823" on="0"/>
        <pt x="339" y="865" on="0"/>
        <pt x="298" y="897" on="0"/>
        <pt x="260" y="912" on="0"/>
        <pt x="240" y="903" on="1"/>
        <pt x="223" y="894" on="0"/>
        <pt x="215" y="879" on="1"/>
        <pt x="208" y="866" on="0"/>
        <pt x="209" y="824" on="0"/>
        <pt x="229" y="795" on="1"/>
        <pt x="186" y="774" on="1"/>
        <pt x="162" y="797" on="0"/>
        <pt x="141" y="844" on="0"/>
        <pt x="138" y="864" on="1"/>
        <pt x="134" y="886" on="0"/>
        <pt x="137" y="907" on="1"/>
        <pt x="148" y="961" on="0"/>
        <pt x="216" y="1031" on="0"/>
        <pt x="285" y="1034" on="1"/>
        <pt x="319" y="1035" on="0"/>
        <pt x="376" y="1012" on="0"/>
        <pt x="423" y="979" on="0"/>
        <pt x="461" y="944" on="0"/>
        <pt x="477" y="934" on="1"/>
        <pt x="494" y="923" on="0"/>
        <pt x="533" y="925" on="0"/>
        <pt x="560" y="950" on="0"/>
        <pt x="568" y="998" on="0"/>
        <pt x="553" y="1034" on="1"/>
        <pt x="598" y="1051" on="1"/>
        <pt x="625" y="1019" on="0"/>
        <pt x="641" y="957" on="0"/>
        <pt x="639" y="931" on="1"/>
        <pt x="637" y="901" on="0"/>
      </contour>
    </TTGlyph>
    <TTGlyph name="aring" xMin="63" yMin="-20" xMax="891" yMax="1227">
      <component glyphName="a" x="0" y="0" flags="0x204"/>
      <component glyphName="ring" x="233" y="-667" flags="0x4"/>
    </TTGlyph>
    <TTGlyph name="asciicircum" xMin="0" yMin="770" xMax="565" yMax="1249">
      <contour>
        <pt x="51" y="795" on="1"/>
        <pt x="0" y="836" on="1"/>
        <pt x="279" y="1249" on="1"/>
        <pt x="565" y="877" on="1"/>
        <pt x="465" y="770" on="1"/>
        <pt x="238" y="1077" on="1"/>
      </contour>
    </TTGlyph>
    <TTGlyph name="asciitilde" xMin="101" yMin="610" xMax="608" yMax="887">
      <contour>
        <pt x="594" y="711" on="1"/>
        <pt x="578" y="676" on="0"/>
        <pt x="530" y="633" on="0"/>
        <pt x="473" y="616" on="0"/>
        <pt x="412" y="624" on="0"/>
        <pt x="383" y="641" on="1"/>
        <pt x="354" y="659" on="0"/>
        <pt x="306" y="701" on="0"/>
        <pt x="265" y="733" on="0"/>
        <pt x="227" y="748" on="0"/>
        <pt x="207" y="739" on="1"/>
        <pt x="190" y="730" on="0"/>
        <pt x="182" y="715" on="1"/>
        <pt x="175" y="702" on="0"/>
        <pt x="177" y="661" on="0"/>
        <pt x="197" y="631" on="1"/>
        <pt x="154" y="610" on="1"/>
        <pt x="130" y="633" on="0"/>
        <pt x="108" y="680" on="0"/>
        <pt x="105" y="700" on="1"/>
        <pt x="101" y="722" on="0"/>
        <pt x="104" y="743" on="1"/>
        <pt x="115" y="797" on="0"/>
        <pt x="183" y="867" on="0"/>
        <pt x="252" y="870" on="1"/>
        <pt x="286" y="871" on="0"/>
        <pt x="343" y="848" on="0"/>
        <pt x="390" y="815" on="0"/>
        <pt x="428" y="780" on="0"/>
        <pt x="444" y="770" on="1"/>
        <pt x="461" y="759" on="0"/>
        <pt x="500" y="761" on="0"/>
        <pt x="527" y="786" on="0"/>
        <pt x="535" y="834" on="0"/>
        <pt x="520" y="870" on="1"/>
        <pt x="565" y="887" on="1"/>
        <pt x="592" y="855" on="0"/>
        <pt x="608" y="792" on="0"/>
        <pt x="606" y="767" on="1"/>
        <pt x="604" y="737" on="0"/>
      </contour>
    </TTGlyph>
    <TTGlyph name="asterisk" xMin="98" yMin="768" xMax="705" yMax="1434">
      <contour>
        <pt x="305" y="768" on="1"/>
        <pt x="342" y="981" on="1"/>
        <pt x="203" y="838" on="1"/>
        <pt x="98" y="965" on="1"/>
        <pt x="305" y="1094" on="1"/>
        <pt x="98" y="1225" on="1"/>
        <pt x="203" y="1352" on="1"/>
        <pt x="348" y="1190" on="1"/>
        <pt x="305" y="1434" on="1"/>
        <pt x="483" y="1434" on="1"/>
        <pt x="442" y="1176" on="1"/>
        <pt x="600" y="1352" on="1"/>
        <pt x="705" y="1225" on="1"/>
        <pt x="498" y="1094" on="1"/>
        <pt x="705" y="965" on="1"/>
        <pt x="600" y="838" on="1"/>
        <pt x="440" y="1004" on="1"/>
        <pt x="483" y="768" on="1"/>
      </contour>
    </TTGlyph>
    <TTGlyph name="at" xMin="86" yMin="-139" xMax="1192" yMax="903">
      <contour>
        <pt x="1192" y="461" on="1"/>
        <pt x="1192" y="428" on="0"/>
        <pt x="1177" y="346" on="0"/>
        <pt x="1147" y="260" on="0"/>
        <pt x="1104" y="179" on="0"/>
        <pt x="1048" y="115" on="0"/>
        <pt x="980" y="76" on="0"/>
        <pt x="940" y="76" on="1"/>
        <pt x="906" y="76" on="0"/>
        <pt x="860" y="96" on="0"/>
        <pt x="831" y="133" on="0"/>
        <pt x="819" y="184" on="0"/>
        <pt x="819" y="215" on="1"/>
        <pt x="791" y="158" on="0"/>
        <pt x="701" y="86" on="0"/>
        <pt x="633" y="86" on="1"/>
        <pt x="581" y="86" on="0"/>
        <pt x="502" y="120" on="0"/>
        <pt x="449" y="180" on="0"/>
        <pt x="422" y="263" on="0"/>
        <pt x="422" y="313" on="1"/>
        <pt x="422" y="383" on="0"/>
        <pt x="470" y="521" on="0"/>
        <pt x="559" y="630" on="0"/>
        <pt x="683" y="698" on="0"/>
        <pt x="758" y="698" on="1"/>
        <pt x="788" y="698" on="0"/>
        <pt x="849" y="687" on="0"/>
        <pt x="905" y="662" on="0"/>
        <pt x="950" y="622" on="0"/>
        <pt x="965" y="594" on="1"/>
        <pt x="846" y="543" on="1"/>
        <pt x="827" y="574" on="0"/>
        <pt x="766" y="621" on="0"/>
        <pt x="729" y="621" on="1"/>
        <pt x="687" y="621" on="0"/>
        <pt x="623" y="569" on="0"/>
        <pt x="578" y="493" on="0"/>
        <pt x="555" y="407" on="0"/>
        <pt x="555" y="373" on="1"/>
        <pt x="555" y="343" on="0"/>
        <pt x="567" y="275" on="0"/>
        <pt x="596" y="216" on="0"/>
        <pt x="645" y="178" on="0"/>
        <pt x="682" y="178" on="1"/>
        <pt x="717" y="178" on="0"/>
        <pt x="765" y="208" on="0"/>
        <pt x="795" y="256" on="0"/>
        <pt x="811" y="318" on="0"/>
        <pt x="818" y="382" on="0"/>
        <pt x="819" y="445" on="0"/>
        <pt x="819" y="469" on="1"/>
        <pt x="967" y="520" on="1"/>
        <pt x="967" y="203" on="1"/>
        <pt x="967" y="187" on="0"/>
        <pt x="982" y="162" on="0"/>
        <pt x="999" y="162" on="1"/>
        <pt x="1022" y="162" on="0"/>
        <pt x="1061" y="196" on="0"/>
        <pt x="1093" y="250" on="0"/>
        <pt x="1117" y="316" on="0"/>
        <pt x="1134" y="381" on="0"/>
        <pt x="1143" y="437" on="0"/>
        <pt x="1143" y="453" on="1"/>
        <pt x="1143" y="543" on="0"/>
        <pt x="1073" y="691" on="0"/>
        <pt x="954" y="797" on="0"/>
        <pt x="798" y="856" on="0"/>
        <pt x="711" y="856" on="1"/>
        <pt x="644" y="856" on="0"/>
        <pt x="523" y="813" on="0"/>
        <pt x="419" y="738" on="0"/>
        <pt x="335" y="637" on="0"/>
        <pt x="276" y="521" on="0"/>
        <pt x="244" y="394" on="0"/>
        <pt x="244" y="332" on="1"/>
        <pt x="244" y="251" on="0"/>
        <pt x="290" y="100" on="0"/>
        <pt x="381" y="-15" on="0"/>
        <pt x="516" y="-84" on="0"/>
        <pt x="604" y="-84" on="1"/>
        <pt x="651" y="-84" on="0"/>
        <pt x="741" y="-64" on="0"/>
        <pt x="784" y="-47" on="1"/>
        <pt x="799" y="-82" on="1"/>
        <pt x="771" y="-97" on="0"/>
        <pt x="703" y="-119" on="0"/>
        <pt x="630" y="-133" on="0"/>
        <pt x="557" y="-139" on="0"/>
        <pt x="526" y="-139" on="1"/>
        <pt x="437" y="-139" on="0"/>
        <pt x="277" y="-63" on="0"/>
        <pt x="157" y="63" on="0"/>
        <pt x="86" y="227" on="0"/>
        <pt x="86" y="315" on="1"/>
        <pt x="86" y="447" on="0"/>
        <pt x="182" y="664" on="0"/>
        <pt x="349" y="819" on="0"/>
        <pt x="576" y="903" on="0"/>
        <pt x="707" y="903" on="1"/>
        <pt x="799" y="903" on="0"/>
        <pt x="973" y="839" on="0"/>
        <pt x="1109" y="723" on="0"/>
        <pt x="1192" y="560" on="0"/>
      </contour>
    </TTGlyph>
    <TTGlyph name="atilde" xMin="63" yMin="-20" xMax="891" yMax="1115">
      <component glyphName="a" x="0" y="0" flags="0x204"/>
      <component glyphName="tilde" x="211" y="-652" flags="0x4"/>
    </TTGlyph>
    <TTGlyph name="b" xMin="111" yMin="-20" xMax="793" yMax="1434">
      <contour>
        <pt x="793" y="397" on="1"/>
        <pt x="793" y="326" on="0"/>
        <pt x="724" y="179" on="0"/>
        <pt x="612" y="57" on="0"/>
        <pt x="469" y="-20" on="0"/>
        <pt x="395" y="-20" on="1"/>
        <pt x="326" y="-20" on="0"/>
        <pt x="220" y="27" on="0"/>
        <pt x="148" y="110" on="0"/>
        <pt x="111" y="223" on="0"/>
        <pt x="111" y="289" on="1"/>
        <pt x="111" y="1370" on="1"/>
        <pt x="295" y="1434" on="1"/>
        <pt x="295" y="256" on="1"/>
        <pt x="295" y="222" on="0"/>
        <pt x="313" y="156" on="0"/>
        <pt x="349" y="103" on="0"/>
        <pt x="404" y="70" on="0"/>
        <pt x="442" y="70" on="1"/>
        <pt x="488" y="70" on="0"/>
        <pt x="557" y="115" on="0"/>
        <pt x="604" y="186" on="0"/>
        <pt x="627" y="270" on="0"/>
        <pt x="627" y="309" on="1"/>
        <pt x="627" y="367" on="0"/>
        <pt x="584" y="486" on="0"/>
        <pt x="508" y="582" on="0"/>
        <pt x="406" y="646" on="0"/>
        <pt x="348" y="651" on="1"/>
        <pt x="514" y="774" on="1"/>
        <pt x="568" y="756" on="0"/>
        <pt x="669" y="679" on="0"/>
        <pt x="747" y="577" on="0"/>
        <pt x="793" y="457" on="0"/>
      </contour>
    </TTGlyph>
    <TTGlyph name="backslash" xMin="57" yMin="-49" xMax="1104" yMax="1479">
      <contour>
        <pt x="1104" y="33" on="1"/>
        <pt x="979" y="-49" on="1"/>
        <pt x="57" y="1401" on="1"/>
        <pt x="170" y="1479" on="1"/>
      </contour>
    </TTGlyph>
    <TTGlyph name="bar" xMin="147" yMin="-285" xMax="354" yMax="1505">
      <contour>
        <pt x="354" y="-209" on="1"/>
        <pt x="147" y="-285" on="1"/>
        <pt x="147" y="1432" on="1"/>
        <pt x="354" y="1505" on="1"/>
      </contour>
    </TTGlyph>
    <TTGlyph name="braceleft" xMin="10" yMin="-289" xMax="596" yMax="1520">
      <contour>
        <pt x="596" y="-276" on="1"/>
        <pt x="557" y="-289" on="0"/>
        <pt x="512" y="-289" on="1"/>
        <pt x="417" y="-289" on="0"/>
        <pt x="306" y="-212" on="0"/>
        <pt x="249" y="-90" on="0"/>
        <pt x="233" y="60" on="0"/>
        <pt x="233" y="133" on="1"/>
        <pt x="233" y="181" on="0"/>
        <pt x="237" y="281" on="0"/>
        <pt x="231" y="375" on="0"/>
        <pt x="210" y="461" on="0"/>
        <pt x="160" y="528" on="0"/>
        <pt x="76" y="573" on="0"/>
        <pt x="10" y="580" on="1"/>
        <pt x="10" y="651" on="1"/>
        <pt x="88" y="660" on="0"/>
        <pt x="178" y="716" on="0"/>
        <pt x="222" y="802" on="0"/>
        <pt x="233" y="913" on="0"/>
        <pt x="233" y="975" on="1"/>
        <pt x="233" y="1028" on="0"/>
        <pt x="231" y="1150" on="0"/>
        <pt x="242" y="1272" on="0"/>
        <pt x="271" y="1383" on="0"/>
        <pt x="333" y="1469" on="0"/>
        <pt x="435" y="1520" on="0"/>
        <pt x="512" y="1520" on="1"/>
        <pt x="534" y="1520" on="0"/>
        <pt x="576" y="1511" on="0"/>
        <pt x="596" y="1505" on="1"/>
        <pt x="582" y="1450" on="1"/>
        <pt x="565" y="1456" on="0"/>
        <pt x="547" y="1456" on="1"/>
        <pt x="503" y="1456" on="0"/>
        <pt x="454" y="1427" on="0"/>
        <pt x="431" y="1378" on="0"/>
        <pt x="426" y="1314" on="0"/>
        <pt x="426" y="1280" on="1"/>
        <pt x="426" y="1230" on="0"/>
        <pt x="428" y="1133" on="0"/>
        <pt x="428" y="1083" on="1"/>
        <pt x="428" y="1028" on="0"/>
        <pt x="418" y="918" on="0"/>
        <pt x="391" y="816" on="0"/>
        <pt x="345" y="727" on="0"/>
        <pt x="273" y="660" on="0"/>
        <pt x="172" y="619" on="0"/>
        <pt x="104" y="616" on="1"/>
        <pt x="174" y="618" on="0"/>
        <pt x="276" y="579" on="0"/>
        <pt x="347" y="510" on="0"/>
        <pt x="392" y="416" on="0"/>
        <pt x="417" y="310" on="0"/>
        <pt x="426" y="197" on="0"/>
        <pt x="426" y="143" on="1"/>
        <pt x="426" y="98" on="0"/>
        <pt x="424" y="8" on="0"/>
        <pt x="424" y="-39" on="1"/>
        <pt x="424" y="-74" on="0"/>
        <pt x="428" y="-141" on="0"/>
        <pt x="452" y="-193" on="0"/>
        <pt x="502" y="-225" on="0"/>
        <pt x="547" y="-225" on="1"/>
        <pt x="556" y="-225" on="0"/>
        <pt x="574" y="-224" on="0"/>
        <pt x="582" y="-221" on="1"/>
      </contour>
    </TTGlyph>
    <TTGlyph name="braceright" xMin="25" yMin="-289" xMax="610" yMax="1520">
      <contour>
        <pt x="610" y="580" on="1"/>
        <pt x="532" y="571" on="0"/>
        <pt x="442" y="515" on="0"/>
        <pt x="398" y="428" on="0"/>
        <pt x="387" y="317" on="0"/>
        <pt x="387" y="254" on="1"/>
        <pt x="387" y="201" on="0"/>
        <pt x="389" y="80" on="0"/>
        <pt x="378" y="-41" on="0"/>
        <pt x="349" y="-152" on="0"/>
        <pt x="288" y="-238" on="0"/>
        <pt x="186" y="-289" on="0"/>
        <pt x="109" y="-289" on="1"/>
        <pt x="63" y="-289" on="0"/>
        <pt x="25" y="-276" on="1"/>
        <pt x="39" y="-221" on="1"/>
        <pt x="48" y="-224" on="0"/>
        <pt x="66" y="-225" on="0"/>
        <pt x="76" y="-225" on="1"/>
        <pt x="119" y="-225" on="0"/>
        <pt x="167" y="-196" on="0"/>
        <pt x="191" y="-147" on="0"/>
        <pt x="197" y="-84" on="0"/>
        <pt x="197" y="-49" on="1"/>
        <pt x="197" y="0" on="0"/>
        <pt x="193" y="96" on="0"/>
        <pt x="193" y="145" on="1"/>
        <pt x="193" y="200" on="0"/>
        <pt x="203" y="312" on="0"/>
        <pt x="230" y="414" on="0"/>
        <pt x="276" y="504" on="0"/>
        <pt x="348" y="571" on="0"/>
        <pt x="450" y="611" on="0"/>
        <pt x="518" y="614" on="1"/>
        <pt x="448" y="612" on="0"/>
        <pt x="347" y="652" on="0"/>
        <pt x="275" y="721" on="0"/>
        <pt x="230" y="814" on="0"/>
        <pt x="204" y="920" on="0"/>
        <pt x="195" y="1032" on="0"/>
        <pt x="195" y="1085" on="1"/>
        <pt x="195" y="1132" on="0"/>
        <pt x="197" y="1223" on="0"/>
        <pt x="197" y="1268" on="1"/>
        <pt x="197" y="1304" on="0"/>
        <pt x="193" y="1372" on="0"/>
        <pt x="171" y="1424" on="0"/>
        <pt x="121" y="1456" on="0"/>
        <pt x="76" y="1456" on="1"/>
        <pt x="57" y="1456" on="0"/>
        <pt x="39" y="1450" on="1"/>
        <pt x="25" y="1505" on="1"/>
        <pt x="45" y="1511" on="0"/>
        <pt x="87" y="1520" on="0"/>
        <pt x="109" y="1520" on="1"/>
        <pt x="173" y="1520" on="0"/>
        <pt x="264" y="1484" on="0"/>
        <pt x="326" y="1422" on="0"/>
        <pt x="364" y="1340" on="0"/>
        <pt x="383" y="1246" on="0"/>
        <pt x="389" y="1146" on="0"/>
        <pt x="389" y="1098" on="1"/>
        <pt x="389" y="1049" on="0"/>
        <pt x="385" y="949" on="0"/>
        <pt x="390" y="855" on="0"/>
        <pt x="411" y="770" on="0"/>
        <pt x="460" y="703" on="0"/>
        <pt x="544" y="658" on="0"/>
        <pt x="610" y="651" on="1"/>
      </contour>
    </TTGlyph>
    <TTGlyph name="bracketleft" xMin="152" yMin="-283" xMax="539" yMax="1505">
      <contour>
        <pt x="539" y="-283" on="1"/>
        <pt x="152" y="-283" on="1"/>
        <pt x="152" y="1505" on="1"/>
        <pt x="539" y="1505" on="1"/>
        <pt x="539" y="1434" on="1"/>
        <pt x="358" y="1434" on="1"/>
        <pt x="358" y="-211" on="1"/>
        <pt x="539" y="-211" on="1"/>
      </contour>
    </TTGlyph>
    <TTGlyph name="bracketright" xMin="39" yMin="-283" xMax="426" yMax="1505">
      <contour>
        <pt x="426" y="-283" on="1"/>
        <pt x="39" y="-283" on="1"/>
        <pt x="39" y="-211" on="1"/>
        <pt x="219" y="-211" on="1"/>
        <pt x="219" y="1434" on="1"/>
        <pt x="39" y="1434" on="1"/>
        <pt x="39" y="1505" on="1"/>
        <pt x="426" y="1505" on="1"/>
      </contour>
    </TTGlyph>
    <TTGlyph name="breve" xMin="0" yMin="1466" xMax="426" yMax="1843">
      <contour>
        <pt x="80" y="1837" on="1"/>
        <pt x="109" y="1815" on="1"/>
        <pt x="93" y="1793" on="0"/>
        <pt x="80" y="1740" on="0"/>
        <pt x="80" y="1714" on="1"/>
        <pt x="80" y="1687" on="0"/>
        <pt x="95" y="1622" on="0"/>
        <pt x="127" y="1566" on="0"/>
        <pt x="175" y="1528" on="0"/>
        <pt x="207" y="1528" on="1"/>
        <pt x="250" y="1528" on="0"/>
        <pt x="303" y="1583" on="0"/>
        <pt x="303" y="1626" on="1"/>
        <pt x="303" y="1663" on="0"/>
        <pt x="267" y="1736" on="0"/>
        <pt x="238" y="1759" on="1"/>
        <pt x="369" y="1843" on="1"/>
        <pt x="426" y="1780" on="0"/>
        <pt x="426" y="1692" on="1"/>
        <pt x="426" y="1641" on="0"/>
        <pt x="390" y="1558" on="0"/>
        <pt x="327" y="1498" on="0"/>
        <pt x="240" y="1466" on="0"/>
        <pt x="190" y="1466" on="1"/>
        <pt x="149" y="1466" on="0"/>
        <pt x="79" y="1493" on="0"/>
        <pt x="28" y="1541" on="0"/>
        <pt x="0" y="1609" on="0"/>
        <pt x="0" y="1651" on="1"/>
        <pt x="0" y="1675" on="0"/>
        <pt x="12" y="1727" on="0"/>
        <pt x="33" y="1776" on="0"/>
        <pt x="62" y="1821" on="0"/>
      </contour>
    </TTGlyph>
    <TTGlyph name="brokenbar" xMin="135" yMin="-283" xMax="342" yMax="1505">
      <contour>
        <pt x="342" y="725" on="1"/>
        <pt x="135" y="651" on="1"/>
        <pt x="135" y="1432" on="1"/>
        <pt x="342" y="1505" on="1"/>
      </contour>
      <contour>
        <pt x="342" y="-209" on="1"/>
        <pt x="135" y="-283" on="1"/>
        <pt x="135" y="498" on="1"/>
        <pt x="342" y="571" on="1"/>
      </contour>
    </TTGlyph>
    <TTGlyph name="bullet" xMin="82" yMin="549" xMax="500" yMax="967">
      <contour>
        <pt x="500" y="758" on="1"/>
        <pt x="500" y="715" on="0"/>
        <pt x="467" y="639" on="0"/>
        <pt x="410" y="582" on="0"/>
        <pt x="334" y="549" on="0"/>
        <pt x="291" y="549" on="1"/>
        <pt x="248" y="549" on="0"/>
        <pt x="172" y="582" on="0"/>
        <pt x="115" y="639" on="0"/>
        <pt x="82" y="715" on="0"/>
        <pt x="82" y="758" on="1"/>
        <pt x="82" y="801" on="0"/>
        <pt x="115" y="877" on="0"/>
        <pt x="172" y="934" on="0"/>
        <pt x="248" y="967" on="0"/>
        <pt x="291" y="967" on="1"/>
        <pt x="334" y="967" on="0"/>
        <pt x="410" y="934" on="0"/>
        <pt x="467" y="877" on="0"/>
        <pt x="500" y="801" on="0"/>
      </contour>
    </TTGlyph>
    <TTGlyph name="c" xMin="61" yMin="-20" xMax="780" yMax="782">
      <contour>
        <pt x="780" y="217" on="1"/>
        <pt x="745" y="172" on="0"/>
        <pt x="662" y="87" on="0"/>
        <pt x="565" y="21" on="0"/>
        <pt x="457" y="-20" on="0"/>
        <pt x="399" y="-20" on="1"/>
        <pt x="325" y="-20" on="0"/>
        <pt x="201" y="32" on="0"/>
        <pt x="111" y="128" on="0"/>
        <pt x="61" y="264" on="0"/>
        <pt x="61" y="348" on="1"/>
        <pt x="61" y="436" on="0"/>
        <pt x="132" y="594" on="0"/>
        <pt x="251" y="713" on="0"/>
        <pt x="409" y="782" on="0"/>
        <pt x="496" y="782" on="1"/>
        <pt x="530" y="782" on="0"/>
        <pt x="599" y="769" on="0"/>
        <pt x="662" y="742" on="0"/>
        <pt x="715" y="697" on="0"/>
        <pt x="733" y="666" on="1"/>
        <pt x="590" y="588" on="1"/>
        <pt x="580" y="612" on="0"/>
        <pt x="543" y="648" on="0"/>
        <pt x="497" y="672" on="0"/>
        <pt x="446" y="684" on="0"/>
        <pt x="422" y="684" on="1"/>
        <pt x="374" y="684" on="0"/>
        <pt x="298" y="641" on="0"/>
        <pt x="245" y="572" on="0"/>
        <pt x="217" y="485" on="0"/>
        <pt x="217" y="440" on="1"/>
        <pt x="217" y="354" on="0"/>
        <pt x="259" y="222" on="0"/>
        <pt x="333" y="132" on="0"/>
        <pt x="433" y="86" on="0"/>
        <pt x="492" y="86" on="1"/>
        <pt x="526" y="86" on="0"/>
        <pt x="598" y="120" on="0"/>
        <pt x="665" y="171" on="0"/>
        <pt x="726" y="229" on="0"/>
        <pt x="750" y="252" on="1"/>
      </contour>
    </TTGlyph>
    <TTGlyph name="cacute" xMin="61" yMin="-20" xMax="780" yMax="1148">
      <component glyphName="c" x="0" y="0" flags="0x204"/>
      <component glyphName="acute" x="366" y="-673" flags="0x4"/>
    </TTGlyph>
    <TTGlyph name="caron" xMin="0" yMin="1487" xMax="565" yMax="1864">
      <contour>
        <pt x="565" y="1798" on="1"/>
        <pt x="289" y="1487" on="1"/>
        <pt x="0" y="1757" on="1"/>
        <pt x="102" y="1864" on="1"/>
        <pt x="346" y="1632" on="1"/>
        <pt x="516" y="1839" on="1"/>
      </contour>
    </TTGlyph>
    <TTGlyph name="ccaron" xMin="61" yMin="-20" xMax="780" yMax="1212">
      <component glyphName="c" x="0" y="0" flags="0x204"/>
      <component glyphName="caron" x="120" y="-652" flags="0x4"/>
    </TTGlyph>
    <TTGlyph name="ccedilla" xMin="63" yMin="-346" xMax="782" yMax="782">
      <contour>
        <pt x="782" y="217" on="1"/>
        <pt x="747" y="172" on="0"/>
        <pt x="664" y="87" on="0"/>
        <pt x="567" y="21" on="0"/>
        <pt x="459" y="-20" on="0"/>
        <pt x="401" y="-20" on="1"/>
        <pt x="395" y="-20" on="0"/>
        <pt x="383" y="-18" on="0"/>
        <pt x="377" y="-18" on="1"/>
        <pt x="336" y="-90" on="1"/>
        <pt x="353" y="-79" on="0"/>
        <pt x="389" y="-68" on="0"/>
        <pt x="404" y="-65" on="1"/>
        <pt x="422" y="-61" on="0"/>
        <pt x="438" y="-61" on="1"/>
        <pt x="460" y="-61" on="0"/>
        <pt x="505" y="-78" on="0"/>
        <pt x="539" y="-113" on="0"/>
        <pt x="561" y="-165" on="0"/>
        <pt x="561" y="-201" on="1"/>
        <pt x="561" y="-236" on="0"/>
        <pt x="533" y="-290" on="0"/>
        <pt x="489" y="-327" on="0"/>
        <pt x="435" y="-346" on="0"/>
        <pt x="410" y="-346" on="1"/>
        <pt x="386" y="-346" on="0"/>
        <pt x="362" y="-336" on="1"/>
        <pt x="342" y="-328" on="0"/>
        <pt x="298" y="-294" on="0"/>
        <pt x="283" y="-262" on="1"/>
        <pt x="311" y="-242" on="1"/>
        <pt x="320" y="-257" on="0"/>
        <pt x="342" y="-272" on="0"/>
        <pt x="351" y="-276" on="1"/>
        <pt x="362" y="-280" on="0"/>
        <pt x="373" y="-281" on="1"/>
        <pt x="401" y="-281" on="0"/>
        <pt x="444" y="-236" on="0"/>
        <pt x="444" y="-201" on="1"/>
        <pt x="444" y="-169" on="0"/>
        <pt x="402" y="-121" on="0"/>
        <pt x="367" y="-121" on="1"/>
        <pt x="353" y="-121" on="0"/>
        <pt x="342" y="-123" on="1"/>
        <pt x="332" y="-125" on="0"/>
        <pt x="314" y="-132" on="0"/>
        <pt x="311" y="-139" on="1"/>
        <pt x="283" y="-115" on="1"/>
        <pt x="340" y="-14" on="1"/>
        <pt x="278" y="-5" on="0"/>
        <pt x="177" y="54" on="0"/>
        <pt x="103" y="147" on="0"/>
        <pt x="63" y="273" on="0"/>
        <pt x="63" y="348" on="1"/>
        <pt x="63" y="436" on="0"/>
        <pt x="134" y="594" on="0"/>
        <pt x="253" y="713" on="0"/>
        <pt x="411" y="782" on="0"/>
        <pt x="498" y="782" on="1"/>
        <pt x="532" y="782" on="0"/>
        <pt x="601" y="769" on="0"/>
        <pt x="664" y="742" on="0"/>
        <pt x="717" y="697" on="0"/>
        <pt x="735" y="666" on="1"/>
        <pt x="592" y="588" on="1"/>
        <pt x="582" y="612" on="0"/>
        <pt x="545" y="648" on="0"/>
        <pt x="499" y="672" on="0"/>
        <pt x="448" y="684" on="0"/>
        <pt x="424" y="684" on="1"/>
        <pt x="376" y="684" on="0"/>
        <pt x="300" y="641" on="0"/>
        <pt x="247" y="572" on="0"/>
        <pt x="219" y="485" on="0"/>
        <pt x="219" y="440" on="1"/>
        <pt x="219" y="354" on="0"/>
        <pt x="261" y="222" on="0"/>
        <pt x="335" y="132" on="0"/>
        <pt x="435" y="86" on="0"/>
        <pt x="494" y="86" on="1"/>
        <pt x="528" y="86" on="0"/>
        <pt x="600" y="120" on="0"/>
        <pt x="667" y="171" on="0"/>
        <pt x="728" y="229" on="0"/>
        <pt x="752" y="252" on="1"/>
      </contour>
    </TTGlyph>
    <TTGlyph name="ccircumflex" xMin="61" yMin="-20" xMax="780" yMax="1211">
      <component glyphName="c" x="0" y="0" flags="0x204"/>
      <component glyphName="circumflex" x="120" y="-653" flags="0x4"/>
    </TTGlyph>
    <TTGlyph name="cdotaccent" xMin="61" yMin="-20" xMax="780" yMax="1023">
      <component glyphName="c" x="0" y="0" flags="0x204"/>
      <component glyphName="dotaccent" x="308" y="-669" flags="0x4"/>
    </TTGlyph>
    <TTGlyph name="cedilla" xMin="0" yMin="-277" xMax="223" yMax="13">
      <contour>
        <pt x="62" y="13" on="1"/>
        <pt x="85" y="0" on="1"/>
        <pt x="42" y="-72" on="1"/>
        <pt x="56" y="-64" on="0"/>
        <pt x="85" y="-54" on="0"/>
        <pt x="97" y="-52" on="1"/>
        <pt x="111" y="-49" on="0"/>
        <pt x="125" y="-49" on="1"/>
        <pt x="143" y="-49" on="0"/>
        <pt x="178" y="-63" on="0"/>
        <pt x="206" y="-90" on="0"/>
        <pt x="223" y="-133" on="0"/>
        <pt x="223" y="-161" on="1"/>
        <pt x="223" y="-189" on="0"/>
        <pt x="200" y="-232" on="0"/>
        <pt x="165" y="-262" on="0"/>
        <pt x="122" y="-277" on="0"/>
        <pt x="102" y="-277" on="1"/>
        <pt x="81" y="-276" on="0"/>
        <pt x="63" y="-269" on="1"/>
        <pt x="47" y="-263" on="0"/>
        <pt x="12" y="-236" on="0"/>
        <pt x="0" y="-210" on="1"/>
        <pt x="23" y="-194" on="1"/>
        <pt x="30" y="-206" on="0"/>
        <pt x="47" y="-218" on="0"/>
        <pt x="55" y="-221" on="1"/>
        <pt x="64" y="-225" on="0"/>
        <pt x="72" y="-225" on="1"/>
        <pt x="95" y="-225" on="0"/>
        <pt x="130" y="-189" on="0"/>
        <pt x="130" y="-161" on="1"/>
        <pt x="130" y="-135" on="0"/>
        <pt x="96" y="-97" on="0"/>
        <pt x="67" y="-97" on="1"/>
        <pt x="57" y="-97" on="0"/>
        <pt x="48" y="-99" on="1"/>
        <pt x="40" y="-101" on="0"/>
        <pt x="25" y="-106" on="0"/>
        <pt x="23" y="-111" on="1"/>
        <pt x="0" y="-92" on="1"/>
      </contour>
    </TTGlyph>
    <TTGlyph name="cent" xMin="100" yMin="-27" xMax="803" yMax="1446">
      <contour>
        <pt x="565" y="713" on="1"/>
        <pt x="551" y="739" on="1"/>
        <pt x="579" y="753" on="0"/>
        <pt x="623" y="796" on="0"/>
        <pt x="655" y="848" on="0"/>
        <pt x="672" y="907" on="0"/>
        <pt x="672" y="936" on="1"/>
        <pt x="672" y="971" on="0"/>
        <pt x="652" y="1033" on="0"/>
        <pt x="613" y="1079" on="0"/>
        <pt x="557" y="1106" on="0"/>
        <pt x="520" y="1106" on="1"/>
        <pt x="474" y="1106" on="0"/>
        <pt x="398" y="1070" on="0"/>
        <pt x="337" y="1010" on="0"/>
        <pt x="291" y="931" on="0"/>
        <pt x="261" y="845" on="0"/>
        <pt x="246" y="758" on="0"/>
        <pt x="246" y="719" on="1"/>
        <pt x="246" y="660" on="0"/>
        <pt x="283" y="532" on="0"/>
        <pt x="353" y="424" on="0"/>
        <pt x="456" y="354" on="0"/>
        <pt x="522" y="354" on="1"/>
        <pt x="584" y="354" on="0"/>
        <pt x="690" y="418" on="0"/>
        <pt x="733" y="463" on="1"/>
        <pt x="758" y="438" on="1"/>
        <pt x="735" y="408" on="0"/>
        <pt x="677" y="352" on="0"/>
        <pt x="611" y="304" on="0"/>
        <pt x="537" y="267" on="0"/>
        <pt x="500" y="256" on="1"/>
        <pt x="535" y="31" on="1"/>
        <pt x="385" y="-27" on="1"/>
        <pt x="420" y="244" on="1"/>
        <pt x="345" y="243" on="0"/>
        <pt x="226" y="317" on="0"/>
        <pt x="143" y="430" on="0"/>
        <pt x="100" y="567" on="0"/>
        <pt x="100" y="629" on="1"/>
        <pt x="100" y="696" on="0"/>
        <pt x="150" y="839" on="0"/>
        <pt x="235" y="973" on="0"/>
        <pt x="349" y="1087" on="0"/>
        <pt x="414" y="1126" on="1"/>
        <pt x="373" y="1391" on="1"/>
        <pt x="522" y="1446" on="1"/>
        <pt x="485" y="1161" on="1"/>
        <pt x="517" y="1175" on="0"/>
        <pt x="584" y="1188" on="0"/>
        <pt x="618" y="1188" on="1"/>
        <pt x="657" y="1188" on="0"/>
        <pt x="725" y="1165" on="0"/>
        <pt x="775" y="1122" on="0"/>
        <pt x="803" y="1058" on="0"/>
        <pt x="803" y="1018" on="1"/>
        <pt x="803" y="969" on="0"/>
        <pt x="764" y="872" on="0"/>
        <pt x="698" y="789" on="0"/>
        <pt x="612" y="727" on="0"/>
      </contour>
    </TTGlyph>
    <TTGlyph name="circumflex" xMin="0" yMin="1487" xMax="565" yMax="1864">
      <contour>
        <pt x="51" y="1511" on="1"/>
        <pt x="0" y="1552" on="1"/>
        <pt x="279" y="1864" on="1"/>
        <pt x="565" y="1593" on="1"/>
        <pt x="465" y="1487" on="1"/>
        <pt x="221" y="1718" on="1"/>
      </contour>
    </TTGlyph>
    <TTGlyph name="colon" xMin="109" yMin="-39" xMax="340" yMax="807">
      <contour>
        <pt x="340" y="76" on="1"/>
        <pt x="340" y="52" on="0"/>
        <pt x="321" y="10" on="0"/>
        <pt x="290" y="-21" on="0"/>
        <pt x="247" y="-39" on="0"/>
        <pt x="223" y="-39" on="1"/>
        <pt x="199" y="-39" on="0"/>
        <pt x="158" y="-21" on="0"/>
        <pt x="127" y="10" on="0"/>
        <pt x="109" y="52" on="0"/>
        <pt x="109" y="76" on="1"/>
        <pt x="109" y="100" on="0"/>
        <pt x="127" y="142" on="0"/>
        <pt x="158" y="174" on="0"/>
        <pt x="199" y="193" on="0"/>
        <pt x="223" y="193" on="1"/>
        <pt x="247" y="193" on="0"/>
        <pt x="290" y="174" on="0"/>
        <pt x="321" y="142" on="0"/>
        <pt x="340" y="100" on="0"/>
      </contour>
      <contour>
        <pt x="340" y="690" on="1"/>
        <pt x="340" y="666" on="0"/>
        <pt x="321" y="625" on="0"/>
        <pt x="290" y="593" on="0"/>
        <pt x="247" y="575" on="0"/>
        <pt x="223" y="575" on="1"/>
        <pt x="199" y="575" on="0"/>
        <pt x="158" y="593" on="0"/>
        <pt x="127" y="625" on="0"/>
        <pt x="109" y="666" on="0"/>
        <pt x="109" y="690" on="1"/>
        <pt x="109" y="714" on="0"/>
        <pt x="127" y="757" on="0"/>
        <pt x="158" y="788" on="0"/>
        <pt x="199" y="807" on="0"/>
        <pt x="223" y="807" on="1"/>
        <pt x="247" y="807" on="0"/>
        <pt x="290" y="788" on="0"/>
        <pt x="321" y="757" on="0"/>
        <pt x="340" y="714" on="0"/>
      </contour>
    </TTGlyph>
    <TTGlyph name="comma" xMin="104" yMin="-162" xMax="336" yMax="193">
      <contour>
        <pt x="336" y="76" on="1"/>
        <pt x="336" y="37" on="0"/>
        <pt x="310" y="-33" on="0"/>
        <pt x="265" y="-93" on="0"/>
        <pt x="206" y="-143" on="0"/>
        <pt x="174" y="-162" on="1"/>
        <pt x="137" y="-131" on="1"/>
        <pt x="156" y="-114" on="0"/>
        <pt x="188" y="-62" on="0"/>
        <pt x="193" y="-37" on="1"/>
        <pt x="154" y="-26" on="0"/>
        <pt x="104" y="36" on="0"/>
        <pt x="104" y="76" on="1"/>
        <pt x="104" y="100" on="0"/>
        <pt x="122" y="142" on="0"/>
        <pt x="154" y="174" on="0"/>
        <pt x="195" y="193" on="0"/>
        <pt x="219" y="193" on="1"/>
        <pt x="243" y="193" on="0"/>
        <pt x="286" y="174" on="0"/>
        <pt x="317" y="142" on="0"/>
        <pt x="336" y="100" on="0"/>
      </contour>
    </TTGlyph>
    <TTGlyph name="copyright" xMin="117" yMin="231" xMax="1055" yMax="1169">
      <contour>
        <pt x="762" y="913" on="1"/>
        <pt x="762" y="881" on="0"/>
        <pt x="737" y="820" on="0"/>
        <pt x="695" y="767" on="0"/>
        <pt x="641" y="728" on="0"/>
        <pt x="612" y="719" on="1"/>
        <pt x="604" y="733" on="1"/>
        <pt x="639" y="750" on="0"/>
        <pt x="682" y="822" on="0"/>
        <pt x="682" y="860" on="1"/>
        <pt x="682" y="907" on="0"/>
        <pt x="631" y="971" on="0"/>
        <pt x="582" y="971" on="1"/>
        <pt x="538" y="971" on="0"/>
        <pt x="472" y="921" on="0"/>
        <pt x="428" y="846" on="0"/>
        <pt x="406" y="760" on="0"/>
        <pt x="406" y="723" on="1"/>
        <pt x="406" y="685" on="0"/>
        <pt x="430" y="601" on="0"/>
        <pt x="475" y="532" on="0"/>
        <pt x="542" y="487" on="0"/>
        <pt x="584" y="487" on="1"/>
        <pt x="624" y="487" on="0"/>
        <pt x="693" y="527" on="0"/>
        <pt x="721" y="555" on="1"/>
        <pt x="733" y="543" on="1"/>
        <pt x="715" y="519" on="0"/>
        <pt x="666" y="475" on="0"/>
        <pt x="609" y="440" on="0"/>
        <pt x="547" y="420" on="0"/>
        <pt x="516" y="420" on="1"/>
        <pt x="471" y="420" on="0"/>
        <pt x="397" y="466" on="0"/>
        <pt x="345" y="537" on="0"/>
        <pt x="317" y="623" on="0"/>
        <pt x="317" y="664" on="1"/>
        <pt x="317" y="724" on="0"/>
        <pt x="375" y="850" on="0"/>
        <pt x="469" y="953" on="0"/>
        <pt x="587" y="1020" on="0"/>
        <pt x="647" y="1020" on="1"/>
        <pt x="697" y="1020" on="0"/>
        <pt x="762" y="964" on="0"/>
      </contour>
      <contour>
        <pt x="1055" y="700" on="1"/>
        <pt x="1055" y="602" on="0"/>
        <pt x="981" y="432" on="0"/>
        <pt x="853" y="304" on="0"/>
        <pt x="683" y="231" on="0"/>
        <pt x="586" y="231" on="1"/>
        <pt x="489" y="231" on="0"/>
        <pt x="318" y="304" on="0"/>
        <pt x="191" y="432" on="0"/>
        <pt x="117" y="602" on="0"/>
        <pt x="117" y="700" on="1"/>
        <pt x="117" y="797" on="0"/>
        <pt x="191" y="967" on="0"/>
        <pt x="318" y="1095" on="0"/>
        <pt x="489" y="1169" on="0"/>
        <pt x="586" y="1169" on="1"/>
        <pt x="683" y="1169" on="0"/>
        <pt x="853" y="1095" on="0"/>
        <pt x="981" y="967" on="0"/>
        <pt x="1055" y="797" on="0"/>
      </contour>
      <contour>
        <pt x="1004" y="698" on="1"/>
        <pt x="1004" y="784" on="0"/>
        <pt x="938" y="936" on="0"/>
        <pt x="825" y="1049" on="0"/>
        <pt x="674" y="1114" on="0"/>
        <pt x="588" y="1114" on="1"/>
        <pt x="502" y="1114" on="0"/>
        <pt x="350" y="1049" on="0"/>
        <pt x="237" y="936" on="0"/>
        <pt x="172" y="784" on="0"/>
        <pt x="172" y="698" on="1"/>
        <pt x="172" y="612" on="0"/>
        <pt x="237" y="461" on="0"/>
        <pt x="350" y="348" on="0"/>
        <pt x="502" y="283" on="0"/>
        <pt x="588" y="283" on="1"/>
        <pt x="674" y="283" on="0"/>
        <pt x="825" y="348" on="0"/>
        <pt x="938" y="461" on="0"/>
        <pt x="1004" y="612" on="0"/>
      </contour>
    </TTGlyph>
    <TTGlyph name="currency" xMin="45" yMin="472" xMax="498" yMax="980">
      <contour>
        <pt x="372" y="672" on="1"/>
        <pt x="372" y="697" on="0"/>
        <pt x="352" y="760" on="0"/>
        <pt x="317" y="816" on="0"/>
        <pt x="267" y="854" on="0"/>
        <pt x="237" y="854" on="1"/>
        <pt x="219" y="854" on="0"/>
        <pt x="195" y="839" on="0"/>
        <pt x="180" y="814" on="0"/>
        <pt x="174" y="783" on="0"/>
        <pt x="174" y="768" on="1"/>
        <pt x="174" y="742" on="0"/>
        <pt x="194" y="679" on="0"/>
        <pt x="229" y="624" on="0"/>
        <pt x="278" y="586" on="0"/>
        <pt x="307" y="586" on="1"/>
        <pt x="325" y="586" on="0"/>
        <pt x="350" y="601" on="0"/>
        <pt x="365" y="626" on="0"/>
        <pt x="372" y="657" on="0"/>
      </contour>
      <contour>
        <pt x="498" y="930" on="1"/>
        <pt x="421" y="836" on="1"/>
        <pt x="441" y="812" on="0"/>
        <pt x="463" y="752" on="0"/>
        <pt x="463" y="719" on="1"/>
        <pt x="463" y="687" on="0"/>
        <pt x="444" y="631" on="0"/>
        <pt x="427" y="608" on="1"/>
        <pt x="498" y="522" on="1"/>
        <pt x="386" y="472" on="1"/>
        <pt x="339" y="542" on="1"/>
        <pt x="307" y="530" on="0"/>
        <pt x="272" y="530" on="1"/>
        <pt x="235" y="530" on="0"/>
        <pt x="204" y="542" on="1"/>
        <pt x="156" y="472" on="1"/>
        <pt x="45" y="522" on="1"/>
        <pt x="117" y="611" on="1"/>
        <pt x="84" y="658" on="0"/>
        <pt x="84" y="719" on="1"/>
        <pt x="84" y="751" on="0"/>
        <pt x="104" y="810" on="0"/>
        <pt x="122" y="834" on="1"/>
        <pt x="45" y="930" on="1"/>
        <pt x="156" y="980" on="1"/>
        <pt x="212" y="899" on="1"/>
        <pt x="226" y="904" on="0"/>
        <pt x="256" y="909" on="0"/>
        <pt x="272" y="909" on="1"/>
        <pt x="287" y="909" on="0"/>
        <pt x="317" y="904" on="0"/>
        <pt x="331" y="899" on="1"/>
        <pt x="386" y="980" on="1"/>
      </contour>
    </TTGlyph>
    <TTGlyph name="d" xMin="63" yMin="-20" xMax="897" yMax="1434">
      <contour>
        <pt x="897" y="119" on="1"/>
        <pt x="885" y="93" on="0"/>
        <pt x="847" y="47" on="0"/>
        <pt x="801" y="11" on="0"/>
        <pt x="746" y="-10" on="0"/>
        <pt x="717" y="-10" on="1"/>
        <pt x="638" y="-10" on="0"/>
        <pt x="567" y="77" on="0"/>
        <pt x="567" y="152" on="1"/>
        <pt x="567" y="170" on="1"/>
        <pt x="550" y="136" on="0"/>
        <pt x="506" y="68" on="0"/>
        <pt x="449" y="14" on="0"/>
        <pt x="378" y="-20" on="0"/>
        <pt x="334" y="-20" on="1"/>
        <pt x="267" y="-20" on="0"/>
        <pt x="166" y="33" on="0"/>
        <pt x="98" y="122" on="0"/>
        <pt x="63" y="240" on="0"/>
        <pt x="63" y="305" on="1"/>
        <pt x="63" y="389" on="0"/>
        <pt x="115" y="559" on="0"/>
        <pt x="215" y="697" on="0"/>
        <pt x="361" y="784" on="0"/>
        <pt x="455" y="784" on="1"/>
        <pt x="513" y="784" on="0"/>
        <pt x="567" y="756" on="1"/>
        <pt x="567" y="1370" on="1"/>
        <pt x="752" y="1434" on="1"/>
        <pt x="752" y="147" on="1"/>
        <pt x="752" y="127" on="0"/>
        <pt x="771" y="94" on="0"/>
        <pt x="793" y="94" on="1"/>
        <pt x="816" y="94" on="0"/>
        <pt x="856" y="131" on="0"/>
        <pt x="868" y="150" on="1"/>
      </contour>
      <contour>
        <pt x="567" y="420" on="1"/>
        <pt x="567" y="633" on="1"/>
        <pt x="544" y="656" on="0"/>
        <pt x="487" y="686" on="0"/>
        <pt x="453" y="686" on="1"/>
        <pt x="394" y="686" on="0"/>
        <pt x="312" y="622" on="0"/>
        <pt x="260" y="526" on="0"/>
        <pt x="236" y="415" on="0"/>
        <pt x="236" y="367" on="1"/>
        <pt x="236" y="329" on="0"/>
        <pt x="251" y="234" on="0"/>
        <pt x="288" y="151" on="0"/>
        <pt x="349" y="94" on="0"/>
        <pt x="395" y="94" on="1"/>
        <pt x="432" y="94" on="0"/>
        <pt x="487" y="127" on="0"/>
        <pt x="525" y="180" on="0"/>
        <pt x="549" y="249" on="0"/>
        <pt x="562" y="321" on="0"/>
        <pt x="567" y="392" on="0"/>
      </contour>
    </TTGlyph>
    <TTGlyph name="dagger" xMin="82" yMin="-285" xMax="705" yMax="1505">
      <contour>
        <pt x="498" y="-209" on="1"/>
        <pt x="291" y="-285" on="1"/>
        <pt x="291" y="934" on="1"/>
        <pt x="82" y="934" on="1"/>
        <pt x="102" y="1006" on="1"/>
        <pt x="291" y="1006" on="1"/>
        <pt x="291" y="1432" on="1"/>
        <pt x="498" y="1505" on="1"/>
        <pt x="498" y="1006" on="1"/>
        <pt x="705" y="1006" on="1"/>
        <pt x="686" y="934" on="1"/>
        <pt x="498" y="934" on="1"/>
      </contour>
    </TTGlyph>
    <TTGlyph name="daggerdbl" xMin="88" yMin="-285" xMax="711" yMax="1505">
      <contour>
        <pt x="711" y="360" on="1"/>
        <pt x="692" y="289" on="1"/>
        <pt x="504" y="289" on="1"/>
        <pt x="504" y="-209" on="1"/>
        <pt x="297" y="-285" on="1"/>
        <pt x="297" y="289" on="1"/>
        <pt x="88" y="289" on="1"/>
        <pt x="109" y="360" on="1"/>
        <pt x="297" y="360" on="1"/>
        <pt x="297" y="934" on="1"/>
        <pt x="88" y="934" on="1"/>
        <pt x="109" y="1006" on="1"/>
        <pt x="297" y="1006" on="1"/>
        <pt x="297" y="1432" on="1"/>
        <pt x="504" y="1505" on="1"/>
        <pt x="504" y="1006" on="1"/>
        <pt x="711" y="1006" on="1"/>
        <pt x="692" y="934" on="1"/>
        <pt x="504" y="934" on="1"/>
        <pt x="504" y="360" on="1"/>
      </contour>
    </TTGlyph>
    <TTGlyph name="dcaron" xMin="63" yMin="-20" xMax="1007" yMax="1437">
      <component glyphName="d" x="0" y="0" flags="0x4"/>
      <component glyphName="uni0315" x="791" y="-322" flags="0x4"/>
    </TTGlyph>
    <TTGlyph name="dcroat" xMin="63" yMin="-20" xMax="897" yMax="1434">
      <contour>
        <pt x="897" y="119" on="1"/>
        <pt x="885" y="93" on="0"/>
        <pt x="847" y="47" on="0"/>
        <pt x="801" y="11" on="0"/>
        <pt x="746" y="-10" on="0"/>
        <pt x="717" y="-10" on="1"/>
        <pt x="638" y="-10" on="0"/>
        <pt x="567" y="77" on="0"/>
        <pt x="567" y="152" on="1"/>
        <pt x="567" y="170" on="1"/>
        <pt x="550" y="136" on="0"/>
        <pt x="506" y="68" on="0"/>
        <pt x="449" y="14" on="0"/>
        <pt x="378" y="-20" on="0"/>
        <pt x="334" y="-20" on="1"/>
        <pt x="267" y="-20" on="0"/>
        <pt x="166" y="33" on="0"/>
        <pt x="98" y="122" on="0"/>
        <pt x="63" y="240" on="0"/>
        <pt x="63" y="305" on="1"/>
        <pt x="63" y="389" on="0"/>
        <pt x="115" y="559" on="0"/>
        <pt x="215" y="697" on="0"/>
        <pt x="361" y="784" on="0"/>
        <pt x="455" y="784" on="1"/>
        <pt x="513" y="784" on="0"/>
        <pt x="567" y="756" on="1"/>
        <pt x="567" y="916" on="1"/>
        <pt x="388" y="916" on="1"/>
        <pt x="431" y="1017" on="1"/>
        <pt x="567" y="1017" on="1"/>
        <pt x="567" y="1370" on="1"/>
        <pt x="752" y="1434" on="1"/>
        <pt x="752" y="1017" on="1"/>
        <pt x="879" y="1017" on="1"/>
        <pt x="838" y="916" on="1"/>
        <pt x="752" y="916" on="1"/>
        <pt x="752" y="147" on="1"/>
        <pt x="752" y="127" on="0"/>
        <pt x="771" y="94" on="0"/>
        <pt x="793" y="94" on="1"/>
        <pt x="816" y="94" on="0"/>
        <pt x="856" y="131" on="0"/>
        <pt x="868" y="150" on="1"/>
      </contour>
      <contour>
        <pt x="567" y="420" on="1"/>
        <pt x="567" y="633" on="1"/>
        <pt x="544" y="656" on="0"/>
        <pt x="487" y="686" on="0"/>
        <pt x="453" y="686" on="1"/>
        <pt x="394" y="686" on="0"/>
        <pt x="312" y="622" on="0"/>
        <pt x="260" y="526" on="0"/>
        <pt x="236" y="415" on="0"/>
        <pt x="236" y="367" on="1"/>
        <pt x="236" y="329" on="0"/>
        <pt x="251" y="234" on="0"/>
        <pt x="288" y="151" on="0"/>
        <pt x="349" y="94" on="0"/>
        <pt x="395" y="94" on="1"/>
        <pt x="432" y="94" on="0"/>
        <pt x="487" y="127" on="0"/>
        <pt x="525" y="180" on="0"/>
        <pt x="549" y="249" on="0"/>
        <pt x="562" y="321" on="0"/>
        <pt x="567" y="392" on="0"/>
      </contour>
    </TTGlyph>
    <TTGlyph name="degree" xMin="72" yMin="997" xMax="451" yMax="1376">
      <contour>
        <pt x="451" y="1186" on="1"/>
        <pt x="451" y="1147" on="0"/>
        <pt x="421" y="1078" on="0"/>
        <pt x="369" y="1027" on="0"/>
        <pt x="299" y="997" on="0"/>
        <pt x="260" y="997" on="1"/>
        <pt x="221" y="997" on="0"/>
        <pt x="152" y="1027" on="0"/>
        <pt x="101" y="1078" on="0"/>
        <pt x="72" y="1147" on="0"/>
        <pt x="72" y="1186" on="1"/>
        <pt x="72" y="1225" on="0"/>
        <pt x="101" y="1294" on="0"/>
        <pt x="152" y="1346" on="0"/>
        <pt x="221" y="1376" on="0"/>
        <pt x="260" y="1376" on="1"/>
        <pt x="299" y="1376" on="0"/>
        <pt x="369" y="1346" on="0"/>
        <pt x="421" y="1294" on="0"/>
        <pt x="451" y="1225" on="0"/>
      </contour>
      <contour>
        <pt x="360" y="1139" on="1"/>
        <pt x="360" y="1164" on="0"/>
        <pt x="340" y="1227" on="0"/>
        <pt x="305" y="1283" on="0"/>
        <pt x="255" y="1321" on="0"/>
        <pt x="225" y="1321" on="1"/>
        <pt x="207" y="1321" on="0"/>
        <pt x="183" y="1306" on="0"/>
        <pt x="168" y="1281" on="0"/>
        <pt x="162" y="1250" on="0"/>
        <pt x="162" y="1235" on="1"/>
        <pt x="162" y="1209" on="0"/>
        <pt x="182" y="1146" on="0"/>
        <pt x="217" y="1091" on="0"/>
        <pt x="266" y="1053" on="0"/>
        <pt x="295" y="1053" on="1"/>
        <pt x="313" y="1053" on="0"/>
        <pt x="338" y="1068" on="0"/>
        <pt x="353" y="1093" on="0"/>
        <pt x="360" y="1124" on="0"/>
      </contour>
    </TTGlyph>
    <TTGlyph name="dieresis" xMin="0" yMin="1503" xMax="483" yMax="1692">
      <contour>
        <pt x="94" y="1692" on="1"/>
        <pt x="113" y="1692" on="0"/>
        <pt x="147" y="1677" on="0"/>
        <pt x="173" y="1651" on="0"/>
        <pt x="188" y="1616" on="0"/>
        <pt x="188" y="1597" on="1"/>
        <pt x="188" y="1578" on="0"/>
        <pt x="173" y="1544" on="0"/>
        <pt x="147" y="1518" on="0"/>
        <pt x="113" y="1503" on="0"/>
        <pt x="94" y="1503" on="1"/>
        <pt x="74" y="1503" on="0"/>
        <pt x="40" y="1518" on="0"/>
        <pt x="14" y="1544" on="0"/>
        <pt x="0" y="1578" on="0"/>
        <pt x="0" y="1597" on="1"/>
        <pt x="0" y="1616" on="0"/>
        <pt x="14" y="1651" on="0"/>
        <pt x="40" y="1677" on="0"/>
        <pt x="74" y="1692" on="0"/>
      </contour>
      <contour>
        <pt x="391" y="1692" on="1"/>
        <pt x="410" y="1692" on="0"/>
        <pt x="444" y="1677" on="0"/>
        <pt x="469" y="1651" on="0"/>
        <pt x="483" y="1616" on="0"/>
        <pt x="483" y="1597" on="1"/>
        <pt x="483" y="1578" on="0"/>
        <pt x="469" y="1544" on="0"/>
        <pt x="444" y="1518" on="0"/>
        <pt x="410" y="1503" on="0"/>
        <pt x="391" y="1503" on="1"/>
        <pt x="371" y="1503" on="0"/>
        <pt x="337" y="1518" on="0"/>
        <pt x="311" y="1544" on="0"/>
        <pt x="297" y="1578" on="0"/>
        <pt x="297" y="1597" on="1"/>
        <pt x="297" y="1616" on="0"/>
        <pt x="311" y="1651" on="0"/>
        <pt x="337" y="1677" on="0"/>
        <pt x="371" y="1692" on="0"/>
      </contour>
    </TTGlyph>
    <TTGlyph name="divide" xMin="96" yMin="416" xMax="842" yMax="1096">
      <contour>
        <pt x="842" y="836" on="1"/>
        <pt x="780" y="674" on="1"/>
        <pt x="96" y="674" on="1"/>
        <pt x="160" y="836" on="1"/>
      </contour>
      <contour>
        <pt x="475" y="1096" on="1"/>
        <pt x="494" y="1096" on="0"/>
        <pt x="528" y="1081" on="0"/>
        <pt x="554" y="1055" on="0"/>
        <pt x="569" y="1020" on="0"/>
        <pt x="569" y="1001" on="1"/>
        <pt x="569" y="981" on="0"/>
        <pt x="554" y="947" on="0"/>
        <pt x="528" y="921" on="0"/>
        <pt x="494" y="907" on="0"/>
        <pt x="475" y="907" on="1"/>
        <pt x="456" y="907" on="0"/>
        <pt x="422" y="921" on="0"/>
        <pt x="396" y="947" on="0"/>
        <pt x="381" y="981" on="0"/>
        <pt x="381" y="1001" on="1"/>
        <pt x="381" y="1020" on="0"/>
        <pt x="396" y="1055" on="0"/>
        <pt x="422" y="1081" on="0"/>
        <pt x="456" y="1096" on="0"/>
      </contour>
      <contour>
        <pt x="475" y="604" on="1"/>
        <pt x="494" y="604" on="0"/>
        <pt x="528" y="589" on="0"/>
        <pt x="554" y="563" on="0"/>
        <pt x="569" y="529" on="0"/>
        <pt x="569" y="510" on="1"/>
        <pt x="569" y="490" on="0"/>
        <pt x="554" y="456" on="0"/>
        <pt x="528" y="430" on="0"/>
        <pt x="494" y="416" on="0"/>
        <pt x="475" y="416" on="1"/>
        <pt x="456" y="416" on="0"/>
        <pt x="422" y="430" on="0"/>
        <pt x="396" y="456" on="0"/>
        <pt x="381" y="490" on="0"/>
        <pt x="381" y="510" on="1"/>
        <pt x="381" y="529" on="0"/>
        <pt x="396" y="563" on="0"/>
        <pt x="422" y="589" on="0"/>
        <pt x="456" y="604" on="0"/>
      </contour>
    </TTGlyph>
    <TTGlyph name="dollar" xMin="104" yMin="-49" xMax="743" yMax="1489">
      <contour>
        <pt x="631" y="911" on="1"/>
        <pt x="616" y="956" on="0"/>
        <pt x="571" y="1034" on="0"/>
        <pt x="510" y="1092" on="0"/>
        <pt x="433" y="1126" on="0"/>
        <pt x="385" y="1126" on="1"/>
        <pt x="351" y="1126" on="0"/>
        <pt x="293" y="1102" on="0"/>
        <pt x="250" y="1059" on="0"/>
        <pt x="225" y="1001" on="0"/>
        <pt x="225" y="967" on="1"/>
        <pt x="225" y="918" on="0"/>
        <pt x="265" y="849" on="0"/>
        <pt x="330" y="798" on="0"/>
        <pt x="413" y="759" on="0"/>
        <pt x="500" y="722" on="0"/>
        <pt x="583" y="680" on="0"/>
        <pt x="648" y="623" on="0"/>
        <pt x="688" y="544" on="0"/>
        <pt x="688" y="489" on="1"/>
        <pt x="688" y="440" on="0"/>
        <pt x="651" y="359" on="0"/>
        <pt x="589" y="298" on="0"/>
        <pt x="506" y="258" on="0"/>
        <pt x="461" y="250" on="1"/>
        <pt x="500" y="8" on="1"/>
        <pt x="350" y="-49" on="1"/>
        <pt x="387" y="242" on="1"/>
        <pt x="350" y="243" on="0"/>
        <pt x="275" y="265" on="0"/>
        <pt x="205" y="303" on="0"/>
        <pt x="144" y="354" on="0"/>
        <pt x="121" y="383" on="1"/>
        <pt x="231" y="508" on="1"/>
        <pt x="240" y="476" on="0"/>
        <pt x="289" y="405" on="0"/>
        <pt x="353" y="346" on="0"/>
        <pt x="425" y="307" on="0"/>
        <pt x="459" y="307" on="1"/>
        <pt x="478" y="307" on="0"/>
        <pt x="519" y="328" on="0"/>
        <pt x="553" y="359" on="0"/>
        <pt x="575" y="397" on="0"/>
        <pt x="575" y="414" on="1"/>
        <pt x="575" y="458" on="0"/>
        <pt x="535" y="522" on="0"/>
        <pt x="468" y="572" on="0"/>
        <pt x="384" y="611" on="0"/>
        <pt x="295" y="652" on="0"/>
        <pt x="211" y="699" on="0"/>
        <pt x="144" y="762" on="0"/>
        <pt x="104" y="847" on="0"/>
        <pt x="104" y="905" on="1"/>
        <pt x="104" y="961" on="0"/>
        <pt x="149" y="1058" on="0"/>
        <pt x="224" y="1134" on="0"/>
        <pt x="322" y="1185" on="0"/>
        <pt x="375" y="1196" on="1"/>
        <pt x="338" y="1434" on="1"/>
        <pt x="487" y="1489" on="1"/>
        <pt x="451" y="1202" on="1"/>
        <pt x="539" y="1200" on="0"/>
        <pt x="689" y="1121" on="0"/>
        <pt x="743" y="1049" on="1"/>
      </contour>
    </TTGlyph>
    <TTGlyph name="dotaccent" xMin="0" yMin="1503" xMax="188" yMax="1692">
      <contour>
        <pt x="94" y="1692" on="1"/>
        <pt x="113" y="1692" on="0"/>
        <pt x="147" y="1677" on="0"/>
        <pt x="173" y="1651" on="0"/>
        <pt x="188" y="1616" on="0"/>
        <pt x="188" y="1597" on="1"/>
        <pt x="188" y="1578" on="0"/>
        <pt x="173" y="1544" on="0"/>
        <pt x="147" y="1518" on="0"/>
        <pt x="113" y="1503" on="0"/>
        <pt x="94" y="1503" on="1"/>
        <pt x="74" y="1503" on="0"/>
        <pt x="40" y="1518" on="0"/>
        <pt x="14" y="1544" on="0"/>
        <pt x="0" y="1578" on="0"/>
        <pt x="0" y="1597" on="1"/>
        <pt x="0" y="1616" on="0"/>
        <pt x="14" y="1651" on="0"/>
        <pt x="40" y="1677" on="0"/>
        <pt x="74" y="1692" on="0"/>
      </contour>
    </TTGlyph>
    <TTGlyph name="dotlessi" xMin="121" yMin="-12" xMax="449" yMax="774">
      <contour>
        <pt x="449" y="117" on="1"/>
        <pt x="426" y="68" on="0"/>
        <pt x="365" y="16" on="0"/>
        <pt x="337" y="4" on="1"/>
        <pt x="304" y="-10" on="0"/>
        <pt x="270" y="-12" on="1"/>
        <pt x="226" y="-12" on="0"/>
        <pt x="168" y="16" on="0"/>
        <pt x="134" y="62" on="0"/>
        <pt x="121" y="120" on="0"/>
        <pt x="121" y="150" on="1"/>
        <pt x="121" y="711" on="1"/>
        <pt x="305" y="774" on="1"/>
        <pt x="305" y="145" on="1"/>
        <pt x="305" y="121" on="0"/>
        <pt x="327" y="93" on="0"/>
        <pt x="362" y="92" on="0"/>
        <pt x="403" y="118" on="0"/>
        <pt x="422" y="147" on="1"/>
      </contour>
    </TTGlyph>
    <TTGlyph name="dotlessj" xMin="-299" yMin="-454" xMax="311" yMax="774">
      <contour>
        <pt x="311" y="82" on="1"/>
        <pt x="311" y="12" on="0"/>
        <pt x="278" y="-112" on="0"/>
        <pt x="221" y="-220" on="0"/>
        <pt x="143" y="-313" on="0"/>
        <pt x="98" y="-350" on="1"/>
        <pt x="33" y="-400" on="0"/>
        <pt x="-36" y="-427" on="1"/>
        <pt x="-65" y="-439" on="0"/>
        <pt x="-131" y="-454" on="0"/>
        <pt x="-198" y="-454" on="0"/>
        <pt x="-267" y="-434" on="0"/>
        <pt x="-299" y="-410" on="1"/>
        <pt x="-186" y="-268" on="1"/>
        <pt x="-134" y="-310" on="0"/>
        <pt x="-43" y="-329" on="0"/>
        <pt x="-9" y="-324" on="1"/>
        <pt x="31" y="-318" on="0"/>
        <pt x="63" y="-297" on="1"/>
        <pt x="91" y="-276" on="0"/>
        <pt x="119" y="-193" on="0"/>
        <pt x="128" y="-91" on="0"/>
        <pt x="127" y="18" on="0"/>
        <pt x="127" y="66" on="1"/>
        <pt x="127" y="711" on="1"/>
        <pt x="311" y="774" on="1"/>
      </contour>
    </TTGlyph>
    <TTGlyph name="e" xMin="59" yMin="-20" xMax="778" yMax="788">
      <contour>
        <pt x="778" y="195" on="1"/>
        <pt x="743" y="150" on="0"/>
        <pt x="660" y="72" on="0"/>
        <pt x="563" y="14" on="0"/>
        <pt x="455" y="-20" on="0"/>
        <pt x="397" y="-20" on="1"/>
        <pt x="323" y="-20" on="0"/>
        <pt x="199" y="33" on="0"/>
        <pt x="109" y="126" on="0"/>
        <pt x="59" y="253" on="0"/>
        <pt x="59" y="326" on="1"/>
        <pt x="59" y="386" on="0"/>
        <pt x="93" y="502" on="0"/>
        <pt x="155" y="604" on="0"/>
        <pt x="240" y="691" on="0"/>
        <pt x="342" y="753" on="0"/>
        <pt x="456" y="788" on="0"/>
        <pt x="516" y="788" on="1"/>
        <pt x="558" y="788" on="0"/>
        <pt x="633" y="768" on="0"/>
        <pt x="691" y="725" on="0"/>
        <pt x="725" y="658" on="0"/>
        <pt x="725" y="612" on="1"/>
        <pt x="725" y="574" on="0"/>
        <pt x="680" y="490" on="0"/>
        <pt x="607" y="406" on="0"/>
        <pt x="515" y="325" on="0"/>
        <pt x="420" y="256" on="0"/>
        <pt x="332" y="204" on="0"/>
        <pt x="299" y="190" on="1"/>
        <pt x="336" y="144" on="0"/>
        <pt x="434" y="86" on="0"/>
        <pt x="489" y="86" on="1"/>
        <pt x="524" y="86" on="0"/>
        <pt x="596" y="113" on="0"/>
        <pt x="663" y="155" on="0"/>
        <pt x="724" y="205" on="0"/>
        <pt x="748" y="227" on="1"/>
      </contour>
      <contour>
        <pt x="537" y="575" on="1"/>
        <pt x="537" y="598" on="0"/>
        <pt x="522" y="640" on="0"/>
        <pt x="494" y="671" on="0"/>
        <pt x="455" y="690" on="0"/>
        <pt x="430" y="690" on="1"/>
        <pt x="385" y="690" on="0"/>
        <pt x="309" y="627" on="0"/>
        <pt x="254" y="535" on="0"/>
        <pt x="223" y="432" on="0"/>
        <pt x="223" y="393" on="1"/>
        <pt x="223" y="355" on="0"/>
        <pt x="247" y="275" on="0"/>
        <pt x="268" y="238" on="1"/>
        <pt x="308" y="260" on="0"/>
        <pt x="402" y="338" on="0"/>
        <pt x="483" y="431" on="0"/>
        <pt x="537" y="531" on="0"/>
      </contour>
    </TTGlyph>
    <TTGlyph name="eacute" xMin="59" yMin="-20" xMax="778" yMax="1163">
      <component glyphName="e" x="0" y="0" flags="0x204"/>
      <component glyphName="acute" x="389" y="-658" flags="0x4"/>
    </TTGlyph>
    <TTGlyph name="ebreve" xMin="59" yMin="-20" xMax="778" yMax="1226">
      <component glyphName="e" x="0" y="0" flags="0x204"/>
      <component glyphName="breve" x="213" y="-617" flags="0x4"/>
    </TTGlyph>
    <TTGlyph name="ecaron" xMin="59" yMin="-20" xMax="778" yMax="1216">
      <component glyphName="e" x="0" y="0" flags="0x204"/>
      <component glyphName="caron" x="124" y="-648" flags="0x4"/>
    </TTGlyph>
    <TTGlyph name="ecircumflex" xMin="59" yMin="-20" xMax="778" yMax="1212">
      <component glyphName="e" x="0" y="0" flags="0x204"/>
      <component glyphName="circumflex" x="135" y="-652" flags="0x4"/>
    </TTGlyph>
    <TTGlyph name="edieresis" xMin="59" yMin="-20" xMax="778" yMax="1038">
      <component glyphName="e" x="0" y="0" flags="0x204"/>
      <component glyphName="dieresis" x="176" y="-654" flags="0x4"/>
    </TTGlyph>
    <TTGlyph name="edotaccent" xMin="59" yMin="-20" xMax="778" yMax="1032">
      <component glyphName="e" x="0" y="0" flags="0x204"/>
      <component glyphName="dotaccent" x="332" y="-660" flags="0x4"/>
    </TTGlyph>
    <TTGlyph name="egrave" xMin="59" yMin="-20" xMax="778" yMax="1142">
      <component glyphName="e" x="0" y="0" flags="0x204"/>
      <component glyphName="grave" x="70" y="-685" flags="0x4"/>
    </TTGlyph>
    <TTGlyph name="eight" xMin="78" yMin="-63" xMax="1100" yMax="1456">
      <contour>
        <pt x="1100" y="406" on="1"/>
        <pt x="1100" y="295" on="0"/>
        <pt x="1007" y="120" on="0"/>
        <pt x="854" y="0" on="0"/>
        <pt x="657" y="-63" on="0"/>
        <pt x="553" y="-63" on="1"/>
        <pt x="462" y="-63" on="0"/>
        <pt x="291" y="-8" on="0"/>
        <pt x="158" y="98" on="0"/>
        <pt x="78" y="250" on="0"/>
        <pt x="78" y="348" on="1"/>
        <pt x="78" y="419" on="0"/>
        <pt x="132" y="543" on="0"/>
        <pt x="221" y="647" on="0"/>
        <pt x="333" y="730" on="0"/>
        <pt x="391" y="760" on="1"/>
        <pt x="349" y="787" on="0"/>
        <pt x="273" y="854" on="0"/>
        <pt x="216" y="935" on="0"/>
        <pt x="182" y="1029" on="0"/>
        <pt x="182" y="1081" on="1"/>
        <pt x="182" y="1145" on="0"/>
        <pt x="225" y="1251" on="0"/>
        <pt x="298" y="1335" on="0"/>
        <pt x="396" y="1396" on="0"/>
        <pt x="505" y="1436" on="0"/>
        <pt x="621" y="1456" on="0"/>
        <pt x="676" y="1456" on="1"/>
        <pt x="746" y="1456" on="0"/>
        <pt x="867" y="1419" on="0"/>
        <pt x="957" y="1344" on="0"/>
        <pt x="1008" y="1233" on="0"/>
        <pt x="1008" y="1159" on="1"/>
        <pt x="1008" y="1093" on="0"/>
        <pt x="948" y="985" on="0"/>
        <pt x="856" y="898" on="0"/>
        <pt x="744" y="830" on="0"/>
        <pt x="692" y="805" on="1"/>
        <pt x="734" y="787" on="0"/>
        <pt x="828" y="745" on="0"/>
        <pt x="919" y="692" on="0"/>
        <pt x="1001" y="629" on="0"/>
        <pt x="1063" y="552" on="0"/>
        <pt x="1100" y="460" on="0"/>
      </contour>
      <contour>
        <pt x="819" y="1122" on="1"/>
        <pt x="819" y="1172" on="0"/>
        <pt x="786" y="1266" on="0"/>
        <pt x="726" y="1338" on="0"/>
        <pt x="641" y="1382" on="0"/>
        <pt x="588" y="1382" on="1"/>
        <pt x="542" y="1382" on="0"/>
        <pt x="458" y="1355" on="0"/>
        <pt x="394" y="1303" on="0"/>
        <pt x="356" y="1227" on="0"/>
        <pt x="356" y="1178" on="1"/>
        <pt x="356" y="1124" on="0"/>
        <pt x="398" y="1027" on="0"/>
        <pt x="466" y="944" on="0"/>
        <pt x="551" y="877" on="0"/>
        <pt x="594" y="852" on="1"/>
        <pt x="634" y="873" on="0"/>
        <pt x="714" y="925" on="0"/>
        <pt x="778" y="991" on="0"/>
        <pt x="819" y="1072" on="0"/>
      </contour>
      <contour>
        <pt x="946" y="256" on="1"/>
        <pt x="946" y="310" on="0"/>
        <pt x="902" y="408" on="0"/>
        <pt x="828" y="495" on="0"/>
        <pt x="733" y="570" on="0"/>
        <pt x="633" y="634" on="0"/>
        <pt x="533" y="686" on="0"/>
        <pt x="492" y="705" on="1"/>
        <pt x="453" y="676" on="0"/>
        <pt x="387" y="602" on="0"/>
        <pt x="339" y="516" on="0"/>
        <pt x="311" y="422" on="0"/>
        <pt x="311" y="373" on="1"/>
        <pt x="311" y="305" on="0"/>
        <pt x="370" y="181" on="0"/>
        <pt x="469" y="86" on="0"/>
        <pt x="596" y="29" on="0"/>
        <pt x="664" y="29" on="1"/>
        <pt x="713" y="29" on="0"/>
        <pt x="814" y="59" on="0"/>
        <pt x="895" y="116" on="0"/>
        <pt x="946" y="201" on="0"/>
      </contour>
    </TTGlyph>
    <TTGlyph name="ellipsis" xMin="104" yMin="-39" xMax="1212" yMax="193">
      <contour>
        <pt x="336" y="76" on="1"/>
        <pt x="336" y="52" on="0"/>
        <pt x="317" y="10" on="0"/>
        <pt x="286" y="-21" on="0"/>
        <pt x="243" y="-39" on="0"/>
        <pt x="219" y="-39" on="1"/>
        <pt x="195" y="-39" on="0"/>
        <pt x="154" y="-21" on="0"/>
        <pt x="122" y="10" on="0"/>
        <pt x="104" y="52" on="0"/>
        <pt x="104" y="76" on="1"/>
        <pt x="104" y="100" on="0"/>
        <pt x="122" y="142" on="0"/>
        <pt x="154" y="174" on="0"/>
        <pt x="195" y="193" on="0"/>
        <pt x="219" y="193" on="1"/>
        <pt x="243" y="193" on="0"/>
        <pt x="286" y="174" on="0"/>
        <pt x="317" y="142" on="0"/>
        <pt x="336" y="100" on="0"/>
      </contour>
      <contour>
        <pt x="774" y="76" on="1"/>
        <pt x="774" y="52" on="0"/>
        <pt x="755" y="10" on="0"/>
        <pt x="724" y="-21" on="0"/>
        <pt x="681" y="-39" on="0"/>
        <pt x="657" y="-39" on="1"/>
        <pt x="633" y="-39" on="0"/>
        <pt x="592" y="-21" on="0"/>
        <pt x="560" y="10" on="0"/>
        <pt x="542" y="52" on="0"/>
        <pt x="542" y="76" on="1"/>
        <pt x="542" y="100" on="0"/>
        <pt x="560" y="142" on="0"/>
        <pt x="592" y="174" on="0"/>
        <pt x="633" y="193" on="0"/>
        <pt x="657" y="193" on="1"/>
        <pt x="681" y="193" on="0"/>
        <pt x="724" y="174" on="0"/>
        <pt x="755" y="142" on="0"/>
        <pt x="774" y="100" on="0"/>
      </contour>
      <contour>
        <pt x="1212" y="76" on="1"/>
        <pt x="1212" y="52" on="0"/>
        <pt x="1193" y="10" on="0"/>
        <pt x="1162" y="-21" on="0"/>
        <pt x="1119" y="-39" on="0"/>
        <pt x="1095" y="-39" on="1"/>
        <pt x="1071" y="-39" on="0"/>
        <pt x="1030" y="-21" on="0"/>
        <pt x="998" y="10" on="0"/>
        <pt x="980" y="52" on="0"/>
        <pt x="980" y="76" on="1"/>
        <pt x="980" y="100" on="0"/>
        <pt x="998" y="142" on="0"/>
        <pt x="1030" y="174" on="0"/>
        <pt x="1071" y="193" on="0"/>
        <pt x="1095" y="193" on="1"/>
        <pt x="1119" y="193" on="0"/>
        <pt x="1162" y="174" on="0"/>
        <pt x="1193" y="142" on="0"/>
        <pt x="1212" y="100" on="0"/>
      </contour>
    </TTGlyph>
    <TTGlyph name="emacron" xMin="59" yMin="-20" xMax="778" yMax="1001">
      <component glyphName="e" x="0" y="0" flags="0x204"/>
      <component glyphName="macron" x="174" y="-674" flags="0x4"/>
    </TTGlyph>
</ttFont>
